<svg xmlns="http://www.w3.org/2000/svg" xmlns:xlink="http://www.w3.org/1999/xlink" width="300" zoomAndPan="magnify" viewBox="0 0 224.87999 74.999997" height="100" preserveAspectRatio="xMidYMid meet" version="1.0"><defs><g/><clipPath id="adcd69d5d9"><path d="M 208 8 L 223 8 L 223 20 L 208 20 Z M 208 8 " clip-rule="nonzero"/></clipPath><clipPath id="42b4eeeec5"><path d="M 206.445312 10.515625 L 216.726562 4.34375 L 223.285156 15.269531 L 213 21.441406 Z M 206.445312 10.515625 " clip-rule="nonzero"/></clipPath><clipPath id="4ba842d365"><path d="M 206.445312 10.515625 L 216.726562 4.34375 L 223.285156 15.269531 L 213 21.441406 Z M 206.445312 10.515625 " clip-rule="nonzero"/></clipPath><clipPath id="f61145750e"><path d="M 173 54 L 204 54 L 204 62 L 173 62 Z M 173 54 " clip-rule="nonzero"/></clipPath><clipPath id="a93c235137"><path d="M 173.871094 64.644531 L 172.910156 55.703125 L 203.464844 52.410156 L 204.429688 61.355469 Z M 173.871094 64.644531 " clip-rule="nonzero"/></clipPath><clipPath id="e292691d0d"><path d="M 173.871094 64.644531 L 172.910156 55.703125 L 203.464844 52.410156 L 204.429688 61.355469 Z M 173.871094 64.644531 " clip-rule="nonzero"/></clipPath></defs><g fill="#e83f64" fill-opacity="1"><g transform="translate(35.471699, 56.261762)"><g><path d="M 6.417969 -12.121094 C 9.65625 -12.519531 13.386719 -12.699219 15.828125 -12.867188 L 18.363281 -5.613281 C 19.046875 -4.199219 20.25 -4.082031 21.132812 -4.492188 C 22.015625 -4.90625 22.578125 -6.113281 22.074219 -7.304688 L 12.644531 -32.195312 C 12.277344 -33.121094 11.695312 -33.515625 10.804688 -33.503906 C 10.09375 -33.492188 9.4375 -32.90625 9.089844 -32.148438 C 8.445312 -30.628906 7.671875 -28.621094 6.816406 -26.078125 C 5.957031 -23.578125 5.105469 -20.988281 4.292969 -18.359375 L 2.035156 -10.953125 L 0.589844 -5.960938 C 0.25 -4.667969 1.0625 -3.746094 1.996094 -3.578125 C 2.753906 -3.457031 3.992188 -3.828125 4.507812 -5.257812 Z M 14.761719 -16.140625 C 11.921875 -15.96875 9.65625 -15.894531 7.394531 -15.6875 L 10.792969 -27.683594 Z M 14.761719 -16.140625 "/></g></g></g><g fill="#e83f64" fill-opacity="1"><g transform="translate(58.568789, 55.962841)"><g><path d="M 6.566406 -7.546875 C 6.566406 -10.96875 6.566406 -14.34375 6.527344 -17.5 C 7.546875 -17.511719 8.746094 -17.570312 9.988281 -17.589844 C 11.234375 -17.605469 12.433594 -17.574219 13.636719 -17.414062 C 14.660156 -17.070312 15.378906 -16.636719 16.054688 -15.980469 C 16.640625 -15.277344 17.050781 -14.527344 17.058594 -13.636719 C 17.082031 -11.816406 16.085938 -9.980469 14.5 -8.9375 C 12.871094 -7.851562 10.300781 -7.417969 6.566406 -7.546875 Z M 6.304688 -20.785156 C 5.9375 -25.355469 5.859375 -27.929688 5.832031 -30.0625 C 8.539062 -30.230469 10.9375 -30.351562 12.941406 -29.710938 C 14.90625 -29.023438 16.078125 -27.75 16.101562 -26.019531 C 15.8125 -24.371094 15.292969 -23.300781 13.882812 -22.347656 C 11.894531 -21.390625 8.613281 -20.859375 6.304688 -20.785156 Z M 4.5 -33.332031 C 3.878906 -33.28125 3.257812 -33.09375 2.683594 -32.863281 C 2.109375 -32.636719 1.894531 -31.964844 2 -30.945312 C 2.054688 -30.101562 2.160156 -28.769531 2.222656 -27.304688 L 2.457031 -22.910156 C 2.507812 -19.136719 2.6875 -15.363281 2.773438 -12.339844 C 2.855469 -9.277344 2.886719 -6.921875 2.855469 -5.855469 C 2.738281 -4.609375 4.210938 -4.097656 5.988281 -4.074219 C 11.144531 -3.785156 15.089844 -4.460938 17.554688 -6.269531 C 19.976562 -8.03125 21.140625 -10.800781 21.097656 -14.132812 C 21.074219 -15.734375 20.4375 -17.144531 19.3125 -18.199219 C 18.054688 -19.203125 16.671875 -19.761719 14.714844 -19.914062 C 16.660156 -20.472656 17.851562 -21.15625 18.679688 -22.410156 C 19.375 -23.617188 19.761719 -24.644531 19.742188 -26.242188 C 19.699219 -29.441406 18.074219 -31.421875 14.996094 -32.492188 C 11.78125 -33.558594 8.226562 -33.691406 4.5 -33.332031 Z M 4.5 -33.332031 "/></g></g></g><g fill="#e83f64" fill-opacity="1"><g transform="translate(81.132875, 55.670818)"><g><path d="M 12.980469 -33.53125 C 9.738281 -33.488281 6.875 -31.628906 4.78125 -28.628906 C 2.734375 -25.625 1.5 -21.476562 1.558594 -16.8125 C 1.621094 -12.148438 2.640625 -8.917969 4.441406 -6.855469 C 6.203125 -4.789062 8.65625 -3.933594 11.632812 -3.972656 C 15.675781 -4.023438 18.757812 -5.972656 20.851562 -9.023438 C 22.898438 -12.070312 23.957031 -16.257812 23.898438 -20.746094 C 23.839844 -25.230469 22.644531 -28.503906 20.660156 -30.566406 C 18.726562 -32.628906 16.003906 -33.570312 12.980469 -33.53125 Z M 19.460938 -20.332031 C 19.507812 -16.644531 18.796875 -13.480469 17.535156 -11.15625 C 16.191406 -8.828125 14.296875 -7.472656 11.855469 -7.4375 C 7.945312 -7.386719 5.90625 -10.5625 5.820312 -17.132812 C 5.765625 -21.355469 6.746094 -24.609375 8.136719 -26.804688 C 9.53125 -28.957031 11.339844 -30.132812 12.9375 -30.15625 C 14.492188 -30.175781 16.050781 -29.75 17.316406 -28.300781 C 18.53125 -26.851562 19.410156 -24.417969 19.460938 -20.332031 Z M 19.460938 -20.332031 "/></g></g></g><g fill="#e83f64" fill-opacity="1"><g transform="translate(107.072686, 55.335107)"><g><path d="M 12.210938 -3.980469 C 16.695312 -4.035156 19.863281 -6.34375 21.757812 -11.121094 C 23.609375 -15.765625 23.96875 -22.167969 23.316406 -31.398438 C 23.164062 -32.773438 22.355469 -33.476562 21.113281 -33.457031 C 19.652344 -33.128906 19.039062 -32.367188 19.054688 -31.167969 C 19.699219 -22.601562 19.238281 -17.042969 18.085938 -13.296875 C 16.890625 -9.503906 14.917969 -7.65625 12.074219 -7.621094 C 10.121094 -7.59375 8.542969 -9.171875 7.613281 -12.492188 C 6.636719 -15.722656 6.296875 -21.539062 6.75 -31.007812 C 6.78125 -32.25 6.28125 -33 4.992188 -33.160156 C 3.527344 -32.964844 2.738281 -32.242188 2.710938 -30.867188 C 1.949219 -20.949219 2.167969 -14.511719 3.644531 -10.265625 C 4.988281 -5.882812 7.902344 -3.921875 12.210938 -3.980469 Z M 12.210938 -3.980469 "/></g></g></g><g fill="#e83f64" fill-opacity="1"><g transform="translate(133.634345, 54.991347)"><g><path d="M 2.15625 -32.414062 C 0.742188 -32.039062 0.355469 -31.011719 0.367188 -30.125 C 0.558594 -29.0625 1.320312 -28.316406 2.386719 -28.507812 C 4.113281 -28.75 5.886719 -29.085938 7.839844 -29.289062 C 7.832031 -26.488281 7.84375 -22.136719 7.898438 -17.738281 L 8.050781 -6.144531 C 8.066406 -4.902344 8.875 -4.203125 9.898438 -4.214844 C 11.273438 -4.234375 12.058594 -5.21875 12.046875 -6.285156 C 12.007812 -9.171875 11.949219 -13.792969 11.9375 -18.28125 L 11.789062 -29.605469 C 13.566406 -29.671875 15.609375 -29.699219 17.609375 -29.683594 C 18.5 -29.558594 19.152344 -30.414062 19.140625 -31.433594 C 19.128906 -32.324219 18.582031 -33.425781 17.46875 -33.589844 C 12.316406 -33.523438 7.964844 -33.246094 2.15625 -32.414062 Z M 2.15625 -32.414062 "/></g></g></g><g fill="#e83f64" fill-opacity="1"><g transform="translate(154.110809, 54.726342)"><g/></g></g><g fill="#e83f64" fill-opacity="1"><g transform="translate(162.772218, 54.614247)"><g><path d="M 3.304688 -5.597656 C 3.363281 -4.351562 4.035156 -3.871094 5.28125 -3.890625 C 6.523438 -3.90625 6.914062 -4.578125 6.898438 -6.042969 C 6.488281 -10.167969 6.316406 -13.144531 6.289062 -15.140625 C 6.265625 -17.050781 6.132812 -20.425781 5.894531 -25.085938 L 12.992188 -5.453125 C 13.402344 -4.4375 14.074219 -3.957031 15.097656 -3.925781 C 15.945312 -3.761719 16.738281 -4.347656 17.253906 -5.597656 L 23.65625 -25.851562 C 23.925781 -22.167969 24.011719 -18.792969 23.878906 -15.546875 C 23.742188 -12.214844 23.515625 -9.234375 23.199219 -6.253906 C 23.082031 -4.785156 23.539062 -4.035156 24.78125 -4.050781 C 25.894531 -3.933594 26.550781 -4.609375 26.839844 -6.210938 C 27.328125 -9.773438 27.542969 -13.726562 27.484375 -18.304688 C 27.425781 -22.746094 27.144531 -27.316406 26.6875 -31.886719 C 26.363281 -32.90625 25.734375 -33.472656 24.84375 -33.597656 C 23.953125 -33.628906 23.160156 -33.128906 22.597656 -31.921875 L 15.023438 -9.613281 L 6.652344 -31.714844 C 6.238281 -32.777344 5.386719 -33.34375 4.148438 -33.148438 C 2.90625 -32.957031 2.425781 -32.152344 2.445312 -30.597656 C 2.363281 -23.488281 2.425781 -18.601562 2.460938 -15.890625 C 2.542969 -13.050781 2.761719 -9.675781 3.304688 -5.597656 Z M 3.304688 -5.597656 "/></g></g></g><g fill="#e83f64" fill-opacity="1"><g transform="translate(192.887275, 54.2245)"><g><path d="M 6.5625 -28.5625 C 8.289062 -28.9375 9.882812 -29.226562 11.480469 -29.425781 C 13.03125 -29.621094 14.851562 -29.824219 16.984375 -29.851562 C 17.917969 -29.863281 18.3125 -30.3125 18.117188 -31.507812 C 17.96875 -32.707031 17.25 -33.277344 16.183594 -33.394531 C 14.050781 -33.367188 11.964844 -33.25 10.011719 -33.046875 C 8.058594 -32.84375 6.289062 -32.46875 4.828125 -32.09375 C 3.941406 -31.816406 3.367188 -31.496094 3.0625 -31.136719 C 2.753906 -30.777344 2.589844 -30.019531 2.46875 -28.863281 C 2.191406 -26.417969 2.277344 -23.175781 2.507812 -18.914062 C 2.742188 -14.652344 3.097656 -11.28125 3.683594 -7.066406 C 3.742188 -6 4.105469 -5.339844 4.601562 -4.992188 C 5.007812 -4.507812 5.765625 -4.25 7.007812 -4.222656 C 8.121094 -4.191406 9.808594 -4.214844 12.117188 -4.289062 C 14.425781 -4.363281 16.6875 -4.660156 18.992188 -5.175781 C 20.1875 -5.371094 20.667969 -6.085938 20.609375 -7.285156 C 20.59375 -8.484375 19.789062 -8.785156 18.414062 -8.722656 C 16.773438 -8.347656 15 -8.144531 13.226562 -7.945312 C 11.40625 -7.746094 9.363281 -7.71875 7.582031 -7.871094 C 7.195312 -10.488281 6.988281 -12.796875 6.769531 -15.769531 L 17.597656 -16.664062 C 18.84375 -16.726562 19.5 -17.445312 19.660156 -18.691406 C 19.648438 -19.757812 18.664062 -20.234375 17.375 -20.214844 L 6.679688 -19.324219 C 6.492188 -23.585938 6.449219 -26.738281 6.5625 -28.5625 Z M 6.5625 -28.5625 "/></g></g></g><g clip-path="url(#adcd69d5d9)"><g clip-path="url(#42b4eeeec5)"><g clip-path="url(#4ba842d365)"><path fill="#ffcece" d="M 222.296875 13.625 C 222.175781 14.238281 221.820312 14.699219 221.351562 15.121094 C 220.234375 16.132812 219.148438 17.1875 218.03125 18.207031 C 217.660156 18.539062 217.265625 18.847656 216.851562 19.125 C 216.472656 19.382812 216.089844 19.351562 215.859375 19.105469 C 215.621094 18.851562 215.617188 18.441406 215.953125 18.105469 C 216.511719 17.558594 217.117188 17.058594 217.695312 16.527344 C 218.574219 15.730469 219.429688 14.90625 220.324219 14.132812 C 220.84375 13.683594 221.464844 13.414062 222.171875 13.429688 Z M 208.632812 9.203125 C 208.351562 9.707031 208.203125 10.246094 208.316406 10.796875 C 208.613281 12.21875 208.933594 13.640625 209.273438 15.058594 C 209.339844 15.335938 209.472656 15.597656 209.652344 15.816406 C 209.769531 15.960938 210.046875 16.097656 210.203125 16.054688 C 210.386719 16 210.546875 15.757812 210.660156 15.570312 C 210.726562 15.457031 210.707031 15.285156 210.691406 15.144531 C 210.464844 13.472656 210.230469 11.804688 209.621094 10.234375 C 209.457031 9.816406 209.0625 9.488281 208.769531 9.117188 Z M 215.179688 9.6875 C 214.46875 11.035156 213.722656 12.367188 213.378906 13.859375 C 213.300781 14.21875 213.117188 14.558594 213.007812 14.910156 C 212.914062 15.222656 212.808594 15.542969 212.785156 15.867188 C 212.757812 16.15625 212.898438 16.410156 213.222656 16.476562 C 213.527344 16.539062 213.757812 16.375 213.894531 16.128906 C 214.183594 15.601562 214.496094 15.078125 214.703125 14.523438 C 215.117188 13.414062 215.476562 12.285156 215.847656 11.167969 C 215.992188 10.726562 216.136719 10.28125 216.265625 9.835938 C 216.363281 9.492188 216.402344 9.140625 216.15625 8.8125 C 215.683594 8.960938 215.390625 9.289062 215.179688 9.6875 Z M 215.179688 9.6875 " fill-opacity="1" fill-rule="nonzero"/></g></g></g><g clip-path="url(#f61145750e)"><g clip-path="url(#a93c235137)"><g clip-path="url(#e292691d0d)"><path fill="#ffcece" d="M 199.640625 54.453125 C 201.515625 54.242188 203.382812 55.660156 203.585938 57.429688 C 203.792969 59.242188 202.15625 61.128906 200.1875 61.332031 C 198.46875 61.515625 196.609375 60.074219 196.421875 58.429688 C 196.246094 56.691406 197.898438 54.640625 199.640625 54.453125 Z M 185.394531 58.078125 C 185.597656 59.753906 187.335938 61.015625 189.203125 60.835938 C 191.160156 60.660156 192.621094 59.023438 192.46875 57.191406 C 192.300781 55.300781 190.65625 54.171875 188.394531 54.402344 C 186.460938 54.597656 185.167969 56.183594 185.394531 58.078125 Z M 176.601562 55.488281 C 174.808594 55.714844 173.648438 56.976562 173.835938 58.507812 C 174.078125 60.546875 175.730469 61.941406 177.675781 61.746094 C 179.550781 61.542969 180.871094 59.976562 180.664062 58.175781 C 180.460938 56.371094 178.710938 55.226562 176.601562 55.488281 Z M 176.601562 55.488281 " fill-opacity="1" fill-rule="nonzero"/></g></g></g></svg>