<svg xmlns="http://www.w3.org/2000/svg" xmlns:xlink="http://www.w3.org/1999/xlink" width="300" zoomAndPan="magnify" viewBox="0 0 224.87999 74.999997" height="100" preserveAspectRatio="xMidYMid meet" version="1.0"><defs><g/></defs><g fill="#e83f64" fill-opacity="1"><g transform="translate(92.808294, 56.860861)"><g><path d="M 6.929688 -28.472656 C 8.664062 -28.828125 10.261719 -29.097656 11.859375 -29.273438 C 13.414062 -29.453125 15.238281 -29.628906 17.367188 -29.628906 C 18.300781 -29.628906 18.703125 -30.074219 18.523438 -31.273438 C 18.390625 -32.472656 17.679688 -33.050781 16.613281 -33.183594 C 14.480469 -33.183594 12.394531 -33.09375 10.4375 -32.917969 C 8.484375 -32.738281 6.707031 -32.382812 5.242188 -32.027344 C 4.351562 -31.761719 3.777344 -31.449219 3.464844 -31.09375 C 3.152344 -30.738281 2.976562 -29.984375 2.84375 -28.828125 C 2.53125 -26.386719 2.578125 -23.144531 2.753906 -18.878906 C 2.933594 -14.613281 3.242188 -11.238281 3.777344 -7.019531 C 3.820312 -5.953125 4.175781 -5.285156 4.664062 -4.929688 C 5.0625 -4.441406 5.820312 -4.175781 7.0625 -4.132812 C 8.171875 -4.085938 9.863281 -4.085938 12.171875 -4.132812 C 14.480469 -4.175781 16.746094 -4.441406 19.058594 -4.929688 C 20.257812 -5.109375 20.746094 -5.820312 20.699219 -7.019531 C 20.699219 -8.21875 19.902344 -8.527344 18.523438 -8.484375 C 16.878906 -8.128906 15.101562 -7.953125 13.328125 -7.773438 C 11.503906 -7.597656 9.460938 -7.597656 7.683594 -7.773438 C 7.328125 -10.394531 7.152344 -12.703125 6.972656 -15.679688 L 17.8125 -16.4375 C 19.058594 -16.480469 19.722656 -17.191406 19.902344 -18.433594 C 19.902344 -19.5 18.921875 -19.988281 17.636719 -19.988281 L 6.929688 -19.234375 C 6.796875 -23.5 6.796875 -26.652344 6.929688 -28.472656 Z M 6.929688 -28.472656 "/></g></g></g><g fill="#e83f64" fill-opacity="1"><g transform="translate(114.485843, 56.860861)"><g><path d="M 2.578125 -32.382812 C 1.15625 -32.027344 0.753906 -31.007812 0.753906 -30.117188 C 0.933594 -29.050781 1.6875 -28.296875 2.753906 -28.472656 C 4.488281 -28.695312 6.261719 -29.007812 8.21875 -29.183594 C 8.171875 -26.386719 8.128906 -22.03125 8.128906 -17.636719 L 8.128906 -6.042969 C 8.128906 -4.796875 8.929688 -4.085938 9.949219 -4.085938 C 11.328125 -4.085938 12.128906 -5.0625 12.128906 -6.128906 C 12.128906 -9.015625 12.128906 -13.636719 12.171875 -18.125 L 12.171875 -29.453125 C 13.949219 -29.496094 15.992188 -29.496094 17.992188 -29.453125 C 18.878906 -29.316406 19.546875 -30.160156 19.546875 -31.183594 C 19.546875 -32.070312 19.011719 -33.183594 17.902344 -33.359375 C 12.75 -33.359375 8.394531 -33.136719 2.578125 -32.382812 Z M 2.578125 -32.382812 "/></g></g></g><g fill="#e83f64" fill-opacity="1"><g transform="translate(134.964018, 56.860861)"><g><path d="M 20.523438 -5.730469 C 21.765625 -6.398438 21.8125 -7.507812 21.632812 -8.394531 C 21.320312 -9.152344 20.390625 -9.863281 19.277344 -9.328125 C 18.257812 -8.929688 17.101562 -8.261719 15.679688 -7.863281 C 14.257812 -7.375 12.570312 -7.195312 10.792969 -7.683594 C 8.617188 -8.21875 7.242188 -9.773438 6.53125 -11.90625 C 5.773438 -14.039062 5.6875 -16.65625 6.042969 -19.324219 C 6.441406 -23.941406 8.574219 -26.609375 11.195312 -28.074219 C 13.816406 -29.496094 16.878906 -29.851562 19.367188 -29.894531 C 20.210938 -29.851562 20.613281 -30.695312 20.566406 -31.582031 C 20.523438 -32.472656 19.988281 -33.40625 19.058594 -33.449219 C 16.703125 -33.582031 12.703125 -33.273438 9.152344 -31.316406 C 7.328125 -30.382812 5.730469 -28.960938 4.351562 -27.097656 C 2.976562 -25.277344 2.085938 -22.789062 1.777344 -19.679688 C 1.464844 -16.835938 1.734375 -13.546875 2.84375 -10.660156 C 4.042969 -7.816406 6.21875 -5.332031 9.949219 -4.085938 C 12.082031 -3.640625 14.082031 -3.640625 15.902344 -4.132812 C 17.722656 -4.621094 19.277344 -5.152344 20.523438 -5.730469 Z M 20.523438 -5.730469 "/></g></g></g></svg>