<svg xmlns="http://www.w3.org/2000/svg" xmlns:xlink="http://www.w3.org/1999/xlink" width="2560" zoomAndPan="magnify" viewBox="0 0 1920 1079.999946" height="1440" preserveAspectRatio="xMidYMid meet" version="1.0"><defs><g/><clipPath id="e4b0f14bff"><path d="M 250 425 L 1644 425 L 1644 741 L 250 741 Z M 250 425 " clip-rule="nonzero"/></clipPath><clipPath id="8da3d98bbe"><path d="M 280.8125 281.699219 L 1644.015625 427.707031 L 1598.089844 856.503906 L 234.886719 710.496094 Z M 280.8125 281.699219 " clip-rule="nonzero"/></clipPath><clipPath id="5b75279f21"><path d="M 280.8125 281.699219 L 1644.015625 427.707031 L 1598.089844 856.503906 L 234.886719 710.496094 Z M 280.8125 281.699219 " clip-rule="nonzero"/></clipPath><clipPath id="206ddd7e67"><path d="M 336 342 L 1469 342 L 1469 645 L 336 645 Z M 336 342 " clip-rule="nonzero"/></clipPath><clipPath id="e70fcd3883"><path d="M 1458.125 722.820312 L 327.277344 638.328125 L 354.9375 268.109375 L 1485.785156 352.601562 Z M 1458.125 722.820312 " clip-rule="nonzero"/></clipPath><clipPath id="c44651ae39"><path d="M 1458.125 722.820312 L 327.277344 638.328125 L 354.9375 268.109375 L 1485.785156 352.601562 Z M 1458.125 722.820312 " clip-rule="nonzero"/></clipPath><clipPath id="c2d902fd77"><path d="M 627 389 L 678 389 L 678 455 L 627 455 Z M 627 389 " clip-rule="nonzero"/></clipPath><clipPath id="e2297b21a3"><path d="M 634.5625 463.292969 L 606.183594 416.472656 L 658.773438 384.59375 L 687.15625 431.410156 Z M 634.5625 463.292969 " clip-rule="nonzero"/></clipPath><clipPath id="9f915be1e4"><path d="M 634.5625 463.292969 L 606.183594 416.472656 L 658.773438 384.59375 L 687.15625 431.410156 Z M 634.5625 463.292969 " clip-rule="nonzero"/></clipPath><clipPath id="099733a537"><path d="M 1376 504 L 1654 504 L 1654 731 L 1376 731 Z M 1376 504 " clip-rule="nonzero"/></clipPath><clipPath id="7eecc8864b"><path d="M 1678.703125 555.222656 L 1631.855469 751.457031 L 1350.269531 684.230469 L 1397.117188 487.996094 Z M 1678.703125 555.222656 " clip-rule="nonzero"/></clipPath><clipPath id="4a2058486c"><path d="M 1678.703125 555.222656 L 1631.855469 751.457031 L 1350.269531 684.230469 L 1397.117188 487.996094 Z M 1678.703125 555.222656 " clip-rule="nonzero"/></clipPath><clipPath id="e2a22031b7"><path d="M 1290 633 L 1403 633 L 1403 680 L 1290 680 Z M 1290 633 " clip-rule="nonzero"/></clipPath><clipPath id="9f6006242d"><path d="M 1397.160156 619.757812 L 1407.921875 652.535156 L 1295.335938 689.5 L 1284.574219 656.71875 Z M 1397.160156 619.757812 " clip-rule="nonzero"/></clipPath><clipPath id="15e2a8f999"><path d="M 1397.160156 619.757812 L 1407.921875 652.535156 L 1295.335938 689.5 L 1284.574219 656.71875 Z M 1397.160156 619.757812 " clip-rule="nonzero"/></clipPath><clipPath id="b69ab25a71"><path d="M 372 570 L 437 570 L 437 677 L 372 677 Z M 372 570 " clip-rule="nonzero"/></clipPath><clipPath id="332bd6bf81"><path d="M 348.140625 595.972656 L 435.109375 567.539062 L 461.914062 649.519531 L 374.941406 677.953125 Z M 348.140625 595.972656 " clip-rule="nonzero"/></clipPath><clipPath id="76ddfc7e59"><path d="M 348.140625 595.972656 L 435.109375 567.539062 L 461.914062 649.519531 L 374.941406 677.953125 Z M 348.140625 595.972656 " clip-rule="nonzero"/></clipPath><clipPath id="e02973ce60"><path d="M 294 536 L 333 536 L 333 598 L 294 598 Z M 294 536 " clip-rule="nonzero"/></clipPath><clipPath id="c0b2c578d7"><path d="M 293.683594 536.707031 L 332.683594 536.609375 L 332.839844 598.109375 L 293.839844 598.207031 Z M 293.683594 536.707031 " clip-rule="nonzero"/></clipPath><clipPath id="451734f04a"><path d="M 293.683594 536.707031 L 448.933594 536.3125 L 449.089844 597.8125 L 293.839844 598.207031 Z M 293.683594 536.707031 " clip-rule="nonzero"/></clipPath><clipPath id="d1777420c2"><path d="M 333 562 L 364 562 L 364 619 L 333 619 Z M 333 562 " clip-rule="nonzero"/></clipPath><clipPath id="ce49c9f10c"><path d="M 333.1875 562.5625 L 363.1875 562.488281 L 363.328125 617.988281 L 333.328125 618.0625 Z M 333.1875 562.5625 " clip-rule="nonzero"/></clipPath><clipPath id="2007a396f3"><path d="M 208.09375 562.882812 L 363.34375 562.484375 L 363.5 623.984375 L 208.25 624.382812 Z M 208.09375 562.882812 " clip-rule="nonzero"/></clipPath></defs><rect x="-192" width="2304" fill="#ffffff" y="-107.999995" height="1295.999935" fill-opacity="1"/><rect x="-192" width="2304" fill="#ffffff" y="-107.999995" height="1295.999935" fill-opacity="1"/><rect x="-192" width="2304" fill="#fddcdb" y="-107.999995" height="1295.999935" fill-opacity="1"/><g clip-path="url(#e4b0f14bff)"><g clip-path="url(#8da3d98bbe)"><g clip-path="url(#5b75279f21)"><path fill="#e83f64" d="M 280.269531 604.378906 C 273.390625 605.0625 265.925781 605.960938 261.53125 604.640625 C 269.027344 603.460938 274.691406 603.5 280.269531 604.378906 Z M 280.546875 604.410156 C 280.546875 604.410156 280.269531 604.378906 280.546875 604.410156 C 280.269531 604.378906 280.546875 604.410156 280.546875 604.410156 Z M 1632.671875 427.757812 C 1634.664062 427.6875 1636.65625 427.617188 1638.367188 427.515625 C 1636.65625 427.617188 1634.664062 427.6875 1632.671875 427.757812 Z M 999.492188 532.582031 C 999.769531 532.613281 999.769531 532.613281 1000.050781 532.644531 C 999.769531 532.613281 999.492188 532.582031 999.492188 532.582031 Z M 1227.753906 510.824219 C 1227.753906 510.824219 1227.472656 510.792969 1227.472656 510.792969 C 1227.445312 511.074219 1227.472656 510.792969 1227.753906 510.824219 Z M 1643.792969 429.796875 C 1642.480469 428.808594 1633.703125 428.71875 1628.816406 429.328125 L 1628.015625 431.511719 C 1617.125 432.613281 1625.304688 430.371094 1614.785156 430.660156 C 1614.125 428.890625 1624.113281 428.257812 1632.640625 428.039062 C 1624.703125 428.039062 1616.886719 426.917969 1613.84375 428.859375 C 1606.527344 428.359375 1614.644531 426.675781 1605.644531 425.996094 C 1599.328125 426.738281 1591.210938 428.417969 1583.925781 427.640625 L 1583.957031 427.359375 C 1566.269531 425.746094 1556.980469 430.421875 1540.976562 428.992188 L 1542.746094 428.332031 C 1537.171875 427.449219 1525.941406 429.082031 1515.539062 428.253906 C 1518.34375 428.550781 1521.054688 429.695312 1514.769531 430.152344 C 1502.9375 429.453125 1494.882812 430.574219 1486.222656 429.363281 L 1478.074219 431.328125 C 1467.867188 431.367188 1449.910156 432.277344 1428.28125 433.082031 C 1406.648438 433.882812 1381.285156 435.132812 1355.921875 436.386719 C 1343.097656 436.996094 1330.558594 437.636719 1318.296875 438.308594 C 1306.035156 438.980469 1294.363281 439.429688 1283.503906 440.253906 C 1261.8125 441.613281 1244.136719 442.554688 1233.867188 443.15625 L 1235.609375 442.777344 C 1227.613281 443.335938 1218.773438 443.808594 1209.375 444.21875 C 1199.664062 444.878906 1189.394531 445.480469 1178.253906 446.273438 C 1167.394531 447.09375 1155.722656 447.542969 1144.023438 448.277344 C 1132.324219 449.007812 1120.339844 449.707031 1108.328125 450.691406 C 1084.335938 452.371094 1060.035156 454.304688 1038.035156 455.917969 C 1016.003906 457.808594 995.683594 459.601562 979.597656 461.566406 C 969.511719 460.484375 955.757812 461.847656 945.238281 462.136719 C 951.152344 462.488281 949.320312 463.707031 944.746094 464.070312 C 913.039062 466.34375 942.605469 465.539062 910.523438 468.625 C 901.347656 469.625 885.570312 471.339844 866.433594 472.691406 C 857.003906 473.382812 846.707031 474.261719 835.84375 475.082031 C 825.265625 475.933594 814.125 476.726562 802.953125 477.796875 C 791.8125 478.589844 780.953125 479.410156 770.375 480.261719 C 759.792969 481.113281 749.773438 482.023438 740.347656 482.714844 C 721.769531 484.125 706.644531 485.058594 698.648438 485.617188 C 681.199219 489.703125 659.039062 490.164062 641.964844 493.4375 L 643.734375 492.777344 C 639.132812 493.417969 629.082031 494.609375 616.199219 495.78125 C 609.882812 496.523438 602.726562 497.175781 595.289062 497.792969 C 587.851562 498.414062 580.105469 499.285156 572.078125 500.128906 C 556.332031 501.558594 540.558594 503.273438 527.367188 504.695312 C 520.769531 505.40625 514.765625 505.894531 509.878906 506.507812 C 504.996094 507.117188 500.980469 507.539062 498.371094 508.109375 L 501.203125 508.128906 C 482.664062 511.8125 484.957031 508.941406 469.832031 509.871094 C 472.117188 512.382812 456.128906 516.058594 450.09375 516.828125 L 450.15625 516.269531 C 440.945312 517.550781 420.296875 522.425781 405.023438 524.757812 L 405.484375 523.105469 C 392.921875 526.582031 368.867188 528.824219 359.941406 530.136719 C 339.03125 532.148438 306.261719 533.742188 278.703125 539.578125 L 259.925781 537.566406 L 257.285156 538.417969 C 257.285156 538.417969 251.800781 552.570312 251.050781 567.515625 C 250.300781 582.460938 254.5625 598.226562 273.78125 601.417969 L 273.320312 603.070312 L 280.539062 601.859375 C 289.378906 601.386719 293.011719 599.222656 292.859375 600.625 L 280.820312 601.886719 C 289.6875 601.136719 283.5625 602.75 280.296875 604.101562 C 284.03125 603.648438 287.457031 603.449219 290.566406 603.5 C 292.089844 602.527344 289.195312 603.066406 287.796875 602.917969 C 292.460938 601.71875 298.644531 599.542969 304.621094 599.335938 C 313.519531 598.304688 305.503906 601.695312 316.113281 600.566406 C 343.679688 597.28125 370.875 594.808594 398.410156 591.804688 C 412.160156 590.441406 425.664062 588.769531 439.417969 587.40625 C 453.171875 586.046875 466.953125 584.402344 481.046875 582.511719 C 482.417969 582.941406 480.984375 583.070312 479.214844 583.730469 C 487.582031 582.359375 495.640625 581.238281 503.105469 580.339844 C 510.882812 579.1875 518.351562 578.285156 526.128906 577.132812 C 530.363281 577.304688 531.671875 578.296875 533.042969 578.726562 C 531.671875 578.296875 552.953125 575.472656 574.484375 572.957031 C 585.402344 571.578125 596.292969 570.476562 604.601562 569.664062 C 612.910156 568.851562 618.632812 568.332031 618.914062 568.363281 L 619.777344 565.621094 C 636.390625 563.996094 624.859375 568.433594 640.132812 566.097656 C 645.71875 561.59375 665.589844 564.007812 670.714844 561.152344 C 670.683594 561.433594 678.121094 560.8125 677.691406 562.183594 C 679.640625 559.839844 685.46875 561.03125 690.132812 559.832031 C 691.902344 559.171875 688.761719 559.402344 687.417969 558.691406 L 698.089844 556.996094 C 702.324219 557.167969 703.605469 558.4375 699 559.078125 C 706.125 558.710938 719.847656 557.628906 737.304688 556.09375 C 754.453125 554.8125 775.332031 553.082031 795.898438 551.597656 C 816.75 550.148438 837.347656 548.382812 855.085938 546.882812 C 872.542969 545.351562 886.824219 544.328125 894.574219 543.457031 C 890.457031 542.167969 881.191406 544.007812 877.476562 541.625 C 885.34375 539.632812 889.425781 541.207031 892.75 539.292969 C 896.0625 542.765625 910.675781 538.660156 917.105469 542.183594 L 919.335938 539.871094 L 923.480469 540.882812 C 941.054688 538.230469 943.078125 537.878906 944.789062 537.78125 C 946.222656 537.648438 947.3125 538.050781 963.277344 537.207031 C 981.292969 535.738281 989.621094 532.09375 999.800781 532.332031 C 998.121094 532.152344 995.097656 531.261719 999.421875 530.589844 C 1000.359375 532.390625 1011.863281 528.238281 1014.484375 530.21875 C 1019.089844 529.578125 1034.183594 528.929688 1028.757812 526.644531 C 1031.46875 527.785156 1044.851562 527.234375 1037.015625 528.949219 C 1041.558594 528.867188 1045.824219 528.757812 1049.308594 527.996094 L 1043.390625 527.644531 C 1058.574219 526.152344 1067.203125 527.644531 1076.871094 524.710938 L 1071.265625 524.113281 C 1080.417969 523.390625 1088.132812 522.800781 1091.875 524.902344 L 1082.667969 526.183594 C 1097.792969 525.25 1106.941406 524.53125 1119.382812 522.179688 L 1114.839844 522.257812 C 1122.707031 520.265625 1147.910156 517.863281 1172.582031 515.121094 C 1184.902344 513.886719 1197.535156 512.40625 1207.585938 511.214844 C 1217.914062 510.050781 1225.691406 508.902344 1229.484375 507.890625 L 1222.570312 506.296875 L 1235.289062 503.976562 C 1233.859375 504.105469 1230.144531 509.660156 1228.683594 510.070312 C 1235.53125 509.671875 1249.503906 508.898438 1266.621094 507.898438 C 1275.457031 507.429688 1285.167969 506.765625 1295.125 506.417969 C 1300.820312 506.175781 1306.515625 505.933594 1312.492188 505.726562 C 1310.75 506.105469 1309.039062 506.207031 1307.578125 506.617188 C 1301.792969 507.695312 1297.5 508.085938 1297.5 508.085938 L 1297.199219 510.890625 C 1285.378906 512.742188 1293.234375 508.199219 1282.476562 510.730469 C 1278.851562 515.445312 1264.367188 513.042969 1260.984375 515.515625 C 1261.015625 515.234375 1255.570312 515.785156 1255.691406 514.664062 C 1254.296875 517.066406 1250.15625 516.058594 1246.953125 516.847656 C 1245.742188 517.570312 1248.042969 517.25 1248.824219 517.898438 L 1241.265625 519.640625 C 1238.183594 519.3125 1237.183594 518.070312 1240.355469 517.558594 C 1235.191406 518.140625 1225.453125 519.082031 1212.851562 520.28125 C 1200.527344 521.515625 1185.625 523.035156 1170.75 524.277344 C 1155.875 525.519531 1140.691406 527.011719 1128.121094 527.933594 C 1115.519531 529.136719 1105.21875 530.015625 1099.746094 530.847656 C 1102.707031 532.296875 1109.421875 530.464844 1112.296875 532.757812 C 1106.699219 534.710938 1103.769531 532.980469 1101.316406 534.699219 C 1098.875 531.039062 1088.242188 535 1083.527344 531.378906 L 1082.136719 533.78125 L 1079.144531 532.609375 C 1053.449219 536.945312 1073.300781 534.25 1050.488281 535.492188 C 1037.578125 536.945312 1031.269531 540.238281 1023.953125 539.738281 C 1025.074219 539.859375 1027.535156 540.691406 1024.332031 541.480469 C 1023.671875 539.707031 1015.316406 543.632812 1013.535156 541.742188 C 1010.082031 542.222656 999.25 542.761719 1003.246094 545.175781 C 1001.371094 544.125 991.441406 544.195312 997.257812 542.832031 C 993.835938 543.03125 990.722656 542.984375 988.390625 543.582031 L 992.59375 544.035156 C 981.394531 545.386719 975.316406 543.882812 968.230469 546.527344 L 972.40625 547.257812 C 965.808594 547.96875 960.082031 548.488281 957.492188 546.226562 L 964.148438 544.957031 C 953.007812 545.746094 946.410156 546.457031 937.394531 548.609375 L 940.816406 548.410156 C 934.96875 550.050781 916.804688 552.925781 898.667969 555.519531 C 889.738281 556.832031 880.5 558.390625 873.28125 559.605469 C 865.753906 561.066406 859.96875 562.148438 857.296875 563.277344 L 862.53125 564.6875 L 853.484375 567.121094 C 854.636719 566.960938 856.917969 561.535156 858.128906 560.816406 C 852.964844 561.394531 842.945312 562.308594 830.3125 563.789062 C 823.996094 564.53125 816.839844 565.179688 809.375 566.082031 C 801.90625 566.984375 794.160156 567.855469 786.691406 568.757812 C 782.957031 569.207031 778.945312 569.628906 775.210938 570.078125 C 771.476562 570.527344 767.746094 570.980469 764.011719 571.429688 C 756.542969 572.332031 749.636719 573.292969 743.320312 574.03125 C 730.660156 575.792969 720.609375 576.988281 716.035156 577.347656 C 708.378906 577.378906 714.375 574.335938 714.40625 574.054688 C 705.386719 576.207031 710.710938 576.777344 702.964844 577.648438 C 700.691406 577.6875 703.144531 575.964844 704.324219 575.527344 C 700.839844 576.285156 697.757812 575.957031 697.640625 577.078125 C 701.871094 577.246094 700.453125 579.929688 702.601562 581.011719 L 692.554688 582.203125 L 692.734375 580.519531 C 690.433594 580.839844 687.679688 585.367188 677.941406 586.308594 C 669.601562 587.398438 661.234375 588.769531 652.558594 590.390625 C 643.878906 592.015625 635.480469 593.664062 627.113281 595.039062 C 627.203125 594.195312 630.464844 592.84375 633.980469 591.804688 C 631.675781 592.125 628.472656 592.914062 626.230469 592.675781 C 630.40625 593.40625 619.457031 595.066406 622.847656 595.148438 C 617.132812 598.222656 610.449219 599.773438 603.511719 601.015625 C 596.855469 602.285156 590.199219 603.558594 585.132812 605.847656 C 584.953125 607.53125 582.710938 623.167969 580.472656 638.800781 C 579.019531 649.703125 577.847656 660.632812 577.1875 666.796875 C 562.34375 667.761719 543.515625 668.863281 526.941406 672.757812 L 513.046875 670.132812 L 511.277344 670.796875 C 511.277344 670.796875 507.8125 684.597656 508.183594 699.664062 C 508.304688 714.417969 512.261719 730.433594 526.3125 734.207031 L 526.132812 735.886719 L 531.328125 735.027344 C 537.863281 734.875 540.375 732.59375 540.195312 734.273438 L 531.578125 735.335938 C 537.863281 734.875 533.730469 736.417969 531.339844 737.578125 C 533.921875 737.289062 536.472656 737.277344 538.746094 737.238281 C 539.957031 736.515625 537.652344 736.835938 536.84375 736.46875 C 540.074219 735.394531 544.832031 733.355469 549.066406 733.523438 C 555.660156 732.8125 549.945312 735.886719 557.414062 734.984375 C 577.511719 732.601562 597.210938 731.308594 616.96875 729.457031 C 621.851562 728.847656 626.988281 728.546875 631.871094 727.9375 C 634.453125 727.644531 636.757812 727.324219 639.308594 727.316406 C 641.890625 727.023438 644.164062 726.984375 646.746094 726.695312 C 656.765625 725.78125 666.785156 724.871094 676.832031 723.679688 C 677.894531 724.359375 676.773438 724.242188 675.59375 724.679688 C 681.660156 723.628906 687.382812 723.109375 693.140625 722.308594 C 696 722.046875 698.613281 721.476562 701.476562 721.214844 C 704.339844 720.957031 706.921875 720.664062 709.816406 720.125 C 712.898438 720.457031 713.929688 721.417969 714.988281 722.097656 C 713.929688 721.417969 729.394531 719.953125 745.136719 718.523438 C 752.886719 717.652344 760.882812 717.089844 766.886719 716.597656 C 772.894531 716.109375 777.15625 716 777.4375 716.027344 L 778.019531 713.253906 C 790.03125 712.273438 781.671875 716.199219 792.871094 714.847656 C 796.996094 710.753906 811.390625 713.996094 815.054688 711.550781 C 815.023438 711.832031 820.4375 711.5625 820.289062 712.964844 C 821.960938 710.589844 825.761719 712.132812 829.246094 711.371094 C 830.457031 710.652344 828.183594 710.691406 827.375 710.320312 C 829.957031 710.03125 832.570312 709.460938 835.152344 709.167969 C 838.203125 709.78125 839.207031 711.019531 835.78125 711.222656 C 840.886719 711.203125 851.128906 710.878906 863.640625 710.519531 C 876.152344 710.160156 891.246094 709.507812 906.277344 709.417969 C 921.34375 709.046875 936.375 708.957031 949.167969 708.625 C 955.425781 708.445312 961.371094 708.515625 966.226562 708.183594 C 971.050781 708.132812 975.03125 707.992188 977.894531 707.734375 C 974.933594 706.28125 968.308594 707.273438 965.464844 704.699219 C 971.308594 703.058594 974.210938 705.070312 976.632812 703.628906 C 979.078125 707.292969 989.585938 704.449219 994.019531 708.042969 L 995.664062 705.949219 L 998.65625 707.121094 C 1011.539062 705.949219 1013 705.539062 1014.121094 705.660156 C 1015.242188 705.78125 1016.050781 706.148438 1027.351562 706.507812 C 1040.425781 706.207031 1046.671875 703.476562 1053.957031 704.257812 C 1052.835938 704.136719 1050.714844 702.773438 1053.578125 702.515625 C 1054.238281 704.285156 1062.785156 701.234375 1064.285156 703.09375 C 1067.710938 702.894531 1078.449219 703.195312 1074.765625 700.53125 C 1075.546875 701.183594 1078.628906 701.511719 1080.5625 702.003906 C 1082.492188 702.492188 1083.585938 702.894531 1080.691406 703.433594 C 1084.085938 703.515625 1087.136719 704.125 1089.46875 703.523438 L 1085.296875 702.792969 C 1096.375 702.5625 1102.363281 704.90625 1109.699219 702.574219 L 1105.554688 701.5625 C 1112.089844 701.410156 1117.757812 701.453125 1120.320312 703.992188 L 1113.441406 704.675781 C 1124.492188 704.722656 1131 704.855469 1140.207031 703.574219 L 1136.816406 703.492188 C 1138.277344 703.082031 1140.546875 703.042969 1143.410156 702.78125 C 1146.273438 702.519531 1149.695312 702.320312 1153.398438 702.152344 C 1161.085938 701.839844 1170.175781 701.679688 1179.015625 701.207031 C 1188.101562 701.046875 1197.222656 700.605469 1204.628906 700.265625 C 1212.035156 699.925781 1218.011719 699.714844 1220.652344 698.863281 L 1215.789062 696.644531 L 1225.277344 695.390625 C 1224.15625 695.269531 1221.0625 700.324219 1219.882812 700.765625 C 1224.957031 701.027344 1234.828125 701.515625 1247.527344 702.027344 C 1254.003906 702.4375 1261.070312 702.625 1268.386719 703.128906 C 1275.703125 703.628906 1283.300781 704.15625 1290.898438 704.6875 C 1306.09375 705.75 1321.289062 706.808594 1333.929688 707.878906 C 1346.542969 709.230469 1356.351562 710.28125 1360.804688 711.042969 C 1367.972656 712.941406 1361.875 714.273438 1361.847656 714.554688 C 1370.90625 714.675781 1366.007812 712.734375 1373.546875 713.824219 C 1375.480469 714.3125 1373.085938 715.476562 1371.65625 715.605469 C 1375.046875 715.683594 1378.070312 716.574219 1378.441406 715.765625 C 1374.296875 714.753906 1376.25 712.410156 1374.746094 710.550781 L 1384.558594 711.601562 L 1383.816406 713.222656 C 1386.058594 713.460938 1389.902344 709.339844 1399.339844 711.199219 C 1415.507812 713.78125 1433.222656 715.113281 1449.417969 717.414062 C 1449.046875 718.222656 1445.625 718.425781 1442.203125 718.625 C 1444.441406 718.867188 1447.835938 718.945312 1449.707031 719.996094 C 1445.964844 717.894531 1456.554688 719.59375 1453.8125 718.734375 C 1459.90625 717.402344 1466.882812 718.433594 1473.609375 719.15625 C 1480.308594 720.15625 1486.722656 721.125 1492.167969 720.574219 C 1492.910156 718.953125 1500.324219 705.289062 1507.773438 691.347656 C 1515.21875 677.402344 1522.945312 663.488281 1523.15625 661.527344 C 1526.488281 662.167969 1529.851562 662.527344 1530.664062 662.898438 C 1529.910156 661.96875 1523.554688 660.4375 1519.851562 660.605469 L 1519.050781 662.789062 C 1510.863281 662.476562 1517.238281 661.175781 1509.390625 660.335938 C 1509.292969 658.625 1516.328125 659.09375 1522.773438 659.785156 C 1517.199219 658.90625 1511.464844 656.871094 1509.042969 658.316406 C 1503.808594 656.902344 1509.84375 656.132812 1503.488281 654.601562 C 1498.691406 654.371094 1492.625 655.421875 1487.421875 653.730469 L 1487.453125 653.449219 C 1474.769531 650.109375 1467.59375 653.589844 1456.03125 650.367188 L 1457.492188 649.957031 C 1453.410156 648.386719 1445.132812 648.917969 1437.683594 646.984375 C 1439.898438 647.507812 1441.429688 649.089844 1436.914062 648.886719 C 1428.347656 646.835938 1422.339844 647.328125 1416.324219 645.265625 L 1409.980469 646.285156 C 1408.015625 646.078125 1405.773438 645.835938 1403.253906 645.566406 C 1400.730469 645.296875 1397.925781 644.996094 1394.84375 644.664062 C 1388.679688 644.003906 1381.363281 643.503906 1373.484375 642.945312 C 1357.730469 641.824219 1338.921875 640.09375 1320.335938 638.953125 C 1311.027344 638.523438 1301.746094 637.8125 1292.71875 637.414062 C 1283.691406 637.011719 1274.972656 636.363281 1267.0625 636.082031 C 1251.25 635.523438 1237.988281 634.953125 1230.390625 634.421875 L 1231.539062 634.261719 C 1225.90625 633.941406 1219.121094 633.78125 1212.082031 633.3125 C 1205.015625 633.121094 1197.390625 632.871094 1189.199219 632.5625 C 1181.011719 632.253906 1172.824219 631.941406 1164.046875 631.851562 C 1155.300781 631.480469 1146.550781 631.113281 1137.742188 631.300781 C 1119.90625 631.09375 1102.351562 630.914062 1085.914062 630.855469 C 1081.960938 630.714844 1077.976562 630.855469 1073.992188 630.996094 C 1070.007812 631.136719 1066.304688 631.304688 1062.632812 631.195312 C 1055.253906 631.257812 1048.6875 631.6875 1042.714844 631.898438 C 1035.238281 630.246094 1025.277344 630.597656 1017.398438 630.035156 C 1021.574219 630.765625 1020.304688 632.046875 1016.910156 631.96875 C 993.378906 632 1015.359375 633.21875 991.734375 634.089844 C 984.890625 634.492188 973.21875 634.941406 959.304688 635.152344 C 945.394531 635.363281 928.898438 635.863281 912.710938 636.117188 C 904.464844 636.367188 896.527344 636.367188 888.589844 636.367188 C 880.902344 636.679688 873.246094 636.707031 866.429688 636.828125 C 852.796875 637.070312 841.714844 637.300781 835.769531 637.230469 C 832.566406 638.019531 829.113281 638.5 825.660156 638.980469 C 822.207031 639.460938 818.503906 639.632812 814.800781 639.804688 C 807.644531 640.453125 800.238281 640.796875 793.890625 641.816406 L 795.101562 641.09375 C 791.648438 641.574219 784.210938 642.195312 774.8125 642.609375 C 769.957031 642.9375 764.824219 643.238281 759.410156 643.507812 C 753.992188 643.78125 748.269531 644.300781 742.542969 644.820312 C 732.273438 645.421875 721.972656 646.304688 713.105469 647.054688 C 715.128906 646.703125 717.429688 646.382812 719.449219 646.03125 C 734.726562 643.699219 752.613281 640.796875 770.4375 638.453125 C 806.402344 633.519531 842.585938 629.171875 857.488281 627.648438 L 856.308594 628.089844 C 878.710938 625.386719 913.0625 622.261719 947.695312 619.167969 C 982.328125 616.074219 1017.550781 612.757812 1040.851562 609.585938 C 1048.386719 610.675781 1058.15625 609.453125 1065.816406 609.425781 C 1061.609375 608.972656 1062.882812 607.691406 1066.304688 607.492188 C 1089.457031 605.71875 1067.855469 606.242188 1091.097656 603.628906 C 1104.632812 601.675781 1137.242188 598.929688 1169.292969 596.128906 C 1177.320312 595.285156 1185.316406 594.726562 1193.0625 593.855469 C 1200.78125 593.261719 1208.246094 592.363281 1215.09375 591.960938 C 1228.535156 590.851562 1239.707031 589.777344 1245.710938 589.289062 C 1258.335938 585.253906 1274.550781 584.722656 1287.109375 581.25 L 1285.898438 581.96875 C 1289.382812 581.207031 1296.601562 579.996094 1306.089844 578.746094 C 1310.691406 578.105469 1315.886719 577.242188 1321.363281 576.414062 C 1326.839844 575.582031 1332.625 574.5 1338.378906 573.699219 C 1344.164062 572.617188 1349.917969 571.816406 1355.394531 570.984375 C 1360.898438 569.875 1366.09375 569.015625 1371.007812 568.121094 C 1375.925781 567.230469 1380.277344 566.28125 1383.761719 565.519531 C 1387.523438 564.789062 1390.167969 563.9375 1392.1875 563.585938 L 1389.917969 563.628906 C 1403.160156 559.09375 1401.988281 562.085938 1412.910156 560.703125 C 1411.90625 559.460938 1414.359375 557.742188 1417.34375 556.359375 C 1420.355469 554.699219 1424.460938 553.4375 1426.511719 552.804688 L 1426.449219 553.367188 C 1432.917969 551.222656 1447.742188 545.15625 1458.589844 541.785156 L 1458.691406 543.496094 C 1463.164062 541.421875 1469.632812 539.28125 1475.757812 537.667969 C 1478.960938 536.878906 1481.914062 535.777344 1484.523438 535.207031 C 1487.167969 534.355469 1489.5 533.753906 1491.269531 533.09375 C 1495.066406 532.082031 1499.417969 531.132812 1504.082031 529.929688 C 1506.414062 529.328125 1508.746094 528.730469 1511.359375 528.160156 C 1513.691406 527.558594 1516.335938 526.707031 1518.945312 526.136719 C 1524.203125 524.714844 1529.207031 522.984375 1534.492188 521.28125 C 1537.132812 520.429688 1539.777344 519.578125 1542.167969 518.417969 C 1544.558594 517.257812 1547.203125 516.40625 1549.59375 515.246094 L 1563.816406 514.785156 L 1565.648438 513.5625 C 1565.648438 513.5625 1565.761719 509.890625 1565.488281 504.472656 C 1565.289062 501.050781 1564.867188 497.035156 1564.199219 492.710938 C 1577.921875 491.632812 1593.085938 492.972656 1604.09375 490.75 C 1605.328125 487.195312 1634.523438 431.640625 1634.382812 427.65625 C 1637.875 429.449219 1642.421875 429.367188 1643.792969 429.796875 Z M 1022.992188 540.769531 C 1022.992188 540.769531 1022.710938 540.738281 1022.710938 540.738281 C 1022.710938 540.738281 1022.992188 540.769531 1022.992188 540.769531 Z M 856.828125 562.378906 C 856.828125 562.378906 857.109375 562.40625 857.109375 562.40625 C 856.859375 562.097656 856.859375 562.097656 856.828125 562.378906 Z M 515.84375 739.320312 C 519.117188 740.523438 524.5625 739.972656 529.695312 739.671875 C 525.582031 738.378906 521.347656 738.210938 515.84375 739.320312 Z M 529.726562 739.390625 Z M 1525.367188 662.046875 C 1523.964844 661.898438 1522.566406 661.746094 1521.164062 661.597656 C 1522.535156 662.027344 1523.9375 662.175781 1525.367188 662.046875 Z M 1218.210938 703.140625 C 1218.210938 703.140625 1217.929688 703.109375 1217.929688 703.109375 C 1217.929688 703.109375 1218.210938 703.140625 1218.210938 703.140625 Z M 1052.316406 706.347656 C 1052.316406 706.347656 1052.035156 706.320312 1052.035156 706.320312 C 1052.035156 706.320312 1052.035156 706.320312 1052.316406 706.347656 Z M 1052.316406 706.347656 " fill-opacity="1" fill-rule="nonzero"/></g></g></g><g clip-path="url(#206ddd7e67)"><g clip-path="url(#e70fcd3883)"><g clip-path="url(#c44651ae39)"><path fill="#e83f64" d="M 1444.792969 421.808594 C 1450.125 421.242188 1455.933594 420.714844 1459.449219 421.941406 C 1453.601562 422.945312 1449.042969 422.847656 1444.792969 421.808594 Z M 1444.554688 421.789062 Z M 422.289062 644.105469 C 420.835938 644.238281 419.382812 644.371094 417.914062 644.742188 C 419.367188 644.609375 420.835938 644.238281 422.289062 644.105469 Z M 338.050781 558.449219 C 340.558594 560.320312 345.320312 560.914062 349.625 561.238281 C 346.402344 559.3125 342.851562 558.566406 338.050781 558.449219 Z M 349.863281 561.253906 Z M 337.6875 518.257812 C 338.976562 510.660156 340.96875 503.351562 342.574219 497.941406 C 344.179688 492.53125 345.386719 489.253906 345.386719 489.253906 L 346.855469 488.882812 L 357.292969 493.992188 C 359.460938 493.914062 361.394531 493.816406 363.5625 493.738281 C 365.734375 493.660156 367.882812 493.820312 370.054688 493.742188 C 374.375 493.824219 378.679688 494.144531 382.964844 494.707031 C 391.3125 495.570312 399.1875 496.398438 405.402344 496.863281 C 408.050781 496.820312 413.089844 496.957031 418.125 497.09375 C 423.421875 497.007812 428.734375 496.683594 432.648438 495.773438 L 432.285156 497.429688 C 441.441406 497.152344 453.9375 493.996094 459.269531 493.433594 L 459.21875 494.152344 C 461.148438 494.054688 464.328125 493.328125 467.027344 492.570312 C 469.746094 491.570312 471.765625 490.277344 471.140625 489.027344 C 480.003906 489.449219 478.574219 492.46875 489.789062 490.421875 L 488.132812 490.058594 C 489.824219 489.945312 492.011719 489.625 495.136719 489.621094 C 498.042969 489.355469 501.664062 489.144531 505.523438 488.953125 C 509.386719 488.761719 513.726562 488.601562 518.304688 488.464844 C 522.882812 488.324219 527.476562 487.949219 532.054688 487.808594 C 536.632812 487.667969 541.46875 487.308594 545.808594 487.152344 C 550.164062 486.757812 554.503906 486.601562 558.367188 486.40625 C 566.105469 485.785156 571.914062 485.253906 574.835938 484.753906 L 573.828125 485.398438 C 583.878906 482.78125 597.285156 483.542969 607.667969 479.75 C 612.484375 479.628906 621.660156 479.113281 632.542969 478.242188 C 638.113281 477.695312 644.160156 477.1875 650.449219 476.695312 C 656.753906 475.960938 663.28125 475.488281 670.0625 474.792969 C 677.085938 474.113281 684.128906 473.199219 690.671875 472.484375 C 690.761719 471.289062 688.609375 471.128906 688.628906 470.886719 C 687.253906 473.191406 681.5625 468.917969 680.285156 473.152344 C 676.128906 474.042969 679.285156 470.429688 674.691406 470.808594 L 674.476562 473.679688 C 674.015625 473.402344 649.875 474.726562 650.742188 475.992188 C 650.316406 475.242188 649.910156 474.25 648.75 473.679688 C 644.597656 474.574219 640.515625 474.507812 635.863281 475.605469 C 636.359375 475.398438 636.617188 475.179688 636.414062 474.683594 C 620.933594 475.929688 606.128906 474.585938 590.773438 474.160156 C 587.886719 474.183594 590.015625 471.457031 587.605469 471.515625 C 585.96875 470.914062 584.171875 472.460938 582.921875 473.089844 C 583.382812 473.367188 584.097656 473.417969 583.804688 474.117188 C 582.886719 473.570312 581.929688 473.496094 580.972656 473.425781 C 581.761719 472.523438 583.523438 471.453125 581.132812 471.273438 L 584.5 471.285156 C 584.625 469.609375 583.507812 471.691406 581.152344 471.035156 L 579.203125 471.371094 L 579.328125 469.695312 C 568.636719 458.316406 573.792969 402.183594 573.792969 402.183594 L 574.546875 401.761719 L 579.742188 406.238281 C 587.386719 403.679688 596.347656 406.035156 602.082031 406.464844 C 604.511719 406.164062 611.203125 406.664062 614.710938 404.761719 L 614.585938 406.433594 C 618.722656 405.78125 624.453125 403.085938 626.917969 402.304688 L 626.863281 403.023438 C 628.574219 402.671875 632.796875 400.820312 632.292969 397.898438 C 636.324219 398.679688 635.871094 401.53125 640.828125 399.496094 L 640.128906 399.203125 C 645.992188 397.960938 675.011719 398.925781 679.917969 397.609375 L 679.386719 398.289062 C 684.089844 396.476562 690.214844 398.136719 695.007812 395.128906 C 704.058594 396.285156 743.023438 396.070312 753.039062 393.933594 C 761.789062 392.664062 753.675781 391.816406 762.355469 391.503906 C 763.550781 391.589844 764.136719 390.191406 762.5 389.589844 C 765.351562 390.042969 769.246094 389.371094 772.007812 391.019531 C 789.578125 387.523438 824.789062 386.066406 841.996094 384.226562 L 841.5 384.429688 C 852.863281 383.59375 896.980469 378.714844 908.050781 378.578125 L 910.125 376.570312 C 912.664062 377.960938 914.683594 376.667969 917.976562 377.636719 C 919.6875 377.285156 918.820312 376.015625 918.121094 375.722656 C 920.9375 376.65625 923.929688 375.195312 925.550781 376.039062 L 925.019531 376.71875 C 929.453125 378.496094 931.742188 373.613281 936.671875 375.1875 L 936.65625 375.425781 C 938.734375 376.542969 940.808594 374.53125 942.535156 373.941406 C 944.890625 374.597656 942.855469 376.128906 944.953125 377.007812 C 945.828125 374.910156 947.890625 376.265625 950.0625 376.1875 C 947.636719 376.484375 944.953125 377.007812 945.285156 378.957031 C 948.191406 378.691406 946.101562 380.941406 949.058594 379.960938 L 949.238281 377.566406 C 950.488281 376.941406 953.097656 377.375 953.265625 378.351562 C 952.804688 378.074219 951.609375 377.984375 950.414062 377.894531 C 950.457031 380.542969 948.503906 403.484375 946.90625 421.644531 C 949.847656 420.902344 952.785156 420.160156 955.964844 419.433594 C 961.113281 418.136719 966.480469 417.09375 970.890625 415.980469 C 973.09375 415.425781 975.0625 414.851562 976.53125 414.480469 C 978.257812 413.886719 979.488281 413.496094 980.242188 413.074219 L 978.3125 413.167969 C 983.511719 411.152344 987.410156 410.480469 993.714844 409.75 L 989.761719 411.136719 C 991.496094 413.671875 994.914062 412.964844 998.574219 412.277344 L 995.980469 411.601562 C 999.796875 408.761719 1003.773438 410.261719 1010.113281 409.050781 L 1007.503906 408.617188 C 1008.769531 407.75 1010.664062 408.128906 1012.613281 407.796875 C 1011.105469 408.644531 1011.566406 408.917969 1012.742188 409.246094 C 1013.921875 409.578125 1015.59375 409.703125 1016.257812 410.472656 C 1013.789062 408.125 1020.09375 407.390625 1022.042969 407.058594 C 1023.351562 408.839844 1027.738281 404.835938 1028.3125 406.804688 C 1030.058594 405.972656 1028.675781 405.148438 1027.976562 404.855469 C 1032.28125 405.175781 1035.65625 401.820312 1043.210938 400.460938 C 1049.996094 399.765625 1050.457031 400.039062 1051.171875 400.09375 C 1051.890625 400.148438 1052.644531 399.722656 1060.03125 397.390625 L 1061.871094 398.488281 L 1062.527344 396.132812 C 1065.625 399.730469 1071.445312 395.835938 1073.347656 399.347656 C 1074.683594 397.523438 1076.472656 399.339844 1079.761719 397.179688 C 1077.769531 394.867188 1074.039062 396.511719 1071.976562 395.15625 C 1073.449219 394.785156 1075.890625 394.246094 1078.816406 393.742188 C 1081.738281 393.238281 1084.898438 392.753906 1088.796875 392.082031 C 1096.09375 390.945312 1104.859375 389.433594 1113.609375 388.164062 C 1122.359375 386.894531 1131.109375 385.625 1138.40625 384.488281 C 1145.707031 383.347656 1151.53125 382.582031 1154.695312 382.097656 C 1152.726562 382.671875 1153.59375 383.9375 1155.488281 384.320312 C 1156.976562 383.710938 1158.449219 383.339844 1159.9375 382.726562 C 1159.253906 382.195312 1158.042969 382.347656 1158.574219 381.664062 C 1160.335938 380.59375 1163.117188 382.003906 1163.550781 379.390625 C 1163.699219 380.605469 1166.863281 380.121094 1166.828125 380.597656 C 1168.695312 378.09375 1177.640625 380.683594 1179.414062 376.246094 C 1185.570312 374.300781 1181.402344 378.558594 1188.496094 376.925781 L 1188.234375 374.019531 C 1188.472656 374.039062 1190.898438 373.738281 1194.316406 373.03125 C 1197.738281 372.324219 1202.386719 371.230469 1206.796875 370.117188 C 1215.859375 367.90625 1224.457031 365.421875 1223.777344 364.890625 C 1224.457031 365.421875 1225.121094 366.195312 1227.015625 366.578125 C 1228.503906 365.964844 1230.214844 365.613281 1231.703125 365.003906 C 1233.171875 364.632812 1234.898438 364.039062 1236.371094 363.667969 C 1239.566406 362.703125 1242.765625 361.742188 1246.21875 360.554688 C 1245.703125 361 1244.96875 361.183594 1245.652344 361.714844 C 1251.53125 360.230469 1257.171875 358.730469 1263.035156 357.484375 C 1264.507812 357.113281 1265.976562 356.742188 1267.429688 356.609375 C 1268.898438 356.238281 1270.371094 355.867188 1271.820312 355.734375 C 1274.746094 355.230469 1277.445312 354.472656 1280.367188 353.96875 C 1291.855469 351.460938 1303.308594 349.429688 1314.8125 346.683594 C 1319.222656 345.566406 1316.324219 348.960938 1320.238281 348.050781 C 1322.886719 348.007812 1325.21875 345.777344 1326.980469 344.703125 C 1326.28125 344.414062 1325.050781 344.800781 1325.582031 344.121094 C 1327.015625 344.226562 1328.46875 344.09375 1329.9375 343.722656 C 1328.875 345.085938 1326.597656 346.601562 1330.253906 345.910156 L 1325.347656 347.230469 C 1325.460938 348.921875 1326.597656 346.601562 1330.457031 346.40625 L 1333.417969 345.425781 L 1333.53125 347.117188 C 1342.878906 350.703125 1348.414062 366.75 1351.625 381.660156 C 1354.820312 396.808594 1355.679688 411.0625 1355.679688 411.0625 L 1354.671875 411.707031 L 1345.523438 408.617188 C 1334.300781 414.035156 1319.777344 415.351562 1310.769531 416.84375 C 1306.839844 417.992188 1296.582031 420.113281 1291.550781 423.105469 L 1291.4375 421.414062 C 1285.023438 423.578125 1276.742188 428.25 1272.792969 429.640625 L 1272.84375 428.921875 C 1270.382812 429.699219 1263.878906 433.0625 1265.359375 435.816406 C 1258.8125 436.53125 1259.285156 433.441406 1251.570312 436.953125 L 1253.003906 437.058594 C 1251.773438 437.449219 1250.285156 438.058594 1248.097656 438.375 C 1245.890625 438.933594 1243.449219 439.472656 1240.523438 439.972656 C 1234.902344 441.238281 1228.0625 442.652344 1221.246094 443.824219 C 1217.824219 444.53125 1214.40625 445.238281 1211.246094 445.722656 C 1208.066406 446.449219 1204.90625 446.933594 1202.222656 447.453125 C 1196.613281 448.476562 1192.460938 449.371094 1190.476562 450.183594 L 1191.007812 449.503906 C 1187.519531 451.164062 1183.144531 451.800781 1178.972656 452.933594 C 1177.261719 453.285156 1175.296875 453.859375 1173.585938 454.210938 C 1178.164062 454.074219 1174.347656 456.914062 1184.804688 455.292969 L 1185.277344 452.199219 C 1186.472656 452.289062 1253.035156 443.074219 1250.957031 441.957031 C 1252.113281 442.523438 1253.015625 443.3125 1256.363281 443.5625 C 1268.074219 441.3125 1279.488281 439.757812 1292.171875 437.339844 C 1290.9375 437.730469 1289.726562 437.878906 1290.886719 438.445312 C 1333.679688 432.023438 1374.824219 428.363281 1417.25 423.597656 C 1425.246094 422.753906 1419.242188 425.910156 1426.027344 425.214844 C 1430.585938 425.316406 1435.324219 423.023438 1438.761719 422.078125 C 1437.582031 421.75 1435.398438 422.066406 1436.644531 421.4375 C 1439.035156 421.617188 1441.703125 421.335938 1444.589844 421.3125 C 1442.089844 422.566406 1437.644531 424.160156 1444.410156 423.703125 L 1435.199219 424.699219 C 1435.074219 426.371094 1437.882812 424.175781 1444.632812 423.960938 L 1450.238281 422.9375 L 1450.113281 424.609375 C 1479.824219 432.363281 1465.371094 490.683594 1465.371094 490.683594 L 1463.113281 491.957031 L 1448.652344 489.195312 C 1427.589844 494.355469 1402.546875 494.886719 1386.554688 496.578125 C 1379.496094 497.734375 1361.332031 499.503906 1351.722656 502.632812 L 1351.847656 500.960938 C 1340.15625 502.972656 1324.648438 507.828125 1317.574219 509.222656 L 1317.625 508.503906 C 1312.996094 509.359375 1300.957031 512.789062 1302.914062 515.582031 C 1291.570312 516.175781 1292.996094 513.15625 1279.03125 516.683594 L 1281.183594 516.84375 C 1264.839844 519.953125 1184.597656 528.867188 1170.683594 531.675781 L 1171.953125 530.808594 C 1158.941406 534.40625 1142.097656 534.589844 1129.015625 539.144531 C 1103.867188 541.113281 995.902344 554.210938 968.074219 559.828125 C 943.722656 564.019531 966.445312 562.351562 942.417969 565.363281 C 939.019531 565.832031 937.714844 567.179688 942.035156 567.261719 C 934.058594 567.867188 923.582031 569.730469 915.691406 569.140625 C 866.910156 578.480469 769.261719 591.867188 721.820312 599.386719 L 723.050781 598.996094 C 691.929688 603.648438 569.53125 623.359375 538.464844 627.292969 L 532.492188 629.972656 C 525.800781 629.472656 519.882812 631.4375 510.742188 631.472656 C 506.113281 632.332031 508.191406 633.449219 510.601562 633.386719 C 502.675781 633.277344 494.296875 636.015625 490.011719 635.457031 L 491.277344 634.589844 C 478.792969 634.378906 472.351562 640.148438 458.890625 640.105469 L 458.910156 639.867188 C 453.171875 639.4375 447.199219 642.117188 442.53125 643.453125 C 435.785156 643.671875 441.738281 641.230469 435.964844 641.277344 C 433.871094 643.527344 427.65625 643.0625 421.828125 643.832031 C 428.410156 642.636719 435.722656 641.261719 435.132812 639.535156 C 427.097656 640.855469 433.105469 637.699219 425.019531 639.738281 L 424.601562 642.113281 C 421.148438 643.296875 414.140625 643.738281 413.257812 642.707031 C 414.453125 642.796875 417.835938 642.570312 421.238281 642.101562 C 420.582031 637.964844 435.4375 577.507812 435.945312 573.9375 C 446.105469 569.886719 461.902344 570.828125 473.789062 566.183594 C 439.296875 567.695312 406.011719 565.929688 371.824219 563.375 C 365.128906 562.875 370.585938 560.640625 365.070312 560.46875 C 361.519531 559.722656 357.347656 560.851562 354.183594 561.335938 C 355.125 561.648438 357.035156 561.789062 355.785156 562.417969 C 353.910156 561.796875 351.777344 561.398438 349.386719 561.21875 C 351.609375 560.421875 355.503906 559.753906 350.023438 559.101562 L 357.4375 559.65625 C 357.800781 558 355.265625 559.734375 349.820312 558.605469 L 345.261719 558.507812 L 345.625 556.851562 C 335.039062 550.527344 335.113281 533.457031 337.6875 518.257812 Z M 1162.507812 457.714844 C 1162.507812 457.714844 1162.488281 457.953125 1162.488281 457.953125 C 1163.464844 457.785156 1164.199219 457.601562 1165.171875 457.433594 C 1164.199219 457.601562 1163.464844 457.785156 1162.507812 457.714844 Z M 690.449219 472.226562 C 693.613281 471.742188 696.515625 471.476562 699.660156 471.230469 C 698.226562 471.125 697.269531 471.054688 696.535156 471.238281 C 697.765625 470.847656 697.378906 469.617188 696.21875 469.050781 L 693.257812 470.03125 C 693.683594 470.785156 694.417969 470.597656 694.125 471.300781 C 692.65625 471.671875 691.109375 469.871094 690.449219 472.226562 Z M 1337.933594 342.878906 C 1335.617188 341.742188 1332.675781 342.484375 1329.511719 342.96875 C 1332.328125 343.902344 1334.976562 343.859375 1337.933594 342.878906 Z M 1329.511719 342.96875 C 1329.511719 342.96875 1329.753906 342.988281 1329.511719 342.96875 C 1329.753906 342.988281 1329.511719 342.96875 1329.511719 342.96875 Z M 1027.792969 404.121094 C 1027.792969 404.121094 1028.03125 404.136719 1027.792969 404.121094 C 1028.03125 404.136719 1027.792969 404.121094 1027.792969 404.121094 Z M 575.140625 471.066406 C 576.449219 472.847656 578.378906 472.75 580.511719 473.152344 C 578.964844 471.351562 577.324219 470.75 575.140625 471.066406 Z M 580.53125 472.914062 Z M 949.636719 375.433594 C 950.117188 375.46875 950.59375 375.503906 951.328125 375.320312 C 950.59375 375.503906 950.117188 375.46875 949.636719 375.433594 Z M 949.636719 375.433594 " fill-opacity="1" fill-rule="nonzero"/></g></g></g><g fill="#ffffff" fill-opacity="1"><g transform="translate(669.358609, 477.996685)"><g><path d="M 16 4.96875 L 16 -18.5625 L 27.765625 -18.5625 L 27.765625 -5.265625 L 66.484375 -5.265625 L 66.484375 4.96875 Z M 52.609375 -13.953125 L 52.609375 -65.015625 L 64.515625 -65.015625 L 64.515625 -45.65625 L 72.984375 -45.65625 L 72.984375 -34.921875 L 64.515625 -34.921875 L 64.515625 -13.953125 Z M 4.671875 -43.109375 C 4.671875 -48.898438 6.582031 -53.5625 10.40625 -57.09375 C 14.226562 -60.625 19.160156 -62.390625 25.203125 -62.390625 C 31.191406 -62.390625 36.097656 -60.609375 39.921875 -57.046875 C 43.742188 -53.492188 45.65625 -48.847656 45.65625 -43.109375 C 45.65625 -37.265625 43.753906 -32.597656 39.953125 -29.109375 C 36.160156 -25.628906 31.242188 -23.890625 25.203125 -23.890625 C 19.160156 -23.890625 14.226562 -25.628906 10.40625 -29.109375 C 6.582031 -32.597656 4.671875 -37.265625 4.671875 -43.109375 Z M 16.65625 -43.109375 C 16.65625 -40.179688 17.421875 -37.800781 18.953125 -35.96875 C 20.492188 -34.144531 22.578125 -33.234375 25.203125 -33.234375 C 27.835938 -33.234375 29.921875 -34.132812 31.453125 -35.9375 C 32.984375 -37.738281 33.75 -40.128906 33.75 -43.109375 C 33.75 -46.023438 32.984375 -48.410156 31.453125 -50.265625 C 29.921875 -52.117188 27.835938 -53.046875 25.203125 -53.046875 C 22.578125 -53.046875 20.492188 -52.117188 18.953125 -50.265625 C 17.421875 -48.410156 16.65625 -46.023438 16.65625 -43.109375 Z M 16.65625 -43.109375 "/></g></g></g><g fill="#ffffff" fill-opacity="1"><g transform="translate(745.634305, 477.996685)"><g><path d="M 14.25 -7.890625 C 14.25 -12.472656 16.851562 -16.066406 22.0625 -18.671875 C 27.269531 -21.273438 33.894531 -22.578125 41.9375 -22.578125 C 50.070312 -22.578125 56.707031 -21.285156 61.84375 -18.703125 C 66.976562 -16.117188 69.546875 -12.515625 69.546875 -7.890625 C 69.546875 -4.816406 68.300781 -2.175781 65.8125 0.03125 C 63.332031 2.25 60.035156 3.90625 55.921875 5 C 51.804688 6.09375 47.144531 6.640625 41.9375 6.640625 C 33.894531 6.640625 27.269531 5.363281 22.0625 2.8125 C 16.851562 0.257812 14.25 -3.304688 14.25 -7.890625 Z M 27.109375 -7.890625 C 27.109375 -4.523438 32.050781 -2.84375 41.9375 -2.84375 C 46.507812 -2.84375 50.125 -3.28125 52.78125 -4.15625 C 55.4375 -5.039062 56.765625 -6.285156 56.765625 -7.890625 C 56.765625 -9.597656 55.460938 -10.890625 52.859375 -11.765625 C 50.253906 -12.640625 46.613281 -13.078125 41.9375 -13.078125 C 32.050781 -13.078125 27.109375 -11.347656 27.109375 -7.890625 Z M 37.328125 -39.15625 L 37.328125 -48.296875 L 55.96875 -48.296875 L 55.96875 -51.9375 L 37.328125 -51.9375 L 37.328125 -61.15625 L 55.96875 -61.15625 L 55.96875 -65.015625 L 67.9375 -65.015625 L 67.9375 -21.625 L 55.96875 -21.625 L 55.96875 -39.15625 Z M 9.203125 -25.5 L 9.203125 -62.390625 L 20.890625 -62.390625 L 20.890625 -35.5 L 23.09375 -35.5 C 32.050781 -35.5 41.375 -36.015625 51.0625 -37.046875 L 51.0625 -27.546875 C 39.625 -26.179688 27.425781 -25.5 14.46875 -25.5 Z M 9.203125 -25.5 "/></g></g></g><g fill="#ffffff" fill-opacity="1"><g transform="translate(821.910001, 477.996685)"><g><path d="M 51.796875 6.71875 L 51.796875 -65.015625 L 63.859375 -65.015625 L 63.859375 -34.703125 L 73.71875 -34.703125 L 73.71875 -23.453125 L 63.859375 -23.453125 L 63.859375 6.71875 Z M 13.8125 -51.21875 L 13.8125 -61.734375 L 40.03125 -61.734375 L 40.03125 -51.21875 Z M 4.890625 -36.015625 L 4.890625 -46.46875 L 47.421875 -46.46875 L 47.421875 -36.015625 Z M 7.09375 -17.46875 C 7.09375 -22.238281 8.929688 -26.070312 12.609375 -28.96875 C 16.285156 -31.863281 21.046875 -33.3125 26.890625 -33.3125 C 32.773438 -33.3125 37.546875 -31.863281 41.203125 -28.96875 C 44.859375 -26.070312 46.6875 -22.238281 46.6875 -17.46875 C 46.6875 -12.6875 44.859375 -8.859375 41.203125 -5.984375 C 37.546875 -3.117188 32.773438 -1.6875 26.890625 -1.6875 C 20.992188 -1.6875 16.21875 -3.109375 12.5625 -5.953125 C 8.914062 -8.804688 7.09375 -12.644531 7.09375 -17.46875 Z M 18.921875 -17.46875 C 18.921875 -15.46875 19.722656 -13.976562 21.328125 -13 C 22.941406 -12.03125 24.796875 -11.546875 26.890625 -11.546875 C 28.929688 -11.546875 30.765625 -12.039062 32.390625 -13.03125 C 34.023438 -14.03125 34.84375 -15.507812 34.84375 -17.46875 C 34.84375 -19.507812 34.039062 -21.015625 32.4375 -21.984375 C 30.832031 -22.960938 28.984375 -23.453125 26.890625 -23.453125 C 24.796875 -23.453125 22.941406 -22.953125 21.328125 -21.953125 C 19.722656 -20.953125 18.921875 -19.457031 18.921875 -17.46875 Z M 18.921875 -17.46875 "/></g></g></g><g fill="#ffffff" fill-opacity="1"><g transform="translate(898.185697, 477.996685)"><g><path d="M 57.28125 6.71875 L 57.28125 -65.015625 L 68.75 -65.015625 L 68.75 6.71875 Z M 33.390625 -29.734375 L 33.390625 -41.203125 L 41.9375 -41.203125 L 41.9375 -63.125 L 52.828125 -63.125 L 52.828125 3.578125 L 41.9375 3.578125 L 41.9375 -29.734375 Z M 1.75 -8.765625 C 11.394531 -19.046875 16.21875 -31.734375 16.21875 -46.828125 L 16.21875 -60.5 L 27.828125 -60.5 L 27.828125 -47.484375 C 27.828125 -40.328125 29.175781 -33.21875 31.875 -26.15625 C 34.582031 -19.09375 37.472656 -13.859375 40.546875 -10.453125 L 31.421875 -4.09375 C 29.859375 -5.988281 28.148438 -8.675781 26.296875 -12.15625 C 24.453125 -15.644531 23.066406 -18.828125 22.140625 -21.703125 C 21.117188 -18.628906 19.582031 -15.191406 17.53125 -11.390625 C 15.488281 -7.597656 13.441406 -4.554688 11.390625 -2.265625 Z M 1.75 -8.765625 "/></g></g></g><g fill="#ffffff" fill-opacity="1"><g transform="translate(974.461394, 477.996685)"><g><path d="M 3.28125 0.140625 L 3.28125 -10.296875 L 18.1875 -10.296875 L 18.1875 -23.3125 L 30.03125 -23.3125 L 30.03125 -10.296875 L 46.171875 -10.296875 L 46.171875 -23.3125 L 58.078125 -23.3125 L 58.078125 -10.296875 L 72.6875 -10.296875 L 72.6875 0.140625 Z M 9.578125 -43.03125 C 9.578125 -46.976562 10.925781 -50.410156 13.625 -53.328125 C 16.332031 -56.253906 19.800781 -58.410156 24.03125 -59.796875 C 28.269531 -61.179688 32.972656 -61.875 38.140625 -61.875 C 43.253906 -61.875 47.925781 -61.179688 52.15625 -59.796875 C 56.394531 -58.410156 59.863281 -56.253906 62.5625 -53.328125 C 65.269531 -50.410156 66.625 -46.976562 66.625 -43.03125 C 66.625 -39.082031 65.269531 -35.632812 62.5625 -32.6875 C 59.863281 -29.75 56.394531 -27.570312 52.15625 -26.15625 C 47.925781 -24.738281 43.253906 -24.03125 38.140625 -24.03125 C 30.148438 -24.03125 23.390625 -25.722656 17.859375 -29.109375 C 12.335938 -32.492188 9.578125 -37.132812 9.578125 -43.03125 Z M 22.71875 -43.03125 C 22.71875 -40.007812 24.164062 -37.660156 27.0625 -35.984375 C 29.96875 -34.304688 33.660156 -33.46875 38.140625 -33.46875 C 42.671875 -33.46875 46.367188 -34.304688 49.234375 -35.984375 C 52.109375 -37.660156 53.546875 -40.007812 53.546875 -43.03125 C 53.546875 -46 52.097656 -48.3125 49.203125 -49.96875 C 46.304688 -51.625 42.617188 -52.453125 38.140625 -52.453125 C 33.660156 -52.453125 29.96875 -51.625 27.0625 -49.96875 C 24.164062 -48.3125 22.71875 -46 22.71875 -43.03125 Z M 22.71875 -43.03125 "/></g></g></g><g fill="#ffffff" fill-opacity="1"><g transform="translate(1050.73709, 477.996685)"><g><path d="M 3 12.0625 L 10.8125 -13.078125 L 23.09375 -13.078125 L 12.5 12.0625 Z M 3 12.0625 "/></g></g></g><g fill="#ffffff" fill-opacity="1"><g transform="translate(1079.815373, 477.996685)"><g/></g></g><g fill="#ffffff" fill-opacity="1"><g transform="translate(1098.080626, 477.996685)"><g><path d="M 42.078125 -27.46875 L 42.078125 -38.875 L 55.234375 -38.875 L 55.234375 -65.015625 L 67.359375 -65.015625 L 67.359375 6.71875 L 55.234375 6.71875 L 55.234375 -27.46875 Z M 3.71875 -10.515625 C 5.769531 -11.929688 7.570312 -13.320312 9.125 -14.6875 C 10.6875 -16.050781 12.503906 -17.960938 14.578125 -20.421875 C 16.648438 -22.878906 18.28125 -25.785156 19.46875 -29.140625 C 20.664062 -32.503906 21.265625 -36.132812 21.265625 -40.03125 L 21.265625 -48.296875 L 8.25 -48.296875 L 8.25 -58.890625 L 46.3125 -58.890625 L 46.3125 -48.296875 L 33.234375 -48.296875 L 33.234375 -40.25 C 33.234375 -36.695312 33.851562 -33.265625 35.09375 -29.953125 C 36.34375 -26.640625 37.925781 -23.773438 39.84375 -21.359375 C 41.769531 -18.953125 43.535156 -16.984375 45.140625 -15.453125 C 46.753906 -13.921875 48.34375 -12.617188 49.90625 -11.546875 L 42.015625 -4.234375 C 39.429688 -5.796875 36.675781 -8.234375 33.75 -11.546875 C 30.832031 -14.859375 28.738281 -17.851562 27.46875 -20.53125 C 26.207031 -17.601562 23.992188 -14.3125 20.828125 -10.65625 C 17.660156 -7.007812 14.738281 -4.429688 12.0625 -2.921875 Z M 3.71875 -10.515625 "/></g></g></g><g fill="#ffffff" fill-opacity="1"><g transform="translate(1174.356322, 477.996685)"><g><path d="M 13.21875 5.1875 L 13.21875 -18.125 L 24.984375 -18.125 L 24.984375 -5.046875 L 65.390625 -5.046875 L 65.390625 5.1875 Z M 3.28125 -21.84375 L 3.28125 -31.78125 L 72.6875 -31.78125 L 72.6875 -21.84375 Z M 13.21875 -39.09375 L 13.21875 -64.078125 L 24.984375 -64.078125 L 24.984375 -48.734375 L 65.3125 -48.734375 L 65.3125 -39.09375 Z M 13.21875 -39.09375 "/></g></g></g><g fill="#ffffff" fill-opacity="1"><g transform="translate(687.945464, 629.320121)"><g><path d="M 32.550781 -99.15625 C 32.425781 -101.820312 29.433594 -103.019531 26.367188 -102.875 C 23.300781 -102.734375 20.570312 -101.136719 20.699219 -98.339844 L 21.636719 -78.078125 C 21.734375 -75.945312 24.457031 -74.867188 27.261719 -74.863281 C 29.925781 -74.988281 32.675781 -76.183594 32.554688 -78.851562 Z M 13.34375 -98.535156 C 13.210938 -101.332031 10.074219 -102.789062 7.273438 -102.660156 C 4.207031 -102.519531 1.480469 -100.789062 1.625 -97.722656 L 3.359375 -77.5 C 3.476562 -74.96875 6.199219 -73.890625 9.265625 -74.03125 C 12.070312 -74.027344 14.953125 -75.230469 14.863281 -77.230469 Z M 13.34375 -98.535156 "/></g></g></g><g fill="#ffffff" fill-opacity="1"><g transform="translate(731.397082, 627.310098)"><g><path d="M 36.160156 -107.738281 C 34.808594 -102.332031 31.78125 -95.511719 28.328125 -89.339844 C 25.007812 -83.175781 21.394531 -77.53125 18.871094 -74.34375 C 15.835938 -70.597656 17.195312 -67.1875 19.808594 -65.570312 C 22.421875 -63.953125 26.160156 -63.992188 28.527344 -67.710938 C 31.179688 -71.039062 35.679688 -77.660156 39.21875 -84.902344 C 49.710938 -80.445312 60.167969 -73.847656 66.785156 -69.480469 C 69.699219 -67.078125 72.84375 -68.425781 74.738281 -70.78125 C 76.367188 -73.128906 76.613281 -76.480469 73.441406 -78.605469 C 67.21875 -83.125 55.429688 -89.660156 43.960938 -95.007812 C 45.414062 -98.28125 46.199219 -101.523438 46.984375 -104.765625 C 47.878906 -108.546875 45.621094 -111.113281 43.445312 -111.949219 C 40.589844 -113.019531 36.921875 -111.511719 36.160156 -107.738281 Z M 9.503906 -39.980469 C 13.480469 -40.699219 18.648438 -41.605469 25.148438 -42.574219 C 31.640625 -43.675781 38.144531 -44.644531 44.644531 -45.613281 C 51.144531 -46.582031 57.246094 -47.53125 62.691406 -48.183594 L 73.972656 -49.773438 C 76.632812 -50.03125 79.878906 -52.050781 79.730469 -55.25 C 79.609375 -57.917969 77.617188 -60.496094 74.027344 -60.195312 L 42.570312 -55.804688 C 35.933594 -54.828125 29.574219 -53.734375 23.339844 -52.777344 C 17.238281 -51.824219 12.597656 -51.078125 9.289062 -50.390625 C 4.535156 -49.234375 3.726562 -46.527344 3.847656 -43.859375 C 3.976562 -41.058594 6.199219 -39.292969 9.503906 -39.980469 Z M 48.316406 -35.496094 C 42.054688 -35.207031 35.351562 -32.761719 30.199219 -28.648438 C 24.914062 -24.53125 21.453125 -18.492188 21.804688 -10.894531 C 22.03125 -5.960938 24.101562 -1.648438 28 1.777344 C 31.898438 5.203125 37.585938 6.8125 45.050781 6.464844 C 50.515625 6.210938 57.519531 4.554688 62.828125 0.96875 C 68.007812 -2.613281 72.019531 -8.273438 71.648438 -16.273438 C 71.285156 -24.136719 68.386719 -29.078125 64.109375 -31.953125 C 59.835938 -34.828125 54.183594 -35.769531 48.316406 -35.496094 Z M 59.917969 -15.730469 C 60.214844 -9.332031 53.511719 -4.078125 44.3125 -3.652344 C 37.914062 -3.355469 34.277344 -6.929688 34.054688 -11.726562 C 33.882812 -15.460938 35.742188 -18.617188 38.433594 -21.015625 C 41.394531 -23.421875 45.066406 -24.925781 48.796875 -25.101562 C 56.796875 -25.46875 59.648438 -21.59375 59.917969 -15.730469 Z M 59.917969 -15.730469 "/></g></g></g><g fill="#ffffff" fill-opacity="1"><g transform="translate(819.89975, 623.216064)"><g><path d="M 29.082031 -61.457031 C 34.085938 -65.964844 39.164062 -71.675781 43.714844 -77.230469 C 47.699219 -74.875 52.339844 -72.6875 56.589844 -70.34375 C 60.839844 -68.003906 64.957031 -65.65625 68.40625 -63.277344 C 71.589844 -60.886719 74.613281 -61.960938 76.113281 -64.167969 C 77.753906 -66.246094 77.871094 -69.457031 75.507812 -71.488281 C 71.765625 -74.386719 67.511719 -76.859375 62.996094 -79.191406 C 58.613281 -81.523438 53.847656 -83.441406 49.882812 -85.394531 C 51.894531 -88.160156 53.503906 -90.90625 54.46875 -93.089844 C 57.839844 -101.125 53.855469 -106.417969 43.746094 -105.417969 C 41.085938 -105.160156 34.582031 -104.324219 28.082031 -103.355469 C 21.578125 -102.386719 14.832031 -101.007812 11.679688 -99.792969 C 9.457031 -98.753906 7.03125 -96.371094 8.105469 -93.347656 C 9.324219 -90.066406 12.554688 -89.546875 14.535156 -90.039062 C 16.25 -90.519531 22.613281 -91.613281 28.832031 -92.839844 C 35.054688 -94.0625 41.03125 -94.871094 42.628906 -94.945312 C 41.3125 -91.679688 38.308594 -87.265625 34.378906 -82.675781 C 30.316406 -78.078125 25.601562 -73.183594 21 -68.699219 C 18.574219 -66.316406 19.113281 -63.265625 21.207031 -61.359375 C 23.03125 -59.441406 26.132812 -58.78125 29.082031 -61.457031 Z M 9.585938 -38.246094 L 22.972656 -40.46875 C 28.148438 -41.242188 33.84375 -42.308594 39.675781 -43.246094 L 40.171875 -32.582031 C 40.3125 -29.515625 40.558594 -27.125 40.605469 -26.058594 C 40.761719 -22.722656 44.046875 -21.007812 46.84375 -21.136719 C 50.042969 -21.285156 52.992188 -23.957031 52.84375 -27.15625 C 52.8125 -27.824219 52.558594 -30.484375 52.410156 -33.683594 C 52.121094 -37.007812 51.9375 -41.007812 51.757812 -44.875 C 56.664062 -45.636719 61.585938 -46.128906 65.433594 -46.707031 L 74.058594 -47.910156 C 76.71875 -48.164062 79.964844 -50.1875 79.816406 -53.386719 C 79.6875 -56.183594 77.703125 -58.628906 74.113281 -58.332031 L 42.65625 -53.9375 C 36.023438 -52.960938 29.660156 -51.867188 23.425781 -50.910156 L 9.371094 -48.65625 C 4.617188 -47.5 3.8125 -44.660156 3.929688 -42.125 C 4.070312 -39.0625 6.277344 -37.558594 9.585938 -38.246094 Z M 71.597656 -11.59375 C 65.097656 -10.625 57.257812 -9.730469 50.34375 -9.007812 C 43.433594 -8.289062 37.039062 -7.859375 33.6875 -8.105469 C 32.621094 -8.054688 32.210938 -8.300781 32.019531 -9.496094 C 31.503906 -12.011719 31.304688 -13.46875 31.097656 -15.0625 C 30.886719 -16.65625 30.808594 -18.390625 30.667969 -21.457031 C 30.476562 -25.589844 27.324219 -27.3125 24.261719 -27.039062 C 21.199219 -26.894531 18.496094 -24.632812 18.804688 -20.90625 C 19.019531 -16.242188 19.390625 -13.988281 19.628906 -11.726562 C 19.867188 -9.46875 20.230469 -7.347656 20.824219 -3.234375 C 21.105469 -0.0429688 23.941406 3.566406 27.675781 3.394531 C 42.496094 3.242188 58.980469 1.546875 71.59375 -0.105469 C 75.722656 -0.429688 78.378906 -3.625 78.25 -6.425781 C 78.121094 -9.222656 75.324219 -11.898438 71.597656 -11.59375 Z M 71.597656 -11.59375 "/></g></g></g><g fill="#ffffff" fill-opacity="1"><g transform="translate(908.402406, 619.122031)"><g><path d="M 32.550781 -99.15625 C 32.425781 -101.820312 29.433594 -103.019531 26.367188 -102.875 C 23.300781 -102.734375 20.570312 -101.136719 20.699219 -98.339844 L 21.636719 -78.078125 C 21.734375 -75.945312 24.457031 -74.867188 27.261719 -74.863281 C 29.925781 -74.988281 32.675781 -76.183594 32.554688 -78.851562 Z M 13.34375 -98.535156 C 13.210938 -101.332031 10.074219 -102.789062 7.273438 -102.660156 C 4.207031 -102.519531 1.480469 -100.789062 1.625 -97.722656 L 3.359375 -77.5 C 3.476562 -74.96875 6.199219 -73.890625 9.265625 -74.03125 C 12.070312 -74.027344 14.953125 -75.230469 14.863281 -77.230469 Z M 13.34375 -98.535156 "/></g></g></g><g fill="#ffffff" fill-opacity="1"><g transform="translate(951.854012, 617.112008)"><g><path d="M 28.71875 -98.175781 C 21.921875 -97.863281 15.773438 -95.039062 11.171875 -90.550781 C 6.570312 -86.0625 3.789062 -79.789062 4.136719 -72.324219 C 4.652344 -61.128906 12.996094 -54.035156 24.726562 -54.578125 C 33.390625 -54.976562 40.054688 -58.226562 44.515625 -62.839844 C 48.984375 -67.320312 51.257812 -73.035156 51.011719 -78.367188 C 50.367188 -92.230469 41.117188 -98.75 28.71875 -98.175781 Z M 38.734375 -78.066406 C 38.875 -75 37.804688 -72.148438 35.667969 -69.242188 C 33.527344 -66.472656 29.988281 -64.972656 25.058594 -64.746094 C 21.457031 -64.578125 19.144531 -65.539062 17.984375 -67.488281 C 16.824219 -69.441406 16.191406 -71.546875 16.09375 -73.679688 C 15.902344 -77.8125 17.222656 -81.078125 19.902344 -83.742188 C 22.585938 -86.402344 25.722656 -87.886719 29.1875 -88.046875 C 35.585938 -88.339844 38.464844 -83.933594 38.734375 -78.066406 Z M 63.425781 -101.652344 C 64.074219 -99.144531 65.089844 -97.453125 65.859375 -95.21875 C 66.496094 -92.976562 67.289062 -90.34375 67.613281 -86.214844 C 68.269531 -74.890625 68.777344 -69.707031 68.925781 -66.507812 C 69.074219 -63.308594 69.261719 -62.113281 69.410156 -58.914062 C 69.5625 -55.582031 72.472656 -53.3125 75.671875 -53.460938 C 78.738281 -53.601562 81.421875 -56.265625 81.273438 -59.464844 C 80.910156 -64.390625 80.609375 -70.921875 80.308594 -77.453125 C 79.878906 -83.84375 79.304688 -90.496094 78.125 -95.785156 C 76.792969 -101.46875 75.101562 -106.199219 72.796875 -109.832031 C 70.667969 -112.539062 66.429688 -111.808594 64.375 -109.976562 C 61.8125 -107.589844 62.636719 -104.285156 63.425781 -101.652344 Z M 34.914062 -36.480469 C 34.742188 -40.210938 32.78125 -42.125 29.449219 -41.972656 C 26.25 -41.824219 23.410156 -39.6875 23.582031 -35.957031 L 25.398438 -2.511719 C 25.652344 2.953125 27.648438 5.667969 32.453125 5.578125 C 34.191406 5.632812 37.394531 5.617188 44.308594 4.898438 C 51.089844 4.183594 61.320312 3.039062 77.648438 0.816406 C 81.75 -0.0429688 83.53125 -1.992188 84.117188 -3.757812 C 84.957031 -5.800781 84.585938 -8.054688 84.621094 -10.191406 C 83.09375 -22.945312 81.5625 -33.027344 79.472656 -43.484375 C 78.417969 -46.105469 76.320312 -48.148438 72.726562 -47.847656 C 69.546875 -47.300781 67.074219 -45.847656 67.804688 -41.609375 C 68.492188 -38.300781 69.222656 -34.058594 69.953125 -29.820312 C 65.695312 -29.488281 59.574219 -28.9375 53.316406 -28.515625 C 46.9375 -27.820312 40.289062 -27.109375 35.382812 -26.347656 Z M 71.753906 -19.75 C 71.824219 -18.285156 72.019531 -16.957031 72.074219 -15.757812 L 72.507812 -12.171875 C 72.554688 -11.105469 72.582031 -10.570312 72.464844 -10.164062 C 72.351562 -9.757812 71.832031 -9.46875 71.171875 -9.304688 C 64.679688 -8.066406 57.503906 -7.335938 51.65625 -6.664062 C 45.675781 -5.988281 40.753906 -5.492188 39.023438 -5.410156 C 36.890625 -5.3125 36.597656 -5.835938 36.5 -7.96875 C 36.46875 -8.632812 36.230469 -10.894531 35.851562 -16.21875 C 41.691406 -17.023438 48.726562 -18.015625 55.117188 -18.445312 C 61.632812 -19.148438 67.625 -19.558594 71.753906 -19.75 Z M 71.753906 -19.75 "/></g></g></g><g fill="#ffffff" fill-opacity="1"><g transform="translate(1043.022431, 612.89466)"><g><path d="M 22.847656 -40.332031 C 22.273438 -44.042969 21.5 -49.21875 20.792969 -55.863281 C 20.085938 -62.511719 20.03125 -69.453125 20.363281 -76.683594 C 20.597656 -80.300781 17.566406 -82.296875 14.5 -82.15625 C 11.429688 -82.148438 8.308594 -80.265625 8.089844 -76.382812 C 7.210938 -60.714844 8.960938 -45.964844 11.171875 -32.84375 C 11.902344 -28.601562 14.921875 -26.871094 19.566406 -27.488281 C 24.492188 -27.847656 30.472656 -28.527344 36.179688 -29.324219 C 41.886719 -30.125 47.195312 -30.902344 51.285156 -32.027344 C 54.457031 -32.707031 55.777344 -35.976562 55.246094 -38.757812 C 54.992188 -41.417969 52.734375 -43.984375 49.554688 -43.4375 C 44.246094 -42.65625 40.542969 -41.816406 36.703125 -41.105469 C 32.863281 -40.394531 29.148438 -39.820312 23.957031 -39.445312 C 23.421875 -39.421875 22.890625 -39.398438 22.847656 -40.332031 Z M 63.800781 -93.519531 C 65.222656 -88.777344 67.457031 -80.867188 68.234375 -72.753906 L 70.292969 -39.851562 C 70.742188 -30.121094 70.964844 -22.386719 70.980469 -19.179688 C 70.746094 -15.5625 74.042969 -13.578125 77.242188 -13.726562 C 80.308594 -13.867188 82.59375 -16.511719 82.84375 -19.730469 C 82.269531 -32.125 82.109375 -44.273438 81.574219 -55.871094 C 80.914062 -67.195312 79.886719 -77.832031 78.226562 -87.777344 C 77.027344 -93.464844 75.472656 -98.203125 73.167969 -101.835938 C 71.046875 -104.410156 66.796875 -103.8125 64.746094 -101.980469 C 62.195312 -99.324219 63.003906 -96.289062 63.800781 -93.519531 Z M 63.800781 -93.519531 "/></g></g></g><g fill="#ffffff" fill-opacity="1"><g transform="translate(1134.19085, 608.677311)"><g><path d="M 5.6875 -79.210938 C 5.03125 -73.167969 5.152344 -64.757812 5.929688 -56.644531 C 6.851562 -48.273438 8.03125 -40.046875 10.328125 -33.738281 C 11.574219 -29.921875 13.476562 -29.210938 17.898438 -28.878906 C 28.746094 -28.3125 40.269531 -30.449219 48.726562 -32.445312 C 52.960938 -33.308594 54.414062 -36.582031 53.890625 -39.226562 C 53.367188 -41.875 50.984375 -44.304688 47.410156 -43.605469 C 43.566406 -42.890625 39.199219 -42.023438 34.824219 -41.285156 C 30.585938 -40.554688 26.332031 -40.089844 22.59375 -40.050781 C 22.191406 -40.03125 22.058594 -40.027344 22.054688 -40.160156 C 21.914062 -40.285156 21.773438 -40.414062 21.757812 -40.8125 C 18.59375 -48.550781 17.523438 -60.121094 17.695312 -70.816406 C 28.335938 -71.84375 39.230469 -73.148438 45.179688 -74.492188 C 49.019531 -75.203125 50.472656 -78.476562 49.941406 -81.257812 C 49.277344 -84.03125 46.769531 -86.320312 42.925781 -85.609375 C 37.503906 -84.421875 27.683594 -83.035156 17.445312 -82.023438 C 16.140625 -84.234375 13.292969 -85.171875 10.777344 -84.65625 C 8.128906 -84.132812 5.945312 -82.292969 5.6875 -79.210938 Z M 93.351562 -58.285156 C 96.390625 -58.960938 98.457031 -60.527344 98.277344 -64.390625 C 98.148438 -67.191406 95.238281 -69.460938 91.53125 -68.753906 C 87.6875 -68.042969 83.828125 -67.730469 80.230469 -67.5625 L 79.695312 -67.539062 C 78.976562 -74.453125 78.261719 -81.230469 76.894531 -87.714844 C 75.695312 -93.402344 74.140625 -98.140625 71.835938 -101.773438 C 69.710938 -104.347656 65.464844 -103.75 63.414062 -101.917969 C 60.863281 -99.261719 61.539062 -96.222656 62.601562 -93.464844 C 63.25 -90.957031 64.328125 -87.933594 65.160156 -84.367188 C 65.992188 -80.796875 66.84375 -76.828125 67.167969 -72.703125 C 67.824219 -61.378906 68.640625 -49.527344 69.089844 -39.796875 C 69.542969 -30.066406 69.632812 -22.324219 69.648438 -19.117188 C 69.414062 -15.5 72.710938 -13.515625 75.910156 -13.664062 C 78.976562 -13.804688 81.390625 -16.457031 81.644531 -19.671875 C 81.355469 -25.9375 81.199219 -32.210938 80.90625 -38.472656 C 80.765625 -44.480469 80.472656 -50.742188 80.203125 -56.609375 L 80.46875 -56.621094 C 83.667969 -56.769531 89 -57.015625 93.351562 -58.285156 Z M 93.351562 -58.285156 "/></g></g></g><g clip-path="url(#c2d902fd77)"><g clip-path="url(#e2297b21a3)"><g clip-path="url(#9f915be1e4)"><path fill="#ffffff" d="M 650.859375 389.394531 C 653.75 389.859375 655.90625 391.445312 657.871094 393.5625 C 662.589844 398.613281 667.503906 403.496094 672.242188 408.539062 C 673.800781 410.222656 675.226562 412.011719 676.507812 413.886719 C 677.695312 415.601562 677.503906 417.382812 676.320312 418.488281 C 675.082031 419.621094 673.128906 419.699219 671.574219 418.179688 C 669.011719 415.679688 666.691406 412.9375 664.230469 410.328125 C 660.507812 406.363281 656.683594 402.503906 653.085938 398.460938 C 650.984375 396.121094 649.765625 393.265625 649.90625 389.996094 Z M 628.53125 453.339844 C 630.914062 454.574219 633.453125 455.183594 636.085938 454.574219 C 642.890625 453.007812 649.675781 451.332031 656.457031 449.558594 C 657.78125 449.214844 659.03125 448.578125 660.09375 447.71875 C 660.796875 447.144531 661.46875 445.84375 661.273438 445.121094 C 661.03125 444.277344 659.894531 443.566406 659.007812 443.070312 C 658.488281 442.777344 657.660156 442.898438 656.984375 442.992188 C 649.019531 444.25 641.066406 445.574219 633.542969 448.613281 C 631.523438 449.429688 629.933594 451.308594 628.148438 452.707031 Z M 631.453125 422.914062 C 637.804688 426.035156 644.058594 429.3125 651.136719 430.6875 C 652.824219 431.015625 654.425781 431.808594 656.09375 432.269531 C 657.582031 432.667969 659.089844 433.105469 660.625 433.1875 C 661.996094 433.273438 663.210938 432.585938 663.5625 431.070312 C 663.890625 429.640625 663.136719 428.601562 661.972656 428.003906 C 659.492188 426.734375 657.027344 425.359375 654.410156 424.460938 C 649.167969 422.691406 643.84375 421.191406 638.550781 419.625 C 636.46875 419.003906 634.371094 418.394531 632.265625 417.863281 C 630.628906 417.457031 628.96875 417.328125 627.386719 418.503906 C 628.050781 420.683594 629.578125 422 631.453125 422.914062 Z M 631.453125 422.914062 " fill-opacity="1" fill-rule="nonzero"/></g></g></g><g clip-path="url(#099733a537)"><g clip-path="url(#7eecc8864b)"><g clip-path="url(#4a2058486c)"><path fill="#ffffff" d="M 1506.664062 607.847656 C 1519.085938 595.902344 1534.664062 589.394531 1548.863281 580.710938 C 1554.128906 577.519531 1559.175781 574.039062 1564.335938 570.679688 C 1565.582031 569.839844 1566.832031 568.953125 1568.085938 568.070312 C 1571.195312 565.972656 1573.203125 565.691406 1574.195312 567.492188 C 1575.609375 570.101562 1573.804688 571.707031 1571.964844 573.066406 C 1564.554688 578.492188 1557.25 584.085938 1549.636719 589.183594 C 1541.804688 594.414062 1533.492188 599.054688 1525.582031 604.222656 C 1521.53125 606.898438 1517.820312 610.132812 1513.386719 613.617188 C 1515.058594 614.160156 1515.933594 614.464844 1516.820312 614.722656 C 1548.863281 623.980469 1580.996094 633.074219 1612.964844 642.648438 C 1625.433594 646.382812 1637.523438 651.304688 1649.84375 655.664062 C 1650.675781 655.957031 1651.738281 656.261719 1652.148438 656.925781 C 1652.855469 658.136719 1653.746094 659.769531 1653.386719 660.867188 C 1653.03125 661.964844 1651.355469 663.03125 1650.117188 663.257812 C 1648.632812 663.519531 1646.894531 663.058594 1645.402344 662.558594 C 1636.902344 659.867188 1628.476562 656.859375 1619.941406 654.300781 C 1593.578125 646.445312 1567.230469 638.734375 1540.835938 631.011719 C 1532.683594 628.640625 1524.511719 626.359375 1516.339844 624.074219 C 1515.320312 623.785156 1514.277344 623.582031 1512.976562 623.273438 C 1513.039062 623.808594 1513.132812 624.398438 1513.25 624.902344 C 1524.191406 653.503906 1535.09375 682.046875 1545.988281 710.640625 C 1547.496094 714.644531 1549.261719 718.570312 1550.308594 722.703125 C 1550.789062 724.664062 1550.257812 727.089844 1549.640625 729.074219 C 1549.339844 729.949219 1547.492188 730.929688 1546.476562 730.828125 C 1545.3125 730.738281 1543.667969 729.683594 1543.199219 728.671875 C 1539.890625 721.492188 1536.59375 714.265625 1533.710938 706.902344 C 1527.109375 689.894531 1520.742188 672.703125 1514.253906 655.628906 C 1510.515625 645.882812 1506.722656 636.171875 1502.929688 626.460938 C 1502.632812 625.726562 1502.277344 625.027344 1501.820312 623.96875 C 1494.828125 628.644531 1487.878906 632.949219 1481.3125 637.820312 C 1470.777344 645.625 1460.539062 653.785156 1450.140625 661.8125 C 1449.089844 662.652344 1447.96875 663.378906 1446.777344 663.992188 C 1444.6875 665.007812 1442.597656 665.03125 1440.835938 663.285156 C 1439.074219 661.539062 1439.039062 659.304688 1440.167969 657.347656 C 1441.144531 655.640625 1442.449219 654.152344 1444.011719 652.964844 C 1459.140625 641.191406 1474.269531 629.417969 1490.929688 619.761719 C 1491.808594 619.261719 1492.664062 618.660156 1493.894531 617.863281 C 1492.851562 617.472656 1492.289062 617.246094 1491.761719 617.070312 C 1459.597656 606.929688 1427.386719 596.777344 1395.230469 586.59375 C 1390.476562 585.078125 1385.722656 583.5625 1380.988281 581.960938 C 1379.796875 581.582031 1378.386719 581.148438 1377.75 580.242188 C 1376.851562 579.03125 1375.835938 577.132812 1376.183594 575.890625 C 1376.527344 574.648438 1378.402344 573.53125 1379.839844 573.070312 C 1381.164062 572.675781 1382.878906 573.039062 1384.304688 573.425781 C 1390.570312 575.160156 1396.890625 576.859375 1403.050781 578.847656 C 1432.976562 588.453125 1462.898438 598.0625 1492.757812 607.746094 C 1493.597656 607.996094 1494.460938 608.152344 1495.625 608.429688 C 1495.539062 607.796875 1495.367188 607.136719 1495.226562 606.535156 C 1488.304688 586.515625 1481.535156 566.4375 1474.378906 546.40625 C 1471.058594 537.09375 1467.160156 528.019531 1463.484375 518.808594 C 1462.507812 516.351562 1461.332031 513.941406 1460.464844 511.414062 C 1459.519531 508.632812 1460.429688 506.199219 1462.566406 505.195312 C 1464.699219 504.1875 1467.167969 504.96875 1468.761719 507.429688 C 1470.269531 509.636719 1471.546875 512.023438 1472.570312 514.492188 C 1477.121094 525.996094 1481.671875 537.496094 1485.898438 549.15625 C 1492.613281 567.660156 1499.0625 586.292969 1505.570312 604.886719 C 1505.734375 605.777344 1506.179688 606.691406 1506.664062 607.847656 Z M 1506.664062 607.847656 " fill-opacity="1" fill-rule="nonzero"/></g></g></g><g clip-path="url(#e2a22031b7)"><g clip-path="url(#9f6006242d)"><g clip-path="url(#15e2a8f999)"><path fill="#ffffff" d="M 1308.089844 678.769531 C 1301.183594 681.082031 1293 677.269531 1290.828125 670.796875 C 1288.601562 664.152344 1293.28125 655.75 1300.542969 653.414062 C 1306.882812 651.332031 1315.050781 655.238281 1317.074219 661.257812 C 1319.121094 667.636719 1314.511719 676.660156 1308.089844 678.769531 Z M 1358.96875 653.675781 C 1356.867188 647.546875 1349.304688 644.222656 1342.398438 646.398438 C 1335.148438 648.640625 1330.941406 655.964844 1332.976562 662.71875 C 1335.117188 669.664062 1342.226562 672.582031 1350.570312 669.890625 C 1357.710938 667.59375 1361.335938 660.597656 1358.96875 653.675781 Z M 1394.210938 656.300781 C 1400.800781 654 1404.171875 648.328125 1402.246094 642.742188 C 1399.703125 635.28125 1392.363281 631.378906 1385.183594 633.691406 C 1378.261719 635.960938 1374.527344 642.902344 1376.742188 649.5 C 1378.953125 656.101562 1386.460938 658.980469 1394.210938 656.300781 Z M 1394.210938 656.300781 " fill-opacity="1" fill-rule="nonzero"/></g></g></g><g clip-path="url(#b69ab25a71)"><g clip-path="url(#332bd6bf81)"><g clip-path="url(#76ddfc7e59)"><path fill="#ffffff" d="M 410.136719 623.128906 C 414.5 609.046875 418.589844 595.847656 422.664062 582.65625 C 423.476562 579.976562 423.921875 577.191406 424.929688 574.597656 C 426.332031 571.039062 429.3125 569.4375 432.359375 570.199219 C 435.308594 570.933594 437.117188 573.84375 436.621094 577.691406 C 436.207031 580.824219 435.648438 583.964844 434.6875 586.960938 C 429.796875 602.496094 424.925781 618.023438 419.707031 633.457031 C 417.203125 640.855469 410.171875 642.316406 404.394531 637.015625 C 402.339844 635.132812 400.65625 632.851562 398.808594 630.773438 C 396.472656 628.164062 394.136719 625.550781 391.378906 622.472656 C 390.871094 624.042969 390.425781 624.984375 390.265625 625.957031 C 388.035156 639.996094 385.847656 654.039062 383.679688 668.078125 C 383.511719 669.160156 383.5625 670.273438 383.34375 671.328125 C 382.835938 673.988281 381.378906 675.847656 378.550781 676 C 375.757812 676.136719 373.882812 674.546875 373.160156 671.953125 C 372.585938 669.878906 372.207031 667.636719 372.320312 665.484375 C 373.289062 647.078125 376.449219 628.988281 381.191406 611.21875 C 382.863281 604.972656 389.316406 603.214844 394.484375 607.667969 C 399.167969 611.710938 403.359375 616.3125 407.75 620.683594 C 408.1875 621.125 408.621094 621.550781 410.136719 623.128906 Z M 410.136719 623.128906 " fill-opacity="1" fill-rule="nonzero"/></g></g></g><g clip-path="url(#e02973ce60)"><g clip-path="url(#c0b2c578d7)"><g clip-path="url(#451734f04a)"><path fill="#ffffff" d="M 311.320312 575.457031 C 310.835938 576.324219 310.476562 576.917969 310.15625 577.527344 C 307.128906 583.253906 304.097656 588.960938 301.035156 594.667969 C 300.621094 595.496094 300.085938 596.269531 299.4375 596.9375 C 298.34375 598 296.972656 598.183594 295.640625 597.414062 C 294.304688 596.644531 293.832031 595.367188 294.207031 593.894531 C 294.421875 593.15625 294.726562 592.453125 295.121094 591.804688 C 299.457031 584.117188 303.832031 576.449219 308.132812 568.742188 C 308.476562 568.148438 308.4375 567.144531 308.199219 566.460938 C 306.277344 560.75 304.226562 555.089844 302.324219 549.359375 C 301.707031 547.492188 301.378906 545.535156 301.011719 543.609375 C 300.792969 542.425781 301.113281 541.382812 302.390625 540.964844 C 303.667969 540.546875 304.535156 541.191406 305.148438 542.214844 C 305.621094 543.023438 306.019531 543.867188 306.363281 544.730469 C 308.375 549.652344 310.367188 554.570312 312.34375 559.511719 C 312.503906 559.90625 312.6875 560.28125 313.140625 561.253906 C 316.457031 555.597656 319.558594 550.339844 322.625 545.046875 C 323.304688 543.859375 323.769531 542.5625 324.394531 541.339844 C 324.933594 540.3125 325.777344 539.753906 326.984375 540.074219 C 328.246094 540.414062 328.609375 541.457031 328.433594 542.515625 C 328.113281 544.332031 327.8125 546.238281 327.058594 547.894531 C 325.429688 551.476562 323.640625 554.988281 321.703125 558.425781 C 320.070312 561.34375 318.097656 564.0625 316.394531 566.941406 C 316 567.625 315.859375 568.757812 316.132812 569.496094 C 319.011719 576.839844 322.003906 584.132812 324.957031 591.441406 C 325.121094 591.78125 325.265625 592.140625 325.355469 592.519531 C 325.71875 594.027344 325.453125 595.378906 324.050781 596.261719 C 322.71875 597.09375 320.992188 596.808594 320.015625 595.570312 C 319.09375 594.421875 318.335938 593.148438 317.773438 591.765625 C 315.816406 587.007812 313.984375 582.195312 312.101562 577.398438 C 311.882812 576.859375 311.664062 576.320312 311.320312 575.457031 Z M 434.257812 556.933594 C 437.105469 551.210938 439.792969 545.828125 442.480469 540.425781 C 442.835938 539.6875 443.140625 538.914062 443.554688 538.214844 C 444.308594 536.953125 445.402344 536.339844 446.898438 536.765625 C 448.324219 537.195312 448.9375 538.308594 448.851562 539.65625 C 448.800781 540.753906 448.53125 541.8125 448.085938 542.820312 C 445.667969 548.042969 443.449219 553.367188 440.597656 558.355469 C 438.410156 562.207031 437.554688 565.625 439.890625 569.71875 C 442.222656 573.8125 444.035156 578.175781 446.042969 582.429688 C 446.40625 583.222656 446.804688 584.03125 446.96875 584.875 C 447.222656 586.292969 446.6875 587.5 445.355469 588.1875 C 443.988281 588.890625 442.640625 588.660156 441.554688 587.601562 C 440.976562 587.027344 440.507812 586.347656 440.144531 585.609375 C 438.28125 581.714844 436.472656 577.78125 434.640625 573.847656 C 434.535156 573.617188 434.40625 573.382812 434.117188 572.863281 C 432.8125 576.03125 431.613281 578.945312 430.414062 581.859375 C 430.039062 582.777344 429.714844 583.714844 429.214844 584.558594 C 428.371094 586.035156 426.824219 586.597656 425.417969 586.097656 C 424.011719 585.597656 423.214844 584.179688 423.480469 582.507812 C 423.605469 581.804688 423.804688 581.121094 424.089844 580.472656 C 426.109375 575.328125 428.203125 570.199219 430.171875 565.015625 C 430.457031 564.222656 430.4375 563.359375 430.128906 562.570312 C 428.625 559.285156 426.890625 556.109375 425.371094 552.820312 C 424.355469 550.648438 423.503906 548.386719 422.613281 546.140625 C 422.089844 544.792969 421.601562 543.339844 423.199219 542.328125 C 424.386719 541.589844 425.71875 542.25 426.878906 544.207031 C 429.03125 547.832031 431.09375 551.53125 433.191406 555.175781 C 433.460938 555.640625 433.75 556.089844 434.257812 556.933594 Z M 434.257812 556.933594 " fill-opacity="1" fill-rule="nonzero"/></g></g></g><g clip-path="url(#d1777420c2)"><g clip-path="url(#ce49c9f10c)"><g clip-path="url(#2007a396f3)"><path fill="#ffffff" d="M 225.730469 601.632812 C 225.246094 602.496094 224.886719 603.089844 224.566406 603.703125 C 221.539062 609.429688 218.507812 615.132812 215.445312 620.839844 C 215.03125 621.667969 214.492188 622.445312 213.847656 623.109375 C 212.75 624.171875 211.382812 624.355469 210.050781 623.585938 C 208.714844 622.816406 208.242188 621.542969 208.617188 620.066406 C 208.832031 619.328125 209.136719 618.628906 209.53125 617.980469 C 213.867188 610.292969 218.242188 602.621094 222.542969 594.917969 C 222.886719 594.324219 222.847656 593.316406 222.609375 592.632812 C 220.6875 586.921875 218.636719 581.265625 216.734375 575.535156 C 216.117188 573.667969 215.785156 571.707031 215.421875 569.785156 C 215.203125 568.597656 215.523438 567.554688 216.800781 567.140625 C 218.078125 566.722656 218.945312 567.367188 219.558594 568.390625 C 220.03125 569.199219 220.429688 570.042969 220.773438 570.902344 C 222.785156 575.824219 224.777344 580.746094 226.753906 585.683594 C 226.914062 586.078125 227.097656 586.457031 227.550781 587.425781 C 230.867188 581.773438 233.96875 576.515625 237.03125 571.222656 C 237.714844 570.035156 238.179688 568.738281 238.804688 567.515625 C 239.34375 566.488281 240.1875 565.929688 241.394531 566.25 C 242.65625 566.585938 243.019531 567.628906 242.84375 568.691406 C 242.523438 570.507812 242.222656 572.414062 241.46875 574.070312 C 239.839844 577.652344 238.050781 581.160156 236.113281 584.597656 C 234.480469 587.515625 232.507812 590.234375 230.804688 593.117188 C 230.410156 593.800781 230.269531 594.933594 230.542969 595.671875 C 233.421875 603.015625 236.414062 610.304688 239.367188 617.617188 C 239.53125 617.957031 239.675781 618.316406 239.765625 618.695312 C 240.128906 620.203125 239.863281 621.550781 238.460938 622.4375 C 237.128906 623.265625 235.402344 622.984375 234.425781 621.746094 C 233.503906 620.597656 232.746094 619.324219 232.183594 617.941406 C 230.226562 613.179688 228.394531 608.367188 226.511719 603.574219 C 226.292969 603.035156 226.074219 602.496094 225.730469 601.632812 Z M 348.667969 583.109375 C 351.515625 577.382812 354.203125 572 356.890625 566.601562 C 357.246094 565.863281 357.550781 565.089844 357.964844 564.386719 C 358.71875 563.125 359.8125 562.511719 361.308594 562.941406 C 362.734375 563.367188 363.347656 564.480469 363.261719 565.828125 C 363.210938 566.925781 362.941406 567.988281 362.496094 568.996094 C 360.078125 574.214844 357.859375 579.542969 355.007812 584.53125 C 352.820312 588.382812 351.964844 591.800781 354.300781 595.894531 C 356.632812 599.984375 358.445312 604.351562 360.453125 608.605469 C 360.816406 609.394531 361.214844 610.203125 361.378906 611.046875 C 361.632812 612.46875 361.097656 613.671875 359.765625 614.359375 C 358.398438 615.066406 357.046875 614.835938 355.964844 613.777344 C 355.386719 613.203125 354.917969 612.519531 354.554688 611.785156 C 352.691406 607.886719 350.878906 603.957031 349.050781 600.023438 C 348.945312 599.789062 348.816406 599.554688 348.527344 599.035156 C 347.222656 602.203125 346.023438 605.117188 344.824219 608.035156 C 344.445312 608.953125 344.125 609.886719 343.625 610.734375 C 342.78125 612.210938 341.234375 612.769531 339.828125 612.273438 C 338.421875 611.773438 337.625 610.355469 337.890625 608.679688 C 338.015625 607.980469 338.210938 607.296875 338.5 606.648438 C 340.519531 601.5 342.613281 596.371094 344.582031 591.191406 C 344.867188 590.398438 344.847656 589.535156 344.539062 588.746094 C 343.035156 585.460938 341.300781 582.28125 339.777344 578.996094 C 338.765625 576.824219 337.914062 574.558594 337.023438 572.316406 C 336.5 570.96875 336.007812 569.511719 337.609375 568.503906 C 338.796875 567.761719 340.128906 568.421875 341.289062 570.378906 C 343.441406 574.007812 345.5 577.703125 347.601562 581.347656 C 347.871094 581.816406 348.160156 582.265625 348.667969 583.109375 Z M 348.667969 583.109375 " fill-opacity="1" fill-rule="nonzero"/></g></g></g><g fill="#ffffff" fill-opacity="1"><g transform="translate(763.49143, 684.867349)"><g><path d="M 18.207031 -15.039062 C 14.6875 -14.269531 11.582031 -14.109375 6.046875 -14.078125 L 6.046875 -21.660156 L 15.613281 -21.660156 L 15.613281 -24.347656 L 2.75 -24.347656 L 2.75 -11.390625 L 5.085938 -11.390625 C 11.359375 -11.390625 14.78125 -11.582031 18.558594 -12.351562 Z M 14.878906 -0.191406 C 10.878906 -0.191406 8.511719 -1.28125 8.511719 -3.230469 C 8.511719 -5.183594 10.878906 -6.238281 14.878906 -6.238281 C 18.878906 -6.238281 21.246094 -5.183594 21.246094 -3.230469 C 21.246094 -1.28125 18.878906 -0.191406 14.878906 -0.191406 Z M 14.878906 -8.894531 C 8.957031 -8.894531 5.246094 -6.75 5.246094 -3.230469 C 5.246094 0.320312 8.957031 2.496094 14.878906 2.496094 C 20.796875 2.496094 24.507812 0.320312 24.507812 -3.230469 C 24.507812 -6.75 20.796875 -8.894531 14.878906 -8.894531 Z M 24.253906 -19.230469 L 24.253906 -26.429688 L 20.894531 -26.429688 L 20.894531 -9.46875 L 24.253906 -9.46875 L 24.253906 -16.507812 L 28.285156 -16.507812 L 28.285156 -19.230469 Z M 24.253906 -19.230469 "/></g></g></g><g fill="#ffffff" fill-opacity="1"><g transform="translate(792.92419, 684.867349)"><g><path d="M 25.4375 -26.394531 L 22.140625 -26.394531 L 22.140625 -5.277344 L 25.4375 -5.277344 Z M 19.132812 -12.445312 C 14.6875 -13.980469 12.15625 -17.851562 12.15625 -21.949219 L 12.15625 -24.828125 L 8.796875 -24.828125 L 8.796875 -21.949219 C 8.796875 -17.726562 6.269531 -13.597656 1.726562 -11.933594 L 3.421875 -9.277344 C 6.816406 -10.558594 9.214844 -13.183594 10.527344 -16.414062 C 11.773438 -13.40625 14.140625 -11.039062 17.4375 -9.824219 Z M 9.886719 -0.769531 L 9.886719 -7.261719 L 6.558594 -7.261719 L 6.558594 1.917969 L 26.269531 1.917969 L 26.269531 -0.769531 Z M 9.886719 -0.769531 "/></g></g></g><g fill="#ffffff" fill-opacity="1"><g transform="translate(822.356949, 684.867349)"><g><path d="M 10.941406 -24.414062 C 6.429688 -24.414062 3.101562 -21.566406 3.101562 -17.46875 C 3.101562 -13.375 6.429688 -10.527344 10.941406 -10.527344 C 15.453125 -10.527344 18.8125 -13.375 18.8125 -17.46875 C 18.8125 -21.566406 15.453125 -24.414062 10.941406 -24.414062 Z M 10.941406 -21.597656 C 13.628906 -21.597656 15.582031 -19.996094 15.582031 -17.46875 C 15.582031 -14.972656 13.628906 -13.34375 10.941406 -13.34375 C 8.285156 -13.34375 6.335938 -14.972656 6.335938 -17.46875 C 6.335938 -19.996094 8.285156 -21.597656 10.941406 -21.597656 Z M 22.078125 -26.460938 L 22.078125 2.496094 L 25.402344 2.496094 L 25.402344 -26.460938 Z M 2.175781 -3.617188 C 7.292969 -3.617188 14.207031 -3.679688 20.574219 -4.894531 L 20.347656 -7.292969 C 14.140625 -6.367188 6.941406 -6.335938 1.757812 -6.335938 Z M 2.175781 -3.617188 "/></g></g></g><g fill="#ffffff" fill-opacity="1"><g transform="translate(851.789709, 684.867349)"><g/></g></g><g fill="#ffffff" fill-opacity="1"><g transform="translate(858.987939, 684.867349)"><g><path d="M 25.4375 -26.394531 L 22.140625 -26.394531 L 22.140625 -5.152344 L 25.4375 -5.152344 Z M 19.484375 -11.519531 C 15.039062 -12.828125 12.414062 -16.15625 12.414062 -19.707031 L 12.414062 -20.1875 L 18.621094 -20.1875 L 18.621094 -22.8125 L 12.414062 -22.8125 L 12.414062 -26.300781 L 9.117188 -26.300781 L 9.117188 -22.8125 L 2.847656 -22.8125 L 2.847656 -20.1875 L 9.117188 -20.1875 L 9.117188 -19.707031 C 9.117188 -15.933594 6.527344 -12.414062 2.046875 -11.007812 L 3.648438 -8.414062 C 7.070312 -9.535156 9.535156 -11.839844 10.8125 -14.78125 C 12.125 -12.0625 14.589844 -9.949219 17.949219 -8.925781 Z M 9.886719 -0.769531 L 9.886719 -7.101562 L 6.558594 -7.101562 L 6.558594 1.917969 L 26.269531 1.917969 L 26.269531 -0.769531 Z M 9.886719 -0.769531 "/></g></g></g><g fill="#ffffff" fill-opacity="1"><g transform="translate(888.420699, 684.867349)"><g><path d="M 17.148438 -20.222656 L 17.148438 -17.535156 L 22.238281 -17.535156 L 22.238281 -11.613281 L 25.5625 -11.613281 L 25.5625 -26.429688 L 22.238281 -26.429688 L 22.238281 -20.222656 Z M 18.683594 -14.332031 C 14.429688 -15.675781 11.933594 -18.878906 11.933594 -22.140625 L 11.933594 -22.460938 L 17.980469 -22.460938 L 17.980469 -25.117188 L 2.527344 -25.117188 L 2.527344 -22.460938 L 8.605469 -22.460938 L 8.605469 -22.171875 C 8.605469 -18.75 5.984375 -15.164062 1.566406 -13.695312 L 3.167969 -11.132812 C 6.558594 -12.222656 9.023438 -14.589844 10.300781 -17.46875 C 11.550781 -14.878906 13.917969 -12.796875 17.148438 -11.773438 Z M 10.046875 -0.414062 L 10.046875 -2.976562 L 25.5625 -2.976562 L 25.5625 -10.300781 L 6.75 -10.300781 L 6.75 -7.710938 L 22.300781 -7.710938 L 22.300781 -5.40625 L 6.78125 -5.40625 L 6.78125 2.175781 L 26.523438 2.175781 L 26.523438 -0.414062 Z M 10.046875 -0.414062 "/></g></g></g><g fill="#ffffff" fill-opacity="1"><g transform="translate(917.853458, 684.867349)"><g><path d="M 18.71875 -23.132812 L 11.839844 -23.132812 L 11.839844 -26.460938 L 8.542969 -26.460938 L 8.542969 -23.132812 L 1.664062 -23.132812 L 1.664062 -20.507812 L 18.71875 -20.507812 Z M 6.335938 -13.695312 C 6.335938 -15.515625 7.902344 -16.605469 10.175781 -16.605469 C 12.476562 -16.605469 14.046875 -15.515625 14.046875 -13.695312 C 14.046875 -11.871094 12.476562 -10.78125 10.175781 -10.78125 C 7.902344 -10.78125 6.335938 -11.871094 6.335938 -13.695312 Z M 17.179688 -13.695312 C 17.179688 -16.957031 14.332031 -19.164062 10.175781 -19.164062 C 6.046875 -19.164062 3.167969 -16.957031 3.167969 -13.695312 C 3.167969 -10.398438 6.046875 -8.222656 10.175781 -8.222656 C 14.332031 -8.222656 17.179688 -10.398438 17.179688 -13.695312 Z M 9.214844 -6.429688 L 5.886719 -6.429688 L 5.886719 1.917969 L 25.339844 1.917969 L 25.339844 -0.769531 L 9.214844 -0.769531 Z M 24.1875 -17.214844 L 24.1875 -26.429688 L 20.894531 -26.429688 L 20.894531 -4.765625 L 24.1875 -4.765625 L 24.1875 -14.492188 L 28.285156 -14.492188 L 28.285156 -17.214844 Z M 24.1875 -17.214844 "/></g></g></g><g fill="#ffffff" fill-opacity="1"><g transform="translate(947.286218, 684.867349)"><g/></g></g><g fill="#ffffff" fill-opacity="1"><g transform="translate(954.484448, 684.867349)"><g><path d="M 22.078125 -26.460938 L 22.078125 2.527344 L 25.402344 2.527344 L 25.402344 -26.460938 Z M 10.015625 -24.316406 C 5.726562 -24.316406 2.589844 -20.347656 2.589844 -14.140625 C 2.589844 -7.871094 5.726562 -3.933594 10.015625 -3.933594 C 14.332031 -3.933594 17.46875 -7.871094 17.46875 -14.140625 C 17.46875 -20.347656 14.332031 -24.316406 10.015625 -24.316406 Z M 10.015625 -21.339844 C 12.542969 -21.339844 14.300781 -18.621094 14.300781 -14.140625 C 14.300781 -9.597656 12.542969 -6.878906 10.015625 -6.878906 C 7.519531 -6.878906 5.757812 -9.597656 5.757812 -14.140625 C 5.757812 -18.621094 7.519531 -21.339844 10.015625 -21.339844 Z M 10.015625 -21.339844 "/></g></g></g><g fill="#ffffff" fill-opacity="1"><g transform="translate(983.917207, 684.867349)"><g><path d="M 14.6875 -23.546875 C 19.003906 -23.546875 21.566406 -22.523438 21.566406 -20.699219 C 21.566406 -18.84375 19.003906 -17.820312 14.6875 -17.820312 C 10.367188 -17.820312 7.773438 -18.84375 7.773438 -20.699219 C 7.773438 -22.523438 10.367188 -23.546875 14.6875 -23.546875 Z M 14.6875 -15.292969 C 21.019531 -15.292969 24.988281 -17.308594 24.988281 -20.699219 C 24.988281 -24.058594 21.019531 -26.074219 14.6875 -26.074219 C 8.351562 -26.074219 4.382812 -24.058594 4.382812 -20.699219 C 4.382812 -17.308594 8.351562 -15.292969 14.6875 -15.292969 Z M 16.316406 -6.527344 L 12.894531 -6.527344 L 12.894531 -5.792969 C 12.894531 -3.101562 9.085938 -0.671875 3.390625 -0.128906 L 4.480469 2.367188 C 9.152344 1.886719 12.828125 0.160156 14.589844 -2.335938 C 16.347656 0.222656 20.0625 1.886719 24.765625 2.367188 L 25.820312 -0.128906 C 20.0625 -0.640625 16.316406 -3.007812 16.316406 -5.792969 Z M 1.601562 -13.4375 L 1.601562 -10.78125 L 12.988281 -10.78125 L 12.988281 -7.808594 L 16.285156 -7.808594 L 16.285156 -10.78125 L 27.804688 -10.78125 L 27.804688 -13.4375 Z M 1.601562 -13.4375 "/></g></g></g><g fill="#ffffff" fill-opacity="1"><g transform="translate(1013.349967, 684.867349)"><g><path d="M 19.453125 -13.726562 C 15.003906 -15.070312 12.382812 -18.398438 12.382812 -21.917969 L 12.382812 -22.042969 L 18.558594 -22.042969 L 18.558594 -24.699219 L 2.75 -24.699219 L 2.75 -22.042969 L 9.023438 -22.042969 L 9.023438 -21.917969 C 9.023438 -18.207031 6.398438 -14.652344 1.855469 -13.246094 L 3.519531 -10.65625 C 6.976562 -11.773438 9.4375 -14.109375 10.75 -17.054688 C 12.0625 -14.332031 14.527344 -12.191406 17.851562 -11.167969 Z M 22.171875 -0.542969 L 9.824219 -0.542969 L 9.824219 -3.742188 L 22.171875 -3.742188 Z M 22.171875 -6.335938 L 9.824219 -6.335938 L 9.824219 -9.4375 L 6.558594 -9.4375 L 6.558594 2.113281 L 25.4375 2.113281 L 25.4375 -9.4375 L 22.171875 -9.4375 Z M 22.140625 -26.460938 L 22.140625 -10.75 L 25.4375 -10.75 L 25.4375 -26.460938 Z M 22.140625 -26.460938 "/></g></g></g><g fill="#ffffff" fill-opacity="1"><g transform="translate(1042.782726, 684.867349)"><g/></g></g><g fill="#ffffff" fill-opacity="1"><g transform="translate(1049.980968, 684.867349)"><g><path d="M 2.6875 -22.78125 L 2.6875 -20.09375 L 10.78125 -20.09375 C 10.335938 -14.269531 7.710938 -9.535156 1.472656 -5.917969 L 3.390625 -3.582031 C 11.519531 -8.253906 14.046875 -15.070312 14.046875 -22.78125 Z M 23.070312 -26.429688 L 23.070312 -15.132812 L 19.773438 -15.132812 L 19.773438 -25.660156 L 16.667969 -25.660156 L 16.667969 1.121094 L 19.773438 1.121094 L 19.773438 -12.445312 L 23.070312 -12.445312 L 23.070312 2.464844 L 26.203125 2.464844 L 26.203125 -26.429688 Z M 23.070312 -26.429688 "/></g></g></g><g fill="#ffffff" fill-opacity="1"><g transform="translate(1079.413728, 684.867349)"><g><path d="M 12.988281 -15.199219 L 5.917969 -15.199219 L 5.917969 -18.878906 L 12.988281 -18.878906 Z M 16.253906 -25.210938 L 12.988281 -25.210938 L 12.988281 -21.40625 L 5.917969 -21.40625 L 5.917969 -25.210938 L 2.625 -25.210938 L 2.625 -12.574219 L 16.253906 -12.574219 Z M 8.832031 -2.945312 L 24.1875 -2.945312 L 24.1875 -10.335938 L 5.535156 -10.335938 L 5.535156 -7.773438 L 20.925781 -7.773438 L 20.925781 -5.375 L 5.597656 -5.375 L 5.597656 2.207031 L 25.148438 2.207031 L 25.148438 -0.382812 L 8.832031 -0.382812 Z M 24.1875 -20.507812 L 24.1875 -26.429688 L 20.894531 -26.429688 L 20.894531 -11.613281 L 24.1875 -11.613281 L 24.1875 -17.789062 L 28.25 -17.789062 L 28.25 -20.507812 Z M 24.1875 -20.507812 "/></g></g></g><g fill="#ffffff" fill-opacity="1"><g transform="translate(1108.846487, 684.867349)"><g><path d="M 11.742188 -20.828125 L 17.851562 -20.828125 L 17.851562 -23.546875 L 2.144531 -23.546875 L 2.144531 -20.828125 L 8.445312 -20.828125 L 8.445312 -18.046875 C 8.445312 -13.246094 5.503906 -7.773438 1.085938 -5.664062 L 2.976562 -3.039062 C 6.304688 -4.671875 8.863281 -8.125 10.140625 -12.15625 C 11.453125 -8.511719 13.917969 -5.3125 17.148438 -3.777344 L 18.972656 -6.367188 C 14.589844 -8.445312 11.742188 -13.566406 11.742188 -18.046875 Z M 28.507812 -15.039062 L 23.996094 -15.039062 L 23.996094 -26.429688 L 20.699219 -26.429688 L 20.699219 2.464844 L 23.996094 2.464844 L 23.996094 -12.316406 L 28.507812 -12.316406 Z M 28.507812 -15.039062 "/></g></g></g><g fill="#ffffff" fill-opacity="1"><g transform="translate(1138.279247, 684.867349)"><g><path d="M 12.285156 -9.308594 C 13.917969 -9.308594 15.613281 -10.269531 17.054688 -12.703125 L 15.070312 -14.171875 C 14.238281 -12.734375 13.375 -12 12.351562 -12 C 10.335938 -12 8.894531 -14.972656 6.015625 -14.972656 C 4.382812 -14.972656 2.6875 -14.015625 1.214844 -11.550781 L 3.230469 -10.109375 C 4 -11.582031 4.925781 -12.253906 5.949219 -12.253906 C 7.964844 -12.253906 9.375 -9.308594 12.285156 -9.308594 Z M 12.285156 -9.308594 "/></g></g></g></svg>