<svg xmlns="http://www.w3.org/2000/svg" xmlns:xlink="http://www.w3.org/1999/xlink" width="1000" zoomAndPan="magnify" viewBox="0 0 750 225" height="300" preserveAspectRatio="xMidYMid meet" version="1.0"><defs><g/><clipPath id="e84ca04a50"><path d="M 8 53 L 746 53 L 746 220 L 8 220 Z M 8 53 " clip-rule="nonzero"/></clipPath><clipPath id="7724d832a8"><path d="M 24.3125 -23.367188 L 745.859375 53.917969 L 721.550781 280.878906 L 0.00390625 203.597656 Z M 24.3125 -23.367188 " clip-rule="nonzero"/></clipPath><clipPath id="55fd5cdaec"><path d="M 24.3125 -23.367188 L 745.859375 53.917969 L 721.550781 280.878906 L 0.00390625 203.597656 Z M 24.3125 -23.367188 " clip-rule="nonzero"/></clipPath><clipPath id="700c0fda18"><path d="M 53 8 L 654 8 L 654 169 L 53 169 Z M 53 8 " clip-rule="nonzero"/></clipPath><clipPath id="cd642d04d9"><path d="M 647.464844 210.121094 L 48.90625 165.402344 L 63.546875 -30.558594 L 662.105469 14.164062 Z M 647.464844 210.121094 " clip-rule="nonzero"/></clipPath><clipPath id="e0cba12675"><path d="M 647.464844 210.121094 L 48.90625 165.402344 L 63.546875 -30.558594 L 662.105469 14.164062 Z M 647.464844 210.121094 " clip-rule="nonzero"/></clipPath><clipPath id="7b94753087"><path d="M 207 33 L 234 33 L 234 69 L 207 69 Z M 207 33 " clip-rule="nonzero"/></clipPath><clipPath id="46a1e6fec1"><path d="M 211.546875 72.75 L 196.386719 47.734375 L 223.964844 31.019531 L 239.125 56.03125 Z M 211.546875 72.75 " clip-rule="nonzero"/></clipPath><clipPath id="76b4566c87"><path d="M 211.546875 72.75 L 196.386719 47.734375 L 223.964844 31.019531 L 239.125 56.03125 Z M 211.546875 72.75 " clip-rule="nonzero"/></clipPath><clipPath id="e469df3fe2"><path d="M 604 94 L 750 94 L 750 215 L 604 215 Z M 604 94 " clip-rule="nonzero"/></clipPath><clipPath id="d2a3346abb"><path d="M 764.214844 121.414062 L 739.484375 225 L 590.667969 189.472656 L 615.398438 85.882812 Z M 764.214844 121.414062 " clip-rule="nonzero"/></clipPath><clipPath id="183b2ecfe8"><path d="M 764.214844 121.414062 L 739.484375 225 L 590.667969 189.472656 L 615.398438 85.882812 Z M 764.214844 121.414062 " clip-rule="nonzero"/></clipPath><clipPath id="5c75486de1"><path d="M 558 162 L 619 162 L 619 188 L 558 188 Z M 558 162 " clip-rule="nonzero"/></clipPath><clipPath id="aacae6d98a"><path d="M 615.195312 155.570312 L 620.808594 172.671875 L 560.953125 192.324219 L 555.339844 175.21875 Z M 615.195312 155.570312 " clip-rule="nonzero"/></clipPath><clipPath id="04426539f3"><path d="M 615.195312 155.570312 L 620.808594 172.671875 L 560.953125 192.324219 L 555.339844 175.21875 Z M 615.195312 155.570312 " clip-rule="nonzero"/></clipPath><clipPath id="b3d1c1cb5a"><path d="M 72 129 L 107 129 L 107 186 L 72 186 Z M 72 129 " clip-rule="nonzero"/></clipPath><clipPath id="bec8fbf65d"><path d="M 59.949219 142.980469 L 105.984375 127.933594 L 120.167969 171.324219 L 74.136719 186.375 Z M 59.949219 142.980469 " clip-rule="nonzero"/></clipPath><clipPath id="943a5931c3"><path d="M 59.949219 142.980469 L 105.984375 127.933594 L 120.167969 171.324219 L 74.136719 186.375 Z M 59.949219 142.980469 " clip-rule="nonzero"/></clipPath><clipPath id="505f5a1f7e"><path d="M 31 111 L 52 111 L 52 144 L 31 144 Z M 31 111 " clip-rule="nonzero"/></clipPath><clipPath id="d4976d41d2"><path d="M 31.125 111.613281 L 51.769531 111.558594 L 51.851562 144.113281 L 31.207031 144.164062 Z M 31.125 111.613281 " clip-rule="nonzero"/></clipPath><clipPath id="f919adf02e"><path d="M 31.125 111.613281 L 113.300781 111.402344 L 113.382812 143.953125 L 31.207031 144.164062 Z M 31.125 111.613281 " clip-rule="nonzero"/></clipPath><clipPath id="db8ea486a2"><path d="M 52 125 L 68 125 L 68 155 L 52 155 Z M 52 125 " clip-rule="nonzero"/></clipPath><clipPath id="2411e819d7"><path d="M 52.035156 125.296875 L 67.914062 125.257812 L 67.988281 154.632812 L 52.109375 154.671875 Z M 52.035156 125.296875 " clip-rule="nonzero"/></clipPath><clipPath id="2d296e846a"><path d="M -14.179688 125.464844 L 67.996094 125.257812 L 68.078125 157.808594 L -14.09375 158.019531 Z M -14.179688 125.464844 " clip-rule="nonzero"/></clipPath></defs><g clip-path="url(#e84ca04a50)"><g clip-path="url(#7724d832a8)"><g clip-path="url(#55fd5cdaec)"><path fill="#e83f64" d="M 24.023438 147.429688 C 20.382812 147.792969 16.433594 148.269531 14.105469 147.570312 C 18.074219 146.945312 21.074219 146.964844 24.023438 147.429688 Z M 24.171875 147.445312 C 24.171875 147.445312 24.023438 147.429688 24.171875 147.445312 C 24.023438 147.429688 24.171875 147.445312 24.171875 147.445312 Z M 739.855469 53.945312 C 740.910156 53.90625 741.960938 53.871094 742.867188 53.816406 C 741.960938 53.871094 740.910156 53.90625 739.855469 53.945312 Z M 404.710938 109.429688 C 404.859375 109.445312 404.859375 109.445312 405.007812 109.460938 C 404.859375 109.445312 404.710938 109.429688 404.710938 109.429688 Z M 525.53125 97.910156 C 525.53125 97.910156 525.382812 97.894531 525.382812 97.894531 C 525.367188 98.042969 525.382812 97.894531 525.53125 97.910156 Z M 745.742188 55.023438 C 745.046875 54.5 740.398438 54.453125 737.816406 54.777344 L 737.390625 55.929688 C 731.625 56.515625 735.953125 55.328125 730.386719 55.480469 C 730.035156 54.542969 735.324219 54.210938 739.839844 54.09375 C 735.636719 54.09375 731.5 53.5 729.890625 54.527344 C 726.015625 54.261719 730.3125 53.371094 725.550781 53.011719 C 722.207031 53.40625 717.910156 54.292969 714.054688 53.882812 L 714.070312 53.734375 C 704.707031 52.878906 699.789062 55.355469 691.320312 54.597656 L 692.257812 54.246094 C 689.304688 53.78125 683.363281 54.644531 677.855469 54.207031 C 679.339844 54.363281 680.777344 54.96875 677.449219 55.210938 C 671.1875 54.84375 666.921875 55.4375 662.339844 54.792969 L 658.027344 55.832031 C 652.621094 55.855469 643.117188 56.335938 631.667969 56.761719 C 620.21875 57.1875 606.796875 57.847656 593.371094 58.511719 C 586.582031 58.835938 579.945312 59.175781 573.453125 59.53125 C 566.964844 59.882812 560.789062 60.125 555.039062 60.558594 C 543.558594 61.277344 534.203125 61.777344 528.765625 62.09375 L 529.6875 61.894531 C 525.457031 62.191406 520.777344 62.441406 515.800781 62.65625 C 510.664062 63.007812 505.226562 63.324219 499.332031 63.746094 C 493.582031 64.179688 487.40625 64.417969 481.210938 64.804688 C 475.019531 65.191406 468.675781 65.5625 462.320312 66.082031 C 449.621094 66.972656 436.757812 67.996094 425.113281 68.847656 C 413.449219 69.851562 402.695312 70.800781 394.183594 71.839844 C 388.839844 71.265625 381.5625 71.988281 375.992188 72.140625 C 379.125 72.328125 378.15625 72.972656 375.734375 73.164062 C 358.949219 74.367188 374.601562 73.941406 357.621094 75.574219 C 352.761719 76.105469 344.414062 77.011719 334.28125 77.726562 C 329.292969 78.09375 323.839844 78.558594 318.09375 78.992188 C 312.492188 79.445312 306.597656 79.863281 300.683594 80.429688 C 294.785156 80.847656 289.039062 81.285156 283.4375 81.734375 C 277.839844 82.183594 272.535156 82.667969 267.542969 83.03125 C 257.710938 83.78125 249.707031 84.273438 245.472656 84.570312 C 236.238281 86.734375 224.507812 86.976562 215.46875 88.710938 L 216.410156 88.359375 C 213.972656 88.699219 208.652344 89.328125 201.832031 89.949219 C 198.492188 90.34375 194.703125 90.6875 190.765625 91.015625 C 186.828125 91.34375 182.730469 91.804688 178.480469 92.25 C 170.144531 93.007812 161.796875 93.914062 154.8125 94.667969 C 151.324219 95.042969 148.144531 95.304688 145.558594 95.625 C 142.972656 95.949219 140.847656 96.171875 139.464844 96.472656 L 140.964844 96.484375 C 131.152344 98.433594 132.367188 96.914062 124.359375 97.40625 C 125.570312 98.738281 117.109375 100.683594 113.914062 101.089844 L 113.945312 100.792969 C 109.070312 101.472656 98.140625 104.050781 90.058594 105.285156 L 90.300781 104.414062 C 83.652344 106.25 70.921875 107.4375 66.195312 108.132812 C 55.128906 109.199219 37.78125 110.042969 23.195312 113.128906 L 13.257812 112.066406 L 11.859375 112.515625 C 11.859375 112.515625 8.957031 120.007812 8.558594 127.917969 C 8.160156 135.828125 10.417969 144.171875 20.589844 145.863281 L 20.347656 146.738281 L 24.167969 146.097656 C 28.84375 145.847656 30.769531 144.703125 30.6875 145.445312 L 24.316406 146.113281 C 29.007812 145.714844 25.765625 146.566406 24.039062 147.28125 C 26.015625 147.042969 27.828125 146.9375 29.476562 146.964844 C 30.28125 146.449219 28.75 146.738281 28.007812 146.65625 C 30.476562 146.019531 33.75 144.871094 36.914062 144.761719 C 41.625 144.214844 37.378906 146.011719 42.996094 145.410156 C 57.585938 143.671875 71.980469 142.363281 86.554688 140.773438 C 93.835938 140.054688 100.984375 139.167969 108.261719 138.449219 C 115.542969 137.726562 122.835938 136.855469 130.296875 135.855469 C 131.023438 136.082031 130.265625 136.152344 129.328125 136.503906 C 133.757812 135.777344 138.019531 135.183594 141.972656 134.707031 C 146.089844 134.097656 150.042969 133.617188 154.160156 133.007812 C 156.398438 133.101562 157.09375 133.625 157.820312 133.851562 C 157.09375 133.625 168.355469 132.128906 179.753906 130.800781 C 185.53125 130.066406 191.296875 129.484375 195.695312 129.054688 C 200.09375 128.625 203.121094 128.351562 203.269531 128.367188 L 203.726562 126.914062 C 212.519531 126.054688 206.417969 128.402344 214.503906 127.167969 C 217.457031 124.785156 227.976562 126.0625 230.6875 124.550781 C 230.671875 124.699219 234.609375 124.371094 234.378906 125.097656 C 235.414062 123.855469 238.496094 124.488281 240.964844 123.851562 C 241.902344 123.5 240.238281 123.625 239.53125 123.246094 L 245.175781 122.351562 C 247.417969 122.441406 248.097656 123.113281 245.660156 123.453125 C 249.433594 123.257812 256.695312 122.683594 265.933594 121.875 C 275.011719 121.195312 286.0625 120.277344 296.949219 119.492188 C 307.984375 118.726562 318.886719 117.792969 328.277344 116.996094 C 337.515625 116.1875 345.078125 115.644531 349.175781 115.183594 C 347 114.5 342.09375 115.476562 340.128906 114.214844 C 344.292969 113.160156 346.453125 113.992188 348.210938 112.980469 C 349.964844 114.820312 357.703125 112.644531 361.101562 114.511719 L 362.285156 113.289062 L 364.476562 113.820312 C 373.78125 112.417969 374.851562 112.230469 375.757812 112.179688 C 376.515625 112.109375 377.09375 112.324219 385.542969 111.878906 C 395.078125 111.097656 399.488281 109.167969 404.875 109.296875 C 403.984375 109.199219 402.382812 108.730469 404.671875 108.375 C 405.171875 109.328125 411.257812 107.128906 412.648438 108.179688 C 415.082031 107.839844 423.074219 107.492188 420.203125 106.285156 C 421.636719 106.890625 428.71875 106.597656 424.574219 107.503906 C 426.976562 107.460938 429.234375 107.402344 431.078125 107 L 427.945312 106.816406 C 435.984375 106.027344 440.550781 106.816406 445.667969 105.261719 L 442.703125 104.945312 C 447.542969 104.5625 451.628906 104.25 453.609375 105.363281 L 448.738281 106.042969 C 456.742188 105.546875 461.582031 105.167969 468.167969 103.921875 L 465.765625 103.964844 C 469.929688 102.910156 483.269531 101.636719 496.328125 100.183594 C 502.851562 99.53125 509.535156 98.75 514.855469 98.117188 C 520.324219 97.503906 524.4375 96.894531 526.445312 96.359375 L 522.785156 95.515625 L 529.519531 94.285156 C 528.761719 94.355469 526.796875 97.296875 526.023438 97.511719 C 529.648438 97.300781 537.042969 96.894531 546.101562 96.363281 C 550.78125 96.113281 555.917969 95.765625 561.191406 95.578125 C 564.207031 95.449219 567.21875 95.324219 570.382812 95.210938 C 569.460938 95.414062 568.554688 95.46875 567.78125 95.683594 C 564.71875 96.257812 562.445312 96.464844 562.445312 96.464844 L 562.289062 97.945312 C 556.03125 98.925781 560.191406 96.523438 554.496094 97.863281 C 552.578125 100.359375 544.910156 99.085938 543.121094 100.394531 C 543.136719 100.246094 540.253906 100.539062 540.316406 99.945312 C 539.582031 101.214844 537.386719 100.679688 535.691406 101.101562 C 535.050781 101.480469 536.269531 101.3125 536.683594 101.65625 L 532.683594 102.578125 C 531.050781 102.402344 530.519531 101.746094 532.199219 101.476562 C 529.46875 101.785156 524.3125 102.28125 517.640625 102.917969 C 511.121094 103.570312 503.230469 104.375 495.359375 105.03125 C 487.484375 105.691406 479.449219 106.480469 472.792969 106.96875 C 466.125 107.605469 460.671875 108.070312 457.773438 108.511719 C 459.34375 109.277344 462.898438 108.308594 464.417969 109.523438 C 461.457031 110.554688 459.90625 109.636719 458.605469 110.550781 C 457.3125 108.609375 451.6875 110.707031 449.191406 108.789062 L 448.457031 110.0625 L 446.871094 109.441406 C 433.273438 111.738281 443.777344 110.3125 431.703125 110.96875 C 424.867188 111.738281 421.53125 113.480469 417.660156 113.214844 C 418.25 113.28125 419.554688 113.71875 417.859375 114.136719 C 417.511719 113.199219 413.085938 115.277344 412.144531 114.277344 C 410.316406 114.53125 404.582031 114.816406 406.695312 116.09375 C 405.707031 115.539062 400.449219 115.574219 403.527344 114.855469 C 401.71875 114.960938 400.070312 114.933594 398.835938 115.25 L 401.058594 115.488281 C 395.132812 116.207031 391.914062 115.410156 388.164062 116.808594 L 390.375 117.195312 C 386.882812 117.574219 383.851562 117.847656 382.480469 116.652344 L 386.003906 115.976562 C 380.105469 116.398438 376.613281 116.773438 371.839844 117.910156 L 373.652344 117.804688 C 370.558594 118.675781 360.945312 120.195312 351.34375 121.570312 C 346.617188 122.261719 341.726562 123.089844 337.90625 123.730469 C 333.925781 124.503906 330.863281 125.078125 329.449219 125.675781 L 332.21875 126.421875 L 327.429688 127.710938 C 328.039062 127.625 329.246094 124.753906 329.886719 124.371094 C 327.152344 124.679688 321.851562 125.160156 315.164062 125.945312 C 311.820312 126.339844 308.03125 126.683594 304.082031 127.160156 C 300.128906 127.636719 296.027344 128.097656 292.074219 128.574219 C 290.097656 128.8125 287.976562 129.035156 286 129.273438 C 284.023438 129.511719 282.046875 129.75 280.070312 129.988281 C 276.117188 130.46875 272.460938 130.976562 269.121094 131.367188 C 262.417969 132.300781 257.097656 132.929688 254.675781 133.121094 C 250.625 133.136719 253.796875 131.527344 253.8125 131.378906 C 249.039062 132.519531 251.859375 132.820312 247.757812 133.28125 C 246.554688 133.304688 247.851562 132.390625 248.476562 132.160156 C 246.632812 132.5625 245.003906 132.386719 244.9375 132.980469 C 247.179688 133.070312 246.429688 134.488281 247.566406 135.0625 L 242.246094 135.691406 L 242.34375 134.800781 C 241.125 134.972656 239.667969 137.367188 234.511719 137.863281 C 230.101562 138.441406 225.671875 139.167969 221.078125 140.027344 C 216.484375 140.886719 212.039062 141.761719 207.609375 142.484375 C 207.65625 142.039062 209.382812 141.324219 211.246094 140.773438 C 210.027344 140.945312 208.332031 141.363281 207.144531 141.234375 C 209.351562 141.621094 203.558594 142.503906 205.351562 142.542969 C 202.328125 144.171875 198.789062 144.992188 195.117188 145.648438 C 191.59375 146.324219 188.070312 146.996094 185.390625 148.207031 C 185.296875 149.097656 184.109375 157.375 182.921875 165.648438 C 182.152344 171.421875 181.535156 177.207031 181.183594 180.46875 C 173.328125 180.976562 163.363281 181.5625 154.589844 183.621094 L 147.234375 182.234375 L 146.296875 182.585938 C 146.296875 182.585938 144.464844 189.890625 144.660156 197.863281 C 144.726562 205.675781 146.816406 214.152344 154.257812 216.148438 L 154.160156 217.039062 L 156.910156 216.582031 C 160.371094 216.503906 161.699219 215.292969 161.605469 216.183594 L 157.042969 216.746094 C 160.371094 216.503906 158.183594 217.320312 156.914062 217.933594 C 158.28125 217.78125 159.632812 217.773438 160.835938 217.753906 C 161.476562 217.371094 160.257812 217.542969 159.828125 217.34375 C 161.539062 216.777344 164.058594 215.699219 166.296875 215.789062 C 169.789062 215.410156 166.765625 217.039062 170.71875 216.5625 C 181.355469 215.300781 191.78125 214.617188 202.238281 213.636719 C 204.824219 213.3125 207.542969 213.152344 210.128906 212.828125 C 211.496094 212.675781 212.714844 212.507812 214.066406 212.5 C 215.433594 212.347656 216.632812 212.324219 218 212.171875 C 223.304688 211.691406 228.609375 211.207031 233.925781 210.578125 C 234.488281 210.9375 233.894531 210.875 233.269531 211.105469 C 236.480469 210.550781 239.511719 210.273438 242.558594 209.851562 C 244.074219 209.710938 245.457031 209.410156 246.972656 209.273438 C 248.484375 209.136719 249.851562 208.980469 251.382812 208.695312 C 253.015625 208.871094 253.5625 209.378906 254.125 209.738281 C 253.5625 209.378906 261.746094 208.605469 270.082031 207.847656 C 274.179688 207.386719 278.414062 207.089844 281.59375 206.828125 C 284.773438 206.570312 287.027344 206.511719 287.175781 206.527344 L 287.484375 205.058594 C 293.84375 204.539062 289.417969 206.617188 295.347656 205.902344 C 297.53125 203.734375 305.148438 205.449219 307.085938 204.15625 C 307.070312 204.304688 309.9375 204.164062 309.859375 204.90625 C 310.742188 203.648438 312.757812 204.464844 314.601562 204.0625 C 315.242188 203.679688 314.039062 203.703125 313.609375 203.503906 C 314.976562 203.351562 316.359375 203.050781 317.726562 202.894531 C 319.339844 203.21875 319.871094 203.875 318.058594 203.984375 C 320.761719 203.972656 326.179688 203.800781 332.804688 203.609375 C 339.425781 203.421875 347.414062 203.074219 355.371094 203.027344 C 363.347656 202.832031 371.304688 202.78125 378.074219 202.609375 C 381.386719 202.511719 384.53125 202.550781 387.101562 202.375 C 389.65625 202.347656 391.765625 202.273438 393.28125 202.136719 C 391.710938 201.367188 388.203125 201.890625 386.699219 200.53125 C 389.792969 199.660156 391.332031 200.726562 392.613281 199.964844 C 393.90625 201.902344 399.46875 200.398438 401.816406 202.300781 L 402.683594 201.191406 L 404.269531 201.8125 C 411.085938 201.191406 411.859375 200.976562 412.453125 201.039062 C 413.046875 201.101562 413.476562 201.296875 419.457031 201.488281 C 426.375 201.328125 429.683594 199.882812 433.539062 200.296875 C 432.945312 200.230469 431.824219 199.511719 433.339844 199.375 C 433.6875 200.3125 438.210938 198.695312 439.007812 199.679688 C 440.820312 199.574219 446.503906 199.734375 444.554688 198.324219 C 444.96875 198.667969 446.597656 198.84375 447.621094 199.101562 C 448.644531 199.363281 449.222656 199.574219 447.691406 199.859375 C 449.488281 199.902344 451.101562 200.226562 452.335938 199.910156 L 450.128906 199.523438 C 455.992188 199.398438 459.160156 200.640625 463.042969 199.40625 L 460.851562 198.871094 C 464.308594 198.789062 467.308594 198.8125 468.664062 200.15625 L 465.027344 200.515625 C 470.875 200.542969 474.316406 200.613281 479.191406 199.933594 L 477.394531 199.890625 C 478.167969 199.675781 479.371094 199.652344 480.886719 199.515625 C 482.402344 199.378906 484.214844 199.269531 486.175781 199.179688 C 490.242188 199.015625 495.054688 198.933594 499.734375 198.683594 C 504.542969 198.597656 509.371094 198.363281 513.289062 198.183594 C 517.210938 198.003906 520.375 197.890625 521.773438 197.441406 L 519.199219 196.265625 L 524.21875 195.601562 C 523.625 195.539062 521.988281 198.214844 521.363281 198.449219 C 524.050781 198.585938 529.273438 198.847656 535.996094 199.117188 C 539.425781 199.332031 543.164062 199.433594 547.039062 199.699219 C 550.910156 199.960938 554.933594 200.242188 558.953125 200.523438 C 566.996094 201.085938 575.039062 201.648438 581.730469 202.214844 C 588.40625 202.929688 593.597656 203.484375 595.953125 203.886719 C 599.75 204.894531 596.523438 205.597656 596.503906 205.746094 C 601.300781 205.808594 598.710938 204.78125 602.699219 205.359375 C 603.722656 205.621094 602.457031 206.234375 601.699219 206.300781 C 603.492188 206.34375 605.09375 206.816406 605.289062 206.386719 C 603.097656 205.851562 604.128906 204.613281 603.335938 203.628906 L 608.527344 204.183594 L 608.136719 205.042969 C 609.320312 205.167969 611.355469 202.984375 616.351562 203.972656 C 624.910156 205.335938 634.285156 206.042969 642.859375 207.261719 C 642.660156 207.6875 640.851562 207.796875 639.039062 207.902344 C 640.226562 208.027344 642.019531 208.070312 643.011719 208.628906 C 641.03125 207.515625 646.636719 208.414062 645.183594 207.960938 C 648.410156 207.253906 652.101562 207.800781 655.664062 208.179688 C 659.207031 208.710938 662.605469 209.226562 665.484375 208.933594 C 665.878906 208.074219 669.804688 200.84375 673.746094 193.460938 C 677.6875 186.082031 681.777344 178.71875 681.886719 177.679688 C 683.652344 178.019531 685.433594 178.207031 685.859375 178.40625 C 685.464844 177.910156 682.097656 177.101562 680.140625 177.191406 L 679.714844 178.347656 C 675.382812 178.183594 678.757812 177.492188 674.601562 177.050781 C 674.550781 176.144531 678.273438 176.390625 681.6875 176.757812 C 678.734375 176.292969 675.699219 175.214844 674.417969 175.980469 C 671.644531 175.230469 674.839844 174.824219 671.476562 174.011719 C 668.9375 173.890625 665.726562 174.449219 662.972656 173.550781 L 662.988281 173.402344 C 656.277344 171.636719 652.476562 173.480469 646.359375 171.773438 L 647.132812 171.554688 C 644.96875 170.722656 640.589844 171.003906 636.648438 169.984375 C 637.816406 170.257812 638.628906 171.09375 636.238281 170.988281 C 631.703125 169.902344 628.527344 170.164062 625.339844 169.070312 L 621.984375 169.613281 C 620.945312 169.5 619.757812 169.375 618.421875 169.230469 C 617.085938 169.089844 615.605469 168.929688 613.972656 168.753906 C 610.707031 168.40625 606.835938 168.140625 602.667969 167.84375 C 594.328125 167.25 584.371094 166.335938 574.535156 165.730469 C 569.605469 165.503906 564.695312 165.128906 559.917969 164.914062 C 555.136719 164.703125 550.523438 164.359375 546.335938 164.210938 C 537.96875 163.914062 530.945312 163.613281 526.925781 163.332031 L 527.535156 163.246094 C 524.550781 163.078125 520.960938 162.992188 517.234375 162.746094 C 513.496094 162.644531 509.457031 162.511719 505.125 162.347656 C 500.789062 162.183594 496.457031 162.019531 491.8125 161.972656 C 487.179688 161.777344 482.550781 161.582031 477.886719 161.679688 C 468.445312 161.570312 459.152344 161.476562 450.453125 161.445312 C 448.363281 161.371094 446.253906 161.445312 444.144531 161.519531 C 442.035156 161.59375 440.074219 161.683594 438.132812 161.625 C 434.226562 161.65625 430.75 161.882812 427.589844 161.996094 C 423.628906 161.121094 418.359375 161.308594 414.191406 161.011719 C 416.398438 161.398438 415.726562 162.074219 413.929688 162.035156 C 401.472656 162.050781 413.109375 162.695312 400.605469 163.15625 C 396.980469 163.371094 390.804688 163.609375 383.441406 163.71875 C 376.074219 163.832031 367.34375 164.097656 358.777344 164.230469 C 354.414062 164.363281 350.210938 164.363281 346.011719 164.363281 C 341.941406 164.527344 337.886719 164.542969 334.28125 164.605469 C 327.0625 164.734375 321.199219 164.855469 318.050781 164.820312 C 316.355469 165.238281 314.53125 165.492188 312.703125 165.746094 C 310.875 166 308.914062 166.089844 306.953125 166.179688 C 303.164062 166.523438 299.246094 166.707031 295.886719 167.246094 L 296.527344 166.863281 C 294.699219 167.117188 290.761719 167.449219 285.789062 167.664062 C 283.21875 167.839844 280.5 168 277.632812 168.140625 C 274.769531 168.285156 271.738281 168.5625 268.707031 168.835938 C 263.269531 169.15625 257.820312 169.621094 253.125 170.019531 C 254.195312 169.832031 255.414062 169.664062 256.484375 169.476562 C 264.570312 168.242188 274.035156 166.707031 283.472656 165.464844 C 302.507812 162.855469 321.660156 160.554688 329.550781 159.746094 L 328.921875 159.980469 C 340.78125 158.550781 358.964844 156.894531 377.292969 155.257812 C 395.625 153.621094 414.269531 151.867188 426.601562 150.1875 C 430.59375 150.761719 435.761719 150.117188 439.816406 150.101562 C 437.589844 149.863281 438.261719 149.183594 440.074219 149.078125 C 452.328125 148.140625 440.898438 148.417969 453.199219 147.03125 C 460.359375 146 477.621094 144.546875 494.585938 143.0625 C 498.835938 142.617188 503.066406 142.320312 507.167969 141.859375 C 511.253906 141.546875 515.207031 141.070312 518.828125 140.859375 C 525.945312 140.269531 531.859375 139.703125 535.035156 139.441406 C 541.71875 137.308594 550.300781 137.027344 556.949219 135.1875 L 556.308594 135.570312 C 558.152344 135.167969 561.972656 134.523438 566.992188 133.863281 C 569.429688 133.523438 572.179688 133.066406 575.078125 132.628906 C 577.976562 132.1875 581.039062 131.617188 584.085938 131.191406 C 587.148438 130.621094 590.191406 130.195312 593.089844 129.753906 C 596.003906 129.167969 598.753906 128.710938 601.355469 128.238281 C 603.957031 127.769531 606.261719 127.265625 608.105469 126.863281 C 610.097656 126.476562 611.496094 126.023438 612.566406 125.839844 L 611.363281 125.859375 C 618.375 123.460938 617.753906 125.042969 623.535156 124.3125 C 623.003906 123.65625 624.300781 122.746094 625.878906 122.011719 C 627.476562 121.132812 629.648438 120.464844 630.734375 120.132812 L 630.703125 120.429688 C 634.125 119.296875 641.96875 116.085938 647.714844 114.296875 L 647.765625 115.203125 C 650.132812 114.109375 653.558594 112.972656 656.800781 112.121094 C 658.496094 111.703125 660.058594 111.121094 661.441406 110.816406 C 662.839844 110.367188 664.074219 110.050781 665.011719 109.699219 C 667.019531 109.164062 669.324219 108.660156 671.792969 108.023438 C 673.027344 107.707031 674.261719 107.390625 675.644531 107.085938 C 676.878906 106.769531 678.277344 106.320312 679.660156 106.015625 C 682.441406 105.265625 685.089844 104.347656 687.886719 103.445312 C 689.285156 102.996094 690.683594 102.546875 691.949219 101.929688 C 693.21875 101.316406 694.617188 100.867188 695.882812 100.25 L 703.410156 100.007812 L 704.378906 99.359375 C 704.378906 99.359375 704.4375 97.417969 704.296875 94.550781 C 704.1875 92.738281 703.964844 90.613281 703.613281 88.324219 C 710.875 87.753906 718.902344 88.460938 724.730469 87.285156 C 725.378906 85.40625 740.835938 56 740.761719 53.890625 C 742.609375 54.839844 745.015625 54.796875 745.742188 55.023438 Z M 417.148438 113.761719 C 417.148438 113.761719 417 113.746094 417 113.746094 C 417 113.746094 417.148438 113.761719 417.148438 113.761719 Z M 329.199219 125.199219 C 329.199219 125.199219 329.347656 125.214844 329.347656 125.214844 C 329.214844 125.050781 329.214844 125.050781 329.199219 125.199219 Z M 148.714844 218.855469 C 150.449219 219.492188 153.328125 219.199219 156.046875 219.039062 C 153.871094 218.355469 151.628906 218.265625 148.714844 218.855469 Z M 156.0625 218.890625 Z M 683.058594 177.953125 C 682.316406 177.875 681.574219 177.796875 680.832031 177.714844 C 681.558594 177.945312 682.300781 178.023438 683.058594 177.953125 Z M 520.480469 199.703125 C 520.480469 199.703125 520.332031 199.6875 520.332031 199.6875 C 520.332031 199.6875 520.480469 199.703125 520.480469 199.703125 Z M 432.671875 201.402344 C 432.671875 201.402344 432.523438 201.386719 432.523438 201.386719 C 432.523438 201.386719 432.523438 201.386719 432.671875 201.402344 Z M 432.671875 201.402344 " fill-opacity="1" fill-rule="nonzero"/></g></g></g><g clip-path="url(#700c0fda18)"><g clip-path="url(#cd642d04d9)"><g clip-path="url(#e0cba12675)"><path fill="#e83f64" d="M 640.410156 50.792969 C 643.230469 50.496094 646.304688 50.21875 648.167969 50.867188 C 645.074219 51.398438 642.660156 51.34375 640.410156 50.792969 Z M 640.28125 50.785156 Z M 99.195312 168.457031 C 98.425781 168.527344 97.660156 168.597656 96.878906 168.792969 C 97.648438 168.722656 98.425781 168.527344 99.195312 168.457031 Z M 54.609375 123.121094 C 55.933594 124.109375 58.457031 124.425781 60.734375 124.59375 C 59.027344 123.578125 57.148438 123.183594 54.609375 123.121094 Z M 60.859375 124.605469 Z M 54.417969 101.847656 C 55.097656 97.824219 56.152344 93.957031 57.003906 91.09375 C 57.851562 88.226562 58.492188 86.492188 58.492188 86.492188 L 59.269531 86.296875 L 64.792969 89 C 65.941406 88.960938 66.964844 88.910156 68.113281 88.867188 C 69.261719 88.828125 70.398438 88.910156 71.546875 88.871094 C 73.835938 88.914062 76.113281 89.082031 78.382812 89.378906 C 82.800781 89.839844 86.96875 90.277344 90.257812 90.523438 C 91.660156 90.5 94.324219 90.570312 96.992188 90.644531 C 99.796875 90.597656 102.609375 90.425781 104.679688 89.945312 L 104.488281 90.820312 C 109.332031 90.675781 115.949219 89.003906 118.769531 88.707031 L 118.742188 89.085938 C 119.765625 89.035156 121.445312 88.652344 122.875 88.25 C 124.316406 87.71875 125.386719 87.035156 125.050781 86.375 C 129.746094 86.597656 128.988281 88.195312 134.921875 87.113281 L 134.046875 86.921875 C 134.941406 86.859375 136.101562 86.691406 137.753906 86.6875 C 139.292969 86.546875 141.210938 86.4375 143.253906 86.335938 C 145.296875 86.234375 147.59375 86.148438 150.015625 86.078125 C 152.441406 86.003906 154.871094 85.804688 157.296875 85.730469 C 159.71875 85.65625 162.277344 85.464844 164.574219 85.382812 C 166.882812 85.171875 169.179688 85.089844 171.222656 84.988281 C 175.316406 84.65625 178.394531 84.378906 179.941406 84.113281 L 179.40625 84.453125 C 184.726562 83.070312 191.824219 83.472656 197.316406 81.464844 C 199.867188 81.398438 204.722656 81.125 210.484375 80.664062 C 213.433594 80.375 216.632812 80.105469 219.960938 79.847656 C 223.300781 79.457031 226.753906 79.207031 230.34375 78.839844 C 234.0625 78.480469 237.789062 77.996094 241.25 77.617188 C 241.300781 76.984375 240.160156 76.898438 240.167969 76.773438 C 239.441406 77.992188 236.429688 75.730469 235.753906 77.972656 C 233.554688 78.441406 235.226562 76.53125 232.792969 76.730469 L 232.679688 78.25 C 232.433594 78.105469 219.65625 78.804688 220.117188 79.476562 C 219.890625 79.078125 219.675781 78.550781 219.0625 78.25 C 216.863281 78.722656 214.703125 78.6875 212.242188 79.269531 C 212.503906 79.160156 212.640625 79.042969 212.53125 78.78125 C 204.339844 79.441406 196.503906 78.730469 188.375 78.503906 C 186.847656 78.519531 187.972656 77.074219 186.699219 77.105469 C 185.832031 76.785156 184.878906 77.605469 184.21875 77.9375 C 184.460938 78.085938 184.84375 78.113281 184.6875 78.484375 C 184.199219 78.191406 183.695312 78.15625 183.1875 78.117188 C 183.605469 77.640625 184.539062 77.070312 183.273438 76.976562 L 185.054688 76.984375 C 185.121094 76.097656 184.527344 77.199219 183.28125 76.851562 L 182.25 77.027344 L 182.316406 76.140625 C 176.660156 70.117188 179.386719 40.410156 179.386719 40.410156 L 179.785156 40.183594 L 182.535156 42.554688 C 186.582031 41.199219 191.324219 42.445312 194.363281 42.671875 C 195.644531 42.515625 199.1875 42.777344 201.046875 41.773438 L 200.980469 42.660156 C 203.167969 42.3125 206.203125 40.882812 207.503906 40.472656 L 207.476562 40.851562 C 208.382812 40.664062 210.617188 39.6875 210.351562 38.140625 C 212.484375 38.554688 212.246094 40.0625 214.871094 38.984375 L 214.5 38.832031 C 217.601562 38.171875 232.960938 38.683594 235.558594 37.984375 L 235.277344 38.347656 C 237.769531 37.386719 241.011719 38.265625 243.546875 36.671875 C 248.335938 37.285156 268.960938 37.171875 274.261719 36.039062 C 278.894531 35.367188 274.601562 34.921875 279.195312 34.753906 C 279.828125 34.800781 280.136719 34.0625 279.269531 33.742188 C 280.777344 33.980469 282.839844 33.625 284.304688 34.5 C 293.605469 32.648438 312.238281 31.875 321.347656 30.902344 L 321.085938 31.011719 C 327.097656 30.570312 350.453125 27.984375 356.3125 27.914062 L 357.410156 26.851562 C 358.753906 27.585938 359.820312 26.902344 361.566406 27.414062 C 362.46875 27.226562 362.011719 26.558594 361.640625 26.402344 C 363.132812 26.894531 364.714844 26.125 365.574219 26.570312 L 365.292969 26.929688 C 367.640625 27.871094 368.851562 25.285156 371.460938 26.117188 L 371.453125 26.246094 C 372.550781 26.835938 373.648438 25.773438 374.5625 25.457031 C 375.8125 25.804688 374.730469 26.617188 375.84375 27.082031 C 376.308594 25.972656 377.398438 26.6875 378.546875 26.648438 C 377.261719 26.804688 375.84375 27.082031 376.019531 28.113281 C 377.558594 27.972656 376.449219 29.164062 378.015625 28.644531 L 378.109375 27.378906 C 378.773438 27.046875 380.15625 27.277344 380.242188 27.792969 C 380 27.648438 379.367188 27.601562 378.734375 27.550781 C 378.757812 28.953125 377.722656 41.097656 376.878906 50.707031 C 378.433594 50.316406 379.988281 49.921875 381.671875 49.539062 C 384.394531 48.851562 387.238281 48.300781 389.570312 47.710938 C 390.738281 47.417969 391.78125 47.113281 392.558594 46.914062 C 393.472656 46.601562 394.125 46.394531 394.523438 46.171875 L 393.5 46.222656 C 396.253906 45.15625 398.316406 44.800781 401.652344 44.414062 L 399.5625 45.148438 C 400.480469 46.488281 402.289062 46.113281 404.226562 45.75 L 402.851562 45.394531 C 404.871094 43.890625 406.976562 44.683594 410.332031 44.042969 L 408.949219 43.8125 C 409.621094 43.351562 410.625 43.554688 411.65625 43.378906 C 410.859375 43.828125 411.101562 43.972656 411.726562 44.148438 C 412.347656 44.320312 413.234375 44.386719 413.585938 44.796875 C 412.277344 43.550781 415.617188 43.164062 416.648438 42.988281 C 417.339844 43.929688 419.660156 41.8125 419.964844 42.851562 C 420.890625 42.414062 420.160156 41.976562 419.789062 41.820312 C 422.066406 41.992188 423.851562 40.214844 427.851562 39.496094 C 431.441406 39.128906 431.6875 39.273438 432.066406 39.300781 C 432.445312 39.332031 432.84375 39.105469 436.753906 37.871094 L 437.726562 38.453125 L 438.074219 37.207031 C 439.714844 39.109375 442.796875 37.046875 443.800781 38.90625 C 444.511719 37.941406 445.457031 38.902344 447.195312 37.757812 C 446.144531 36.535156 444.167969 37.40625 443.078125 36.6875 C 443.855469 36.492188 445.148438 36.207031 446.695312 35.941406 C 448.242188 35.671875 449.917969 35.417969 451.980469 35.0625 C 455.84375 34.460938 460.484375 33.660156 465.113281 32.988281 C 469.746094 32.316406 474.375 31.644531 478.238281 31.039062 C 482.101562 30.4375 485.1875 30.03125 486.859375 29.777344 C 485.820312 30.078125 486.277344 30.75 487.28125 30.953125 C 488.070312 30.628906 488.847656 30.433594 489.632812 30.109375 C 489.273438 29.828125 488.632812 29.90625 488.914062 29.546875 C 489.847656 28.980469 491.316406 29.726562 491.546875 28.34375 C 491.628906 28.984375 493.300781 28.730469 493.28125 28.980469 C 494.269531 27.65625 499.003906 29.027344 499.945312 26.679688 C 503.203125 25.648438 500.996094 27.902344 504.753906 27.039062 L 504.613281 25.5 C 504.738281 25.511719 506.023438 25.351562 507.832031 24.976562 C 509.640625 24.605469 512.105469 24.023438 514.4375 23.433594 C 519.234375 22.265625 523.785156 20.949219 523.425781 20.667969 C 523.785156 20.949219 524.136719 21.359375 525.140625 21.5625 C 525.925781 21.238281 526.832031 21.050781 527.621094 20.726562 C 528.398438 20.53125 529.3125 20.21875 530.089844 20.019531 C 531.78125 19.511719 533.476562 19 535.304688 18.375 C 535.03125 18.609375 534.644531 18.707031 535.003906 18.988281 C 538.117188 18.203125 541.101562 17.40625 544.207031 16.746094 C 544.984375 16.550781 545.761719 16.355469 546.53125 16.285156 C 547.308594 16.089844 548.085938 15.890625 548.855469 15.824219 C 550.402344 15.554688 551.832031 15.152344 553.378906 14.886719 C 559.460938 13.558594 565.519531 12.484375 571.609375 11.03125 C 573.945312 10.441406 572.410156 12.234375 574.484375 11.753906 C 575.882812 11.730469 577.117188 10.550781 578.050781 9.984375 C 577.679688 9.828125 577.03125 10.035156 577.3125 9.675781 C 578.070312 9.730469 578.839844 9.660156 579.617188 9.464844 C 579.054688 10.1875 577.847656 10.988281 579.785156 10.621094 L 577.1875 11.320312 C 577.25 12.214844 577.847656 10.988281 579.890625 10.886719 L 581.457031 10.367188 L 581.519531 11.261719 C 586.46875 13.160156 589.394531 21.652344 591.097656 29.542969 C 592.789062 37.5625 593.242188 45.105469 593.242188 45.105469 L 592.707031 45.449219 L 587.867188 43.8125 C 581.925781 46.679688 574.238281 47.378906 569.472656 48.167969 C 567.390625 48.777344 561.960938 49.898438 559.296875 51.480469 L 559.238281 50.585938 C 555.84375 51.730469 551.460938 54.207031 549.367188 54.941406 L 549.398438 54.558594 C 548.09375 54.972656 544.652344 56.75 545.433594 58.210938 C 541.96875 58.589844 542.21875 56.953125 538.136719 58.8125 L 538.894531 58.867188 C 538.242188 59.074219 537.457031 59.394531 536.296875 59.566406 C 535.132812 59.859375 533.835938 60.144531 532.289062 60.410156 C 529.3125 61.078125 525.695312 61.828125 522.085938 62.449219 C 520.277344 62.824219 518.464844 63.195312 516.792969 63.453125 C 515.109375 63.835938 513.4375 64.09375 512.015625 64.371094 C 509.046875 64.910156 506.851562 65.382812 505.800781 65.816406 L 506.082031 65.453125 C 504.234375 66.335938 501.917969 66.671875 499.710938 67.269531 C 498.804688 67.457031 497.765625 67.761719 496.859375 67.945312 C 499.285156 67.875 497.261719 69.378906 502.796875 68.519531 L 503.046875 66.882812 C 503.679688 66.929688 538.910156 62.050781 537.8125 61.460938 C 538.425781 61.761719 538.902344 62.175781 540.675781 62.308594 C 546.871094 61.117188 552.914062 60.296875 559.625 59.015625 C 558.976562 59.222656 558.332031 59.300781 558.945312 59.601562 C 581.597656 56.203125 603.375 54.265625 625.832031 51.742188 C 630.066406 51.292969 626.886719 52.96875 630.476562 52.597656 C 632.890625 52.652344 635.398438 51.4375 637.21875 50.9375 C 636.59375 50.765625 635.4375 50.933594 636.097656 50.601562 C 637.363281 50.695312 638.773438 50.546875 640.300781 50.53125 C 638.980469 51.195312 636.625 52.039062 640.207031 51.796875 L 635.332031 52.324219 C 635.265625 53.210938 636.753906 52.050781 640.324219 51.933594 L 643.292969 51.390625 L 643.226562 52.277344 C 658.953125 56.382812 651.300781 87.25 651.300781 87.25 L 650.105469 87.925781 L 642.453125 86.460938 C 631.304688 89.195312 618.050781 89.476562 609.585938 90.371094 C 605.847656 90.984375 596.234375 91.921875 591.148438 93.578125 L 591.214844 92.691406 C 585.027344 93.753906 576.816406 96.324219 573.070312 97.0625 L 573.101562 96.683594 C 570.648438 97.136719 564.277344 98.953125 565.3125 100.429688 C 559.308594 100.746094 560.0625 99.144531 552.671875 101.011719 L 553.808594 101.097656 C 545.160156 102.742188 502.6875 107.460938 495.324219 108.949219 L 495.996094 108.488281 C 489.109375 110.394531 480.191406 110.492188 473.269531 112.902344 C 459.957031 113.945312 402.8125 120.875 388.082031 123.847656 C 375.191406 126.066406 387.21875 125.183594 374.5 126.78125 C 372.703125 127.027344 372.011719 127.738281 374.300781 127.785156 C 370.078125 128.105469 364.53125 129.089844 360.355469 128.777344 C 334.535156 133.722656 282.851562 140.808594 257.738281 144.789062 L 258.390625 144.582031 C 241.917969 147.042969 177.132812 157.476562 160.6875 159.558594 L 157.527344 160.976562 C 153.984375 160.710938 150.851562 161.75 146.015625 161.773438 C 143.5625 162.226562 144.664062 162.816406 145.941406 162.785156 C 141.746094 162.726562 137.308594 164.175781 135.042969 163.878906 L 135.710938 163.421875 C 129.101562 163.308594 125.695312 166.363281 118.570312 166.339844 L 118.578125 166.214844 C 115.542969 165.988281 112.382812 167.40625 109.910156 168.113281 C 106.339844 168.226562 109.488281 166.933594 106.433594 166.960938 C 105.328125 168.152344 102.035156 167.90625 98.953125 168.3125 C 102.433594 167.679688 106.308594 166.953125 105.992188 166.039062 C 101.742188 166.738281 104.921875 165.066406 100.640625 166.148438 L 100.421875 167.402344 C 98.589844 168.03125 94.882812 168.261719 94.414062 167.71875 C 95.046875 167.765625 96.839844 167.644531 98.640625 167.398438 C 98.292969 165.207031 106.15625 133.207031 106.425781 131.320312 C 111.800781 129.175781 120.164062 129.671875 126.457031 127.214844 C 108.199219 128.015625 90.582031 127.078125 72.484375 125.726562 C 68.941406 125.464844 71.828125 124.277344 68.910156 124.1875 C 67.03125 123.792969 64.820312 124.390625 63.148438 124.648438 C 63.644531 124.8125 64.65625 124.886719 63.996094 125.222656 C 63.003906 124.890625 61.875 124.679688 60.609375 124.585938 C 61.785156 124.164062 63.847656 123.808594 60.945312 123.464844 L 64.867188 123.757812 C 65.0625 122.882812 63.71875 123.800781 60.839844 123.203125 L 58.425781 123.148438 L 58.617188 122.273438 C 53.015625 118.925781 53.050781 109.890625 54.417969 101.847656 Z M 490.996094 69.800781 C 490.996094 69.800781 490.984375 69.925781 490.984375 69.925781 C 491.5 69.839844 491.890625 69.738281 492.40625 69.652344 C 491.890625 69.738281 491.5 69.839844 490.996094 69.800781 Z M 241.132812 77.480469 C 242.808594 77.226562 244.34375 77.085938 246.007812 76.953125 C 245.25 76.898438 244.746094 76.859375 244.355469 76.957031 C 245.007812 76.753906 244.800781 76.101562 244.1875 75.800781 L 242.621094 76.320312 C 242.847656 76.71875 243.234375 76.621094 243.082031 76.992188 C 242.300781 77.1875 241.480469 76.234375 241.132812 77.480469 Z M 583.851562 9.015625 C 582.621094 8.417969 581.066406 8.808594 579.390625 9.066406 C 580.882812 9.558594 582.285156 9.535156 583.851562 9.015625 Z M 579.390625 9.066406 C 579.390625 9.066406 579.519531 9.074219 579.390625 9.066406 C 579.519531 9.074219 579.390625 9.066406 579.390625 9.066406 Z M 419.691406 41.433594 C 419.691406 41.433594 419.816406 41.441406 419.691406 41.433594 C 419.816406 41.441406 419.691406 41.433594 419.691406 41.433594 Z M 180.101562 76.867188 C 180.792969 77.8125 181.816406 77.757812 182.945312 77.972656 C 182.125 77.019531 181.257812 76.699219 180.101562 76.867188 Z M 182.953125 77.84375 Z M 378.324219 26.25 C 378.574219 26.269531 378.828125 26.285156 379.21875 26.1875 C 378.828125 26.285156 378.574219 26.269531 378.324219 26.25 Z M 378.324219 26.25 " fill-opacity="1" fill-rule="nonzero"/></g></g></g><g fill="#ffffff" fill-opacity="1"><g transform="translate(234.806686, 80.535965)"><g><path d="M 8.46875 2.625 L 8.46875 -9.828125 L 14.6875 -9.828125 L 14.6875 -2.78125 L 35.1875 -2.78125 L 35.1875 2.625 Z M 27.84375 -7.390625 L 27.84375 -34.40625 L 34.140625 -34.40625 L 34.140625 -24.171875 L 38.625 -24.171875 L 38.625 -18.484375 L 34.140625 -18.484375 L 34.140625 -7.390625 Z M 2.46875 -22.8125 C 2.46875 -25.875 3.476562 -28.335938 5.5 -30.203125 C 7.53125 -32.078125 10.144531 -33.015625 13.34375 -33.015625 C 16.507812 -33.015625 19.101562 -32.070312 21.125 -30.1875 C 23.15625 -28.3125 24.171875 -25.851562 24.171875 -22.8125 C 24.171875 -19.71875 23.164062 -17.25 21.15625 -15.40625 C 19.144531 -13.5625 16.539062 -12.640625 13.34375 -12.640625 C 10.144531 -12.640625 7.53125 -13.5625 5.5 -15.40625 C 3.476562 -17.25 2.46875 -19.71875 2.46875 -22.8125 Z M 8.8125 -22.8125 C 8.8125 -21.269531 9.21875 -20.015625 10.03125 -19.046875 C 10.84375 -18.078125 11.945312 -17.59375 13.34375 -17.59375 C 14.726562 -17.59375 15.828125 -18.066406 16.640625 -19.015625 C 17.453125 -19.972656 17.859375 -21.238281 17.859375 -22.8125 C 17.859375 -24.351562 17.453125 -25.613281 16.640625 -26.59375 C 15.828125 -27.582031 14.726562 -28.078125 13.34375 -28.078125 C 11.945312 -28.078125 10.84375 -27.582031 10.03125 -26.59375 C 9.21875 -25.613281 8.8125 -24.351562 8.8125 -22.8125 Z M 8.8125 -22.8125 "/></g></g></g><g fill="#ffffff" fill-opacity="1"><g transform="translate(275.179607, 80.535965)"><g><path d="M 7.546875 -4.171875 C 7.546875 -6.597656 8.921875 -8.5 11.671875 -9.875 C 14.429688 -11.257812 17.9375 -11.953125 22.1875 -11.953125 C 26.5 -11.953125 30.015625 -11.265625 32.734375 -9.890625 C 35.453125 -8.523438 36.8125 -6.617188 36.8125 -4.171875 C 36.8125 -2.546875 36.148438 -1.148438 34.828125 0.015625 C 33.515625 1.191406 31.769531 2.066406 29.59375 2.640625 C 27.414062 3.222656 24.945312 3.515625 22.1875 3.515625 C 17.9375 3.515625 14.429688 2.835938 11.671875 1.484375 C 8.921875 0.128906 7.546875 -1.753906 7.546875 -4.171875 Z M 14.34375 -4.171875 C 14.34375 -2.398438 16.957031 -1.515625 22.1875 -1.515625 C 24.613281 -1.515625 26.53125 -1.742188 27.9375 -2.203125 C 29.34375 -2.671875 30.046875 -3.328125 30.046875 -4.171875 C 30.046875 -5.078125 29.351562 -5.757812 27.96875 -6.21875 C 26.59375 -6.6875 24.664062 -6.921875 22.1875 -6.921875 C 16.957031 -6.921875 14.34375 -6.003906 14.34375 -4.171875 Z M 19.765625 -20.71875 L 19.765625 -25.5625 L 29.625 -25.5625 L 29.625 -27.484375 L 19.765625 -27.484375 L 19.765625 -32.359375 L 29.625 -32.359375 L 29.625 -34.40625 L 35.953125 -34.40625 L 35.953125 -11.4375 L 29.625 -11.4375 L 29.625 -20.71875 Z M 4.875 -13.5 L 4.875 -33.015625 L 11.0625 -33.015625 L 11.0625 -18.796875 L 12.21875 -18.796875 C 16.957031 -18.796875 21.894531 -19.066406 27.03125 -19.609375 L 27.03125 -14.578125 C 20.96875 -13.859375 14.507812 -13.5 7.65625 -13.5 Z M 4.875 -13.5 "/></g></g></g><g fill="#ffffff" fill-opacity="1"><g transform="translate(315.552528, 80.535965)"><g><path d="M 27.40625 3.5625 L 27.40625 -34.40625 L 33.796875 -34.40625 L 33.796875 -18.359375 L 39.015625 -18.359375 L 39.015625 -12.40625 L 33.796875 -12.40625 L 33.796875 3.5625 Z M 7.3125 -27.109375 L 7.3125 -32.671875 L 21.1875 -32.671875 L 21.1875 -27.109375 Z M 2.59375 -19.0625 L 2.59375 -24.59375 L 25.09375 -24.59375 L 25.09375 -19.0625 Z M 3.75 -9.234375 C 3.75 -11.765625 4.722656 -13.796875 6.671875 -15.328125 C 8.617188 -16.859375 11.140625 -17.625 14.234375 -17.625 C 17.347656 -17.625 19.867188 -16.859375 21.796875 -15.328125 C 23.734375 -13.796875 24.703125 -11.765625 24.703125 -9.234375 C 24.703125 -6.710938 23.734375 -4.691406 21.796875 -3.171875 C 19.867188 -1.648438 17.347656 -0.890625 14.234375 -0.890625 C 11.109375 -0.890625 8.578125 -1.640625 6.640625 -3.140625 C 4.710938 -4.648438 3.75 -6.679688 3.75 -9.234375 Z M 10.015625 -9.234375 C 10.015625 -8.179688 10.4375 -7.394531 11.28125 -6.875 C 12.132812 -6.363281 13.117188 -6.109375 14.234375 -6.109375 C 15.316406 -6.109375 16.285156 -6.367188 17.140625 -6.890625 C 18.003906 -7.421875 18.4375 -8.203125 18.4375 -9.234375 C 18.4375 -10.316406 18.007812 -11.113281 17.15625 -11.625 C 16.3125 -12.144531 15.335938 -12.40625 14.234375 -12.40625 C 13.117188 -12.40625 12.132812 -12.140625 11.28125 -11.609375 C 10.4375 -11.085938 10.015625 -10.296875 10.015625 -9.234375 Z M 10.015625 -9.234375 "/></g></g></g><g fill="#ffffff" fill-opacity="1"><g transform="translate(355.925448, 80.535965)"><g><path d="M 30.3125 3.5625 L 30.3125 -34.40625 L 36.390625 -34.40625 L 36.390625 3.5625 Z M 17.671875 -15.734375 L 17.671875 -21.8125 L 22.1875 -21.8125 L 22.1875 -33.40625 L 27.953125 -33.40625 L 27.953125 1.890625 L 22.1875 1.890625 L 22.1875 -15.734375 Z M 0.921875 -4.640625 C 6.023438 -10.078125 8.578125 -16.789062 8.578125 -24.78125 L 8.578125 -32.015625 L 14.734375 -32.015625 L 14.734375 -25.125 C 14.734375 -21.34375 15.445312 -17.582031 16.875 -13.84375 C 18.3125 -10.101562 19.835938 -7.332031 21.453125 -5.53125 L 16.625 -2.171875 C 15.800781 -3.171875 14.898438 -4.59375 13.921875 -6.4375 C 12.941406 -8.28125 12.207031 -9.960938 11.71875 -11.484375 C 11.175781 -9.859375 10.363281 -8.039062 9.28125 -6.03125 C 8.195312 -4.019531 7.113281 -2.410156 6.03125 -1.203125 Z M 0.921875 -4.640625 "/></g></g></g><g fill="#ffffff" fill-opacity="1"><g transform="translate(396.298369, 80.535965)"><g><path d="M 1.734375 0.078125 L 1.734375 -5.453125 L 9.625 -5.453125 L 9.625 -12.328125 L 15.890625 -12.328125 L 15.890625 -5.453125 L 24.4375 -5.453125 L 24.4375 -12.328125 L 30.734375 -12.328125 L 30.734375 -5.453125 L 38.46875 -5.453125 L 38.46875 0.078125 Z M 5.0625 -22.78125 C 5.0625 -24.863281 5.773438 -26.675781 7.203125 -28.21875 C 8.640625 -29.769531 10.476562 -30.910156 12.71875 -31.640625 C 14.957031 -32.378906 17.445312 -32.75 20.1875 -32.75 C 22.894531 -32.75 25.367188 -32.378906 27.609375 -31.640625 C 29.847656 -30.910156 31.679688 -29.769531 33.109375 -28.21875 C 34.546875 -26.675781 35.265625 -24.863281 35.265625 -22.78125 C 35.265625 -20.6875 34.546875 -18.859375 33.109375 -17.296875 C 31.679688 -15.742188 29.847656 -14.59375 27.609375 -13.84375 C 25.367188 -13.09375 22.894531 -12.71875 20.1875 -12.71875 C 15.957031 -12.71875 12.378906 -13.613281 9.453125 -15.40625 C 6.523438 -17.195312 5.0625 -19.65625 5.0625 -22.78125 Z M 12.03125 -22.78125 C 12.03125 -21.175781 12.796875 -19.925781 14.328125 -19.03125 C 15.859375 -18.144531 17.8125 -17.703125 20.1875 -17.703125 C 22.582031 -17.703125 24.539062 -18.144531 26.0625 -19.03125 C 27.582031 -19.925781 28.34375 -21.175781 28.34375 -22.78125 C 28.34375 -24.34375 27.570312 -25.5625 26.03125 -26.4375 C 24.5 -27.320312 22.550781 -27.765625 20.1875 -27.765625 C 17.8125 -27.765625 15.859375 -27.320312 14.328125 -26.4375 C 12.796875 -25.5625 12.03125 -24.34375 12.03125 -22.78125 Z M 12.03125 -22.78125 "/></g></g></g><g fill="#ffffff" fill-opacity="1"><g transform="translate(436.671289, 80.535965)"><g><path d="M 1.578125 6.375 L 5.71875 -6.921875 L 12.21875 -6.921875 L 6.609375 6.375 Z M 1.578125 6.375 "/></g></g></g><g fill="#ffffff" fill-opacity="1"><g transform="translate(452.062498, 80.535965)"><g><path d="M 22.265625 -14.53125 L 22.265625 -20.5625 L 29.234375 -20.5625 L 29.234375 -34.40625 L 35.65625 -34.40625 L 35.65625 3.5625 L 29.234375 3.5625 L 29.234375 -14.53125 Z M 1.96875 -5.5625 C 3.050781 -6.3125 4.003906 -7.046875 4.828125 -7.765625 C 5.660156 -8.492188 6.625 -9.507812 7.71875 -10.8125 C 8.8125 -12.113281 9.671875 -13.648438 10.296875 -15.421875 C 10.929688 -17.203125 11.25 -19.125 11.25 -21.1875 L 11.25 -25.5625 L 4.375 -25.5625 L 4.375 -31.171875 L 24.515625 -31.171875 L 24.515625 -25.5625 L 17.59375 -25.5625 L 17.59375 -21.3125 C 17.59375 -19.425781 17.921875 -17.601562 18.578125 -15.84375 C 19.234375 -14.09375 20.070312 -12.578125 21.09375 -11.296875 C 22.113281 -10.023438 23.046875 -8.984375 23.890625 -8.171875 C 24.742188 -7.359375 25.582031 -6.671875 26.40625 -6.109375 L 22.234375 -2.25 C 20.867188 -3.070312 19.410156 -4.359375 17.859375 -6.109375 C 16.316406 -7.859375 15.207031 -9.441406 14.53125 -10.859375 C 13.863281 -9.316406 12.691406 -7.578125 11.015625 -5.640625 C 9.335938 -3.710938 7.789062 -2.347656 6.375 -1.546875 Z M 1.96875 -5.5625 "/></g></g></g><g fill="#ffffff" fill-opacity="1"><g transform="translate(492.435419, 80.535965)"><g><path d="M 7 2.75 L 7 -9.59375 L 13.21875 -9.59375 L 13.21875 -2.671875 L 34.609375 -2.671875 L 34.609375 2.75 Z M 1.734375 -11.5625 L 1.734375 -16.8125 L 38.46875 -16.8125 L 38.46875 -11.5625 Z M 7 -20.6875 L 7 -33.90625 L 13.21875 -33.90625 L 13.21875 -25.796875 L 34.5625 -25.796875 L 34.5625 -20.6875 Z M 7 -20.6875 "/></g></g></g><g fill="#ffffff" fill-opacity="1"><g transform="translate(239.808641, 160.631592)"><g><path d="M 17.226562 -52.484375 C 17.164062 -53.894531 15.578125 -54.527344 13.957031 -54.453125 C 12.332031 -54.378906 10.886719 -53.53125 10.957031 -52.050781 L 11.453125 -41.328125 C 11.503906 -40.199219 12.945312 -39.628906 14.429688 -39.625 C 15.839844 -39.691406 17.296875 -40.324219 17.230469 -41.734375 Z M 7.0625 -52.152344 C 6.992188 -53.636719 5.332031 -54.40625 3.851562 -54.339844 C 2.226562 -54.261719 0.785156 -53.347656 0.859375 -51.726562 L 1.777344 -41.019531 C 1.839844 -39.679688 3.28125 -39.109375 4.90625 -39.1875 C 6.390625 -39.183594 7.914062 -39.820312 7.867188 -40.878906 Z M 7.0625 -52.152344 "/></g></g></g><g fill="#ffffff" fill-opacity="1"><g transform="translate(262.807696, 159.567682)"><g><path d="M 19.140625 -57.027344 C 18.421875 -54.164062 16.824219 -50.554688 14.992188 -47.289062 C 13.234375 -44.027344 11.324219 -41.039062 9.988281 -39.351562 C 8.382812 -37.367188 9.101562 -35.5625 10.484375 -34.707031 C 11.867188 -33.851562 13.847656 -33.871094 15.097656 -35.839844 C 16.503906 -37.601562 18.886719 -41.105469 20.757812 -44.9375 C 26.3125 -42.578125 31.847656 -39.089844 35.347656 -36.777344 C 36.890625 -35.503906 38.554688 -36.21875 39.558594 -37.464844 C 40.421875 -38.707031 40.550781 -40.480469 38.871094 -41.605469 C 35.582031 -44 29.339844 -47.457031 23.269531 -50.289062 C 24.039062 -52.019531 24.453125 -53.734375 24.867188 -55.453125 C 25.339844 -57.453125 24.148438 -58.8125 22.996094 -59.253906 C 21.484375 -59.820312 19.542969 -59.023438 19.140625 -57.027344 Z M 5.03125 -21.160156 C 7.132812 -21.542969 9.871094 -22.023438 13.3125 -22.535156 C 16.75 -23.117188 20.1875 -23.628906 23.628906 -24.144531 C 27.070312 -24.65625 30.300781 -25.160156 33.183594 -25.503906 L 39.152344 -26.347656 C 40.5625 -26.480469 42.28125 -27.550781 42.203125 -29.246094 C 42.136719 -30.65625 41.082031 -32.019531 39.183594 -31.863281 L 22.53125 -29.535156 C 19.019531 -29.019531 15.652344 -28.441406 12.355469 -27.933594 C 9.125 -27.433594 6.667969 -27.035156 4.917969 -26.671875 C 2.402344 -26.058594 1.972656 -24.625 2.039062 -23.214844 C 2.105469 -21.734375 3.28125 -20.796875 5.03125 -21.160156 Z M 25.574219 -18.789062 C 22.257812 -18.636719 18.710938 -17.339844 15.984375 -15.164062 C 13.1875 -12.984375 11.355469 -9.789062 11.542969 -5.765625 C 11.660156 -3.15625 12.757812 -0.871094 14.820312 0.941406 C 16.882812 2.753906 19.894531 3.605469 23.84375 3.421875 C 26.738281 3.289062 30.445312 2.410156 33.253906 0.511719 C 35.996094 -1.382812 38.121094 -4.378906 37.925781 -8.613281 C 37.730469 -12.777344 36.195312 -15.390625 33.933594 -16.914062 C 31.671875 -18.433594 28.679688 -18.933594 25.574219 -18.789062 Z M 31.714844 -8.324219 C 31.871094 -4.9375 28.324219 -2.160156 23.457031 -1.933594 C 20.070312 -1.777344 18.144531 -3.667969 18.027344 -6.207031 C 17.933594 -8.183594 18.917969 -9.855469 20.34375 -11.121094 C 21.910156 -12.398438 23.855469 -13.195312 25.828125 -13.285156 C 30.0625 -13.480469 31.570312 -11.429688 31.714844 -8.324219 Z M 31.714844 -8.324219 "/></g></g></g><g fill="#ffffff" fill-opacity="1"><g transform="translate(309.652388, 157.400699)"><g><path d="M 15.394531 -32.53125 C 18.042969 -34.914062 20.730469 -37.9375 23.140625 -40.878906 C 25.246094 -39.632812 27.703125 -38.472656 29.953125 -37.234375 C 32.203125 -35.992188 34.382812 -34.75 36.207031 -33.492188 C 37.890625 -32.226562 39.492188 -32.796875 40.285156 -33.964844 C 41.15625 -35.066406 41.21875 -36.765625 39.964844 -37.839844 C 37.984375 -39.371094 35.734375 -40.683594 33.34375 -41.914062 C 31.023438 -43.152344 28.5 -44.167969 26.402344 -45.199219 C 27.46875 -46.664062 28.320312 -48.117188 28.832031 -49.273438 C 30.613281 -53.527344 28.503906 -56.328125 23.15625 -55.796875 C 21.746094 -55.660156 18.304688 -55.21875 14.863281 -54.707031 C 11.421875 -54.195312 7.851562 -53.464844 6.183594 -52.820312 C 5.007812 -52.269531 3.722656 -51.007812 4.289062 -49.410156 C 4.9375 -47.671875 6.644531 -47.398438 7.695312 -47.65625 C 8.601562 -47.910156 11.96875 -48.492188 15.261719 -49.140625 C 18.554688 -49.785156 21.71875 -50.214844 22.5625 -50.253906 C 21.867188 -48.527344 20.277344 -46.191406 18.199219 -43.761719 C 16.046875 -41.328125 13.550781 -38.738281 11.117188 -36.363281 C 9.832031 -35.101562 10.117188 -33.488281 11.226562 -32.476562 C 12.191406 -31.460938 13.832031 -31.113281 15.394531 -32.53125 Z M 5.074219 -20.246094 L 12.160156 -21.421875 C 14.898438 -21.832031 17.914062 -22.394531 21 -22.890625 L 21.261719 -17.246094 C 21.335938 -15.625 21.464844 -14.355469 21.492188 -13.792969 C 21.574219 -12.027344 23.3125 -11.117188 24.796875 -11.1875 C 26.488281 -11.265625 28.050781 -12.679688 27.972656 -14.375 C 27.953125 -14.726562 27.820312 -16.136719 27.742188 -17.828125 C 27.589844 -19.589844 27.492188 -21.707031 27.394531 -23.75 C 29.992188 -24.15625 32.597656 -24.417969 34.632812 -24.722656 L 39.199219 -25.359375 C 40.609375 -25.496094 42.324219 -26.5625 42.246094 -28.257812 C 42.179688 -29.738281 41.128906 -31.035156 39.226562 -30.875 L 22.578125 -28.550781 C 19.066406 -28.03125 15.699219 -27.453125 12.398438 -26.945312 L 4.960938 -25.753906 C 2.441406 -25.144531 2.015625 -23.636719 2.078125 -22.296875 C 2.15625 -20.675781 3.324219 -19.878906 5.074219 -20.246094 Z M 37.898438 -6.136719 C 34.457031 -5.625 30.308594 -5.148438 26.648438 -4.769531 C 22.988281 -4.386719 19.605469 -4.160156 17.832031 -4.289062 C 17.265625 -4.261719 17.050781 -4.394531 16.949219 -5.027344 C 16.675781 -6.355469 16.570312 -7.128906 16.460938 -7.972656 C 16.347656 -8.816406 16.308594 -9.734375 16.230469 -11.355469 C 16.128906 -13.542969 14.460938 -14.457031 12.84375 -14.3125 C 11.21875 -14.234375 9.789062 -13.039062 9.953125 -11.066406 C 10.066406 -8.597656 10.261719 -7.402344 10.390625 -6.207031 C 10.515625 -5.011719 10.707031 -3.890625 11.023438 -1.710938 C 11.171875 -0.0234375 12.671875 1.886719 14.648438 1.796875 C 22.492188 1.71875 31.21875 0.820312 37.894531 -0.0546875 C 40.078125 -0.226562 41.484375 -1.917969 41.417969 -3.402344 C 41.347656 -4.882812 39.871094 -6.296875 37.898438 -6.136719 Z M 37.898438 -6.136719 "/></g></g></g><g fill="#ffffff" fill-opacity="1"><g transform="translate(356.497074, 155.233717)"><g><path d="M 17.226562 -52.484375 C 17.164062 -53.894531 15.578125 -54.527344 13.957031 -54.453125 C 12.332031 -54.378906 10.886719 -53.53125 10.957031 -52.050781 L 11.453125 -41.328125 C 11.503906 -40.199219 12.945312 -39.628906 14.429688 -39.625 C 15.839844 -39.691406 17.296875 -40.324219 17.230469 -41.734375 Z M 7.0625 -52.152344 C 6.992188 -53.636719 5.332031 -54.40625 3.851562 -54.339844 C 2.226562 -54.261719 0.785156 -53.347656 0.859375 -51.726562 L 1.777344 -41.019531 C 1.839844 -39.679688 3.28125 -39.109375 4.90625 -39.1875 C 6.390625 -39.183594 7.914062 -39.820312 7.867188 -40.878906 Z M 7.0625 -52.152344 "/></g></g></g><g fill="#ffffff" fill-opacity="1"><g transform="translate(379.496123, 154.169807)"><g><path d="M 15.203125 -51.964844 C 11.605469 -51.796875 8.347656 -50.304688 5.914062 -47.929688 C 3.476562 -45.554688 2.003906 -42.234375 2.1875 -38.28125 C 2.460938 -32.355469 6.878906 -28.601562 13.085938 -28.886719 C 17.671875 -29.101562 21.199219 -30.820312 23.5625 -33.261719 C 25.925781 -35.632812 27.128906 -38.660156 27 -41.480469 C 26.660156 -48.816406 21.761719 -52.269531 15.203125 -51.964844 Z M 20.503906 -41.320312 C 20.578125 -39.699219 20.011719 -38.1875 18.878906 -36.652344 C 17.746094 -35.183594 15.875 -34.390625 13.261719 -34.269531 C 11.359375 -34.179688 10.132812 -34.691406 9.519531 -35.722656 C 8.90625 -36.753906 8.570312 -37.871094 8.519531 -39 C 8.417969 -41.1875 9.117188 -42.914062 10.535156 -44.324219 C 11.953125 -45.734375 13.617188 -46.519531 15.449219 -46.601562 C 18.835938 -46.757812 20.359375 -44.425781 20.503906 -41.320312 Z M 33.570312 -53.804688 C 33.914062 -52.476562 34.453125 -51.582031 34.859375 -50.398438 C 35.199219 -49.214844 35.617188 -47.816406 35.789062 -45.632812 C 36.136719 -39.640625 36.402344 -36.894531 36.480469 -35.203125 C 36.558594 -33.507812 36.660156 -32.878906 36.738281 -31.183594 C 36.820312 -29.417969 38.359375 -28.21875 40.054688 -28.296875 C 41.675781 -28.371094 43.097656 -29.78125 43.019531 -31.472656 C 42.828125 -34.082031 42.667969 -37.539062 42.507812 -40.996094 C 42.28125 -44.378906 41.976562 -47.902344 41.351562 -50.699219 C 40.644531 -53.707031 39.753906 -56.210938 38.53125 -58.136719 C 37.40625 -59.566406 35.160156 -59.179688 34.074219 -58.210938 C 32.71875 -56.945312 33.152344 -55.199219 33.570312 -53.804688 Z M 18.480469 -19.308594 C 18.390625 -21.285156 17.351562 -22.296875 15.589844 -22.214844 C 13.894531 -22.136719 12.390625 -21.007812 12.484375 -19.03125 L 13.441406 -1.328125 C 13.578125 1.5625 14.632812 3 17.175781 2.953125 C 18.097656 2.980469 19.792969 2.972656 23.453125 2.589844 C 27.042969 2.214844 32.457031 1.609375 41.101562 0.433594 C 43.269531 -0.0234375 44.214844 -1.054688 44.523438 -1.988281 C 44.96875 -3.070312 44.773438 -4.261719 44.789062 -5.394531 C 43.984375 -12.144531 43.171875 -17.480469 42.066406 -23.015625 C 41.507812 -24.40625 40.394531 -25.484375 38.496094 -25.324219 C 36.8125 -25.035156 35.503906 -24.269531 35.890625 -22.023438 C 36.253906 -20.273438 36.640625 -18.027344 37.027344 -15.785156 C 34.773438 -15.609375 31.535156 -15.316406 28.21875 -15.09375 C 24.84375 -14.726562 21.324219 -14.351562 18.726562 -13.945312 Z M 37.980469 -10.453125 C 38.015625 -9.675781 38.121094 -8.976562 38.148438 -8.339844 L 38.378906 -6.441406 C 38.402344 -5.878906 38.417969 -5.59375 38.355469 -5.378906 C 38.296875 -5.164062 38.019531 -5.011719 37.671875 -4.925781 C 34.234375 -4.269531 30.4375 -3.882812 27.339844 -3.527344 C 24.175781 -3.167969 21.570312 -2.90625 20.65625 -2.863281 C 19.527344 -2.8125 19.371094 -3.089844 19.320312 -4.21875 C 19.304688 -4.570312 19.175781 -5.765625 18.976562 -8.585938 C 22.066406 -9.011719 25.789062 -9.535156 29.175781 -9.761719 C 32.621094 -10.136719 35.792969 -10.351562 37.980469 -10.453125 Z M 37.980469 -10.453125 "/></g></g></g><g fill="#ffffff" fill-opacity="1"><g transform="translate(427.751804, 151.937554)"><g><path d="M 12.09375 -21.347656 C 11.789062 -23.3125 11.378906 -26.050781 11.003906 -29.570312 C 10.628906 -33.085938 10.601562 -36.761719 10.777344 -40.589844 C 10.902344 -42.503906 9.296875 -43.5625 7.675781 -43.484375 C 6.050781 -43.480469 4.398438 -42.484375 4.28125 -40.429688 C 3.816406 -32.136719 4.742188 -24.328125 5.914062 -17.382812 C 6.300781 -15.140625 7.898438 -14.222656 10.355469 -14.550781 C 12.964844 -14.742188 16.128906 -15.097656 19.148438 -15.523438 C 22.171875 -15.945312 24.980469 -16.355469 27.144531 -16.953125 C 28.824219 -17.3125 29.523438 -19.042969 29.242188 -20.515625 C 29.105469 -21.921875 27.914062 -23.28125 26.230469 -22.992188 C 23.417969 -22.578125 21.460938 -22.132812 19.425781 -21.757812 C 17.394531 -21.378906 15.429688 -21.078125 12.679688 -20.878906 C 12.398438 -20.867188 12.117188 -20.851562 12.09375 -21.347656 Z M 33.769531 -49.5 C 34.523438 -46.988281 35.707031 -42.800781 36.117188 -38.507812 L 37.207031 -21.09375 C 37.445312 -15.945312 37.5625 -11.847656 37.570312 -10.152344 C 37.445312 -8.238281 39.191406 -7.1875 40.886719 -7.265625 C 42.507812 -7.339844 43.714844 -8.738281 43.847656 -10.441406 C 43.546875 -17.003906 43.460938 -23.433594 43.175781 -29.574219 C 42.828125 -35.566406 42.285156 -41.199219 41.40625 -46.460938 C 40.769531 -49.472656 39.949219 -51.976562 38.726562 -53.902344 C 37.605469 -55.265625 35.355469 -54.949219 34.269531 -53.976562 C 32.921875 -52.574219 33.347656 -50.964844 33.769531 -49.5 Z M 33.769531 -49.5 "/></g></g></g><g fill="#ffffff" fill-opacity="1"><g transform="translate(476.007486, 149.7053)"><g><path d="M 3.011719 -41.925781 C 2.664062 -38.726562 2.726562 -34.277344 3.136719 -29.984375 C 3.625 -25.550781 4.25 -21.195312 5.464844 -17.859375 C 6.125 -15.839844 7.132812 -15.460938 9.472656 -15.285156 C 15.214844 -14.988281 21.316406 -16.117188 25.789062 -17.171875 C 28.03125 -17.628906 28.800781 -19.363281 28.523438 -20.761719 C 28.246094 -22.164062 26.984375 -23.449219 25.09375 -23.078125 C 23.058594 -22.703125 20.75 -22.242188 18.433594 -21.851562 C 16.1875 -21.464844 13.9375 -21.21875 11.957031 -21.199219 C 11.746094 -21.1875 11.675781 -21.1875 11.671875 -21.257812 C 11.597656 -21.324219 11.523438 -21.390625 11.515625 -21.601562 C 9.839844 -25.695312 9.273438 -31.824219 9.367188 -37.484375 C 15 -38.027344 20.765625 -38.71875 23.914062 -39.429688 C 25.945312 -39.804688 26.714844 -41.539062 26.433594 -43.011719 C 26.082031 -44.476562 24.753906 -45.691406 22.722656 -45.3125 C 19.851562 -44.683594 14.652344 -43.949219 9.234375 -43.417969 C 8.542969 -44.585938 7.035156 -45.082031 5.703125 -44.808594 C 4.304688 -44.53125 3.148438 -43.558594 3.011719 -41.925781 Z M 49.410156 -30.851562 C 51.019531 -31.207031 52.113281 -32.035156 52.019531 -34.082031 C 51.949219 -35.5625 50.410156 -36.765625 48.445312 -36.390625 C 46.414062 -36.015625 44.371094 -35.851562 42.464844 -35.761719 L 42.183594 -35.75 C 41.800781 -39.40625 41.425781 -42.996094 40.699219 -46.425781 C 40.066406 -49.4375 39.242188 -51.945312 38.023438 -53.867188 C 36.898438 -55.230469 34.652344 -54.914062 33.5625 -53.945312 C 32.214844 -52.539062 32.574219 -50.929688 33.136719 -49.472656 C 33.480469 -48.144531 34.046875 -46.542969 34.488281 -44.65625 C 34.929688 -42.765625 35.378906 -40.667969 35.550781 -38.480469 C 35.902344 -32.488281 36.332031 -26.214844 36.570312 -21.066406 C 36.808594 -15.914062 36.855469 -11.816406 36.863281 -10.121094 C 36.742188 -8.203125 38.488281 -7.152344 40.179688 -7.230469 C 41.800781 -7.308594 43.082031 -8.710938 43.214844 -10.414062 C 43.0625 -13.730469 42.976562 -17.046875 42.824219 -20.363281 C 42.75 -23.542969 42.59375 -26.859375 42.453125 -29.964844 L 42.59375 -29.96875 C 44.285156 -30.046875 47.109375 -30.179688 49.410156 -30.851562 Z M 49.410156 -30.851562 "/></g></g></g><g clip-path="url(#7b94753087)"><g clip-path="url(#46a1e6fec1)"><g clip-path="url(#76b4566c87)"><path fill="#ffffff" d="M 219.808594 33.535156 C 221.335938 33.796875 222.480469 34.648438 223.523438 35.78125 C 226.035156 38.488281 228.644531 41.109375 231.164062 43.808594 C 231.992188 44.710938 232.75 45.667969 233.433594 46.671875 C 234.066406 47.589844 233.976562 48.535156 233.355469 49.113281 C 232.710938 49.714844 231.679688 49.746094 230.855469 48.929688 C 229.492188 47.589844 228.257812 46.121094 226.949219 44.726562 C 224.972656 42.597656 222.9375 40.53125 221.023438 38.367188 C 219.90625 37.113281 219.25 35.589844 219.308594 33.851562 Z M 208.328125 67.429688 C 209.589844 68.097656 210.929688 68.433594 212.3125 68.121094 C 215.890625 67.316406 219.460938 66.457031 223.027344 65.546875 C 223.722656 65.367188 224.378906 65.035156 224.933594 64.582031 C 225.304688 64.28125 225.652344 63.59375 225.546875 63.207031 C 225.414062 62.757812 224.8125 62.375 224.34375 62.105469 C 224.066406 61.949219 223.632812 62.007812 223.277344 62.054688 C 219.082031 62.691406 214.898438 63.359375 210.949219 64.941406 C 209.886719 65.363281 209.058594 66.359375 208.121094 67.09375 Z M 209.730469 51.269531 C 213.09375 52.957031 216.402344 54.726562 220.140625 55.488281 C 221.03125 55.671875 221.878906 56.097656 222.757812 56.351562 C 223.542969 56.570312 224.339844 56.808594 225.152344 56.859375 C 225.875 56.910156 226.511719 56.550781 226.6875 55.746094 C 226.855469 54.988281 226.453125 54.433594 225.835938 54.109375 C 224.527344 53.425781 223.21875 52.683594 221.835938 52.191406 C 219.066406 51.230469 216.253906 50.410156 213.457031 49.550781 C 212.359375 49.214844 211.25 48.878906 210.136719 48.585938 C 209.273438 48.363281 208.398438 48.289062 207.570312 48.90625 C 207.929688 50.070312 208.742188 50.773438 209.730469 51.269531 Z M 209.730469 51.269531 " fill-opacity="1" fill-rule="nonzero"/></g></g></g><g clip-path="url(#e469df3fe2)"><g clip-path="url(#d2a3346abb)"><g clip-path="url(#183b2ecfe8)"><path fill="#ffffff" d="M 673.304688 149.167969 C 679.867188 142.863281 688.097656 139.429688 695.601562 134.851562 C 698.382812 133.164062 701.050781 131.328125 703.777344 129.554688 C 704.433594 129.113281 705.097656 128.644531 705.757812 128.179688 C 707.402344 127.070312 708.460938 126.925781 708.988281 127.875 C 709.734375 129.253906 708.78125 130.097656 707.808594 130.816406 C 703.894531 133.679688 700.035156 136.632812 696.011719 139.320312 C 691.875 142.082031 687.480469 144.53125 683.300781 147.257812 C 681.160156 148.671875 679.199219 150.378906 676.859375 152.21875 C 677.742188 152.503906 678.203125 152.664062 678.671875 152.800781 C 695.609375 157.691406 712.589844 162.496094 729.484375 167.554688 C 736.074219 169.527344 742.464844 172.128906 748.976562 174.433594 C 749.417969 174.589844 749.980469 174.746094 750.195312 175.097656 C 750.570312 175.738281 751.039062 176.601562 750.851562 177.179688 C 750.664062 177.761719 749.777344 178.324219 749.121094 178.441406 C 748.339844 178.578125 747.421875 178.335938 746.632812 178.070312 C 742.136719 176.648438 737.683594 175.0625 733.175781 173.710938 C 719.242188 169.558594 705.316406 165.484375 691.367188 161.402344 C 687.058594 160.152344 682.738281 158.945312 678.421875 157.738281 C 677.878906 157.585938 677.332031 157.476562 676.644531 157.3125 C 676.675781 157.597656 676.726562 157.910156 676.789062 158.171875 C 682.574219 173.273438 688.339844 188.347656 694.101562 203.441406 C 694.898438 205.554688 695.832031 207.628906 696.386719 209.808594 C 696.640625 210.84375 696.359375 212.128906 696.035156 213.175781 C 695.875 213.636719 694.898438 214.152344 694.359375 214.101562 C 693.746094 214.054688 692.878906 213.496094 692.628906 212.960938 C 690.878906 209.171875 689.136719 205.355469 687.609375 201.46875 C 684.121094 192.488281 680.753906 183.410156 677.324219 174.394531 C 675.347656 169.25 673.339844 164.121094 671.335938 158.996094 C 671.175781 158.609375 670.988281 158.238281 670.746094 157.679688 C 667.050781 160.148438 663.378906 162.417969 659.910156 164.988281 C 654.347656 169.109375 648.9375 173.414062 643.441406 177.652344 C 642.886719 178.09375 642.292969 178.476562 641.664062 178.800781 C 640.5625 179.339844 639.457031 179.347656 638.523438 178.425781 C 637.59375 177.503906 637.574219 176.324219 638.171875 175.292969 C 638.6875 174.390625 639.375 173.605469 640.199219 172.980469 C 648.195312 166.765625 656.1875 160.550781 664.992188 155.457031 C 665.457031 155.191406 665.90625 154.875 666.558594 154.457031 C 666.007812 154.25 665.710938 154.128906 665.429688 154.039062 C 648.429688 148.679688 631.40625 143.316406 614.414062 137.933594 C 611.902344 137.132812 609.386719 136.332031 606.886719 135.484375 C 606.257812 135.285156 605.511719 135.058594 605.175781 134.578125 C 604.699219 133.941406 604.164062 132.9375 604.34375 132.28125 C 604.527344 131.625 605.519531 131.035156 606.277344 130.792969 C 606.980469 130.585938 607.882812 130.777344 608.636719 130.980469 C 611.949219 131.898438 615.289062 132.792969 618.542969 133.847656 C 634.359375 138.921875 650.175781 143.996094 665.957031 149.113281 C 666.398438 149.246094 666.855469 149.328125 667.472656 149.476562 C 667.425781 149.140625 667.335938 148.792969 667.261719 148.476562 C 663.597656 137.90625 660.019531 127.304688 656.234375 116.730469 C 654.480469 111.8125 652.417969 107.019531 650.472656 102.160156 C 649.957031 100.859375 649.335938 99.585938 648.878906 98.253906 C 648.375 96.785156 648.859375 95.5 649.988281 94.96875 C 651.113281 94.4375 652.417969 94.851562 653.261719 96.152344 C 654.058594 97.316406 654.734375 98.578125 655.273438 99.878906 C 657.679688 105.953125 660.085938 112.027344 662.324219 118.183594 C 665.875 127.953125 669.285156 137.789062 672.726562 147.605469 C 672.8125 148.078125 673.050781 148.558594 673.304688 149.167969 Z M 673.304688 149.167969 " fill-opacity="1" fill-rule="nonzero"/></g></g></g><g clip-path="url(#5c75486de1)"><g clip-path="url(#aacae6d98a)"><g clip-path="url(#04426539f3)"><path fill="#ffffff" d="M 567.753906 186.675781 C 564.082031 187.90625 559.75 185.9375 558.617188 182.558594 C 557.453125 179.09375 559.960938 174.6875 563.824219 173.445312 C 567.195312 172.339844 571.515625 174.355469 572.574219 177.496094 C 573.640625 180.824219 571.167969 185.554688 567.753906 186.675781 Z M 594.828125 173.410156 C 593.730469 170.214844 589.726562 168.5 586.054688 169.65625 C 582.203125 170.847656 579.949219 174.691406 581.007812 178.214844 C 582.125 181.835938 585.886719 183.34375 590.324219 181.910156 C 594.121094 180.6875 596.0625 177.019531 594.828125 173.410156 Z M 613.523438 174.679688 C 617.027344 173.457031 618.832031 170.484375 617.828125 167.566406 C 616.5 163.675781 612.617188 161.65625 608.796875 162.886719 C 605.117188 164.09375 603.117188 167.734375 604.273438 171.175781 C 605.425781 174.621094 609.402344 176.101562 613.523438 174.679688 Z M 613.523438 174.679688 " fill-opacity="1" fill-rule="nonzero"/></g></g></g><g clip-path="url(#b3d1c1cb5a)"><g clip-path="url(#bec8fbf65d)"><g clip-path="url(#943a5931c3)"><path fill="#ffffff" d="M 92.765625 157.355469 C 95.074219 149.902344 97.238281 142.914062 99.394531 135.929688 C 99.824219 134.515625 100.0625 133.039062 100.59375 131.667969 C 101.335938 129.785156 102.914062 128.933594 104.527344 129.339844 C 106.085938 129.726562 107.042969 131.269531 106.78125 133.304688 C 106.5625 134.964844 106.265625 136.625 105.757812 138.210938 C 103.167969 146.433594 100.589844 154.652344 97.828125 162.820312 C 96.503906 166.738281 92.78125 167.511719 89.722656 164.707031 C 88.636719 163.707031 87.746094 162.5 86.765625 161.402344 C 85.53125 160.019531 84.296875 158.636719 82.835938 157.007812 C 82.566406 157.839844 82.332031 158.335938 82.246094 158.851562 C 81.066406 166.28125 79.90625 173.714844 78.757812 181.144531 C 78.671875 181.71875 78.699219 182.308594 78.582031 182.867188 C 78.3125 184.273438 77.542969 185.257812 76.046875 185.339844 C 74.566406 185.410156 73.574219 184.570312 73.191406 183.199219 C 72.890625 182.101562 72.6875 180.914062 72.746094 179.773438 C 73.261719 170.03125 74.933594 160.457031 77.441406 151.050781 C 78.328125 147.742188 81.746094 146.816406 84.480469 149.171875 C 86.957031 151.3125 89.175781 153.746094 91.5 156.058594 C 91.734375 156.296875 91.960938 156.519531 92.765625 157.355469 Z M 92.765625 157.355469 " fill-opacity="1" fill-rule="nonzero"/></g></g></g><g clip-path="url(#505f5a1f7e)"><g clip-path="url(#d4976d41d2)"><g clip-path="url(#f919adf02e)"><path fill="#ffffff" d="M 40.460938 132.121094 C 40.203125 132.582031 40.015625 132.894531 39.84375 133.21875 C 38.242188 136.25 36.636719 139.269531 35.015625 142.289062 C 34.796875 142.726562 34.511719 143.136719 34.171875 143.492188 C 33.589844 144.054688 32.867188 144.152344 32.160156 143.742188 C 31.453125 143.335938 31.203125 142.660156 31.402344 141.878906 C 31.515625 141.488281 31.675781 141.117188 31.886719 140.773438 C 34.183594 136.707031 36.496094 132.648438 38.773438 128.570312 C 38.953125 128.253906 38.933594 127.722656 38.808594 127.359375 C 37.789062 124.335938 36.707031 121.34375 35.699219 118.308594 C 35.371094 117.320312 35.195312 116.285156 35.003906 115.265625 C 34.886719 114.636719 35.058594 114.085938 35.734375 113.863281 C 36.410156 113.644531 36.867188 113.984375 37.195312 114.527344 C 37.441406 114.953125 37.652344 115.402344 37.835938 115.859375 C 38.902344 118.460938 39.957031 121.066406 41 123.679688 C 41.085938 123.890625 41.183594 124.089844 41.421875 124.601562 C 43.179688 121.609375 44.820312 118.828125 46.441406 116.027344 C 46.804688 115.398438 47.050781 114.710938 47.382812 114.0625 C 47.664062 113.519531 48.113281 113.222656 48.75 113.394531 C 49.417969 113.574219 49.613281 114.125 49.519531 114.6875 C 49.347656 115.648438 49.1875 116.65625 48.792969 117.535156 C 47.929688 119.429688 46.980469 121.285156 45.957031 123.105469 C 45.09375 124.652344 44.046875 126.089844 43.144531 127.613281 C 42.9375 127.976562 42.863281 128.578125 43.007812 128.964844 C 44.53125 132.855469 46.113281 136.714844 47.675781 140.582031 C 47.765625 140.761719 47.839844 140.953125 47.890625 141.152344 C 48.082031 141.953125 47.941406 142.667969 47.199219 143.132812 C 46.492188 143.574219 45.578125 143.421875 45.0625 142.769531 C 44.574219 142.160156 44.171875 141.484375 43.875 140.753906 C 42.839844 138.234375 41.871094 135.6875 40.871094 133.148438 C 40.757812 132.863281 40.640625 132.578125 40.460938 132.121094 Z M 105.53125 122.316406 C 107.039062 119.289062 108.460938 116.4375 109.882812 113.582031 C 110.074219 113.191406 110.234375 112.78125 110.453125 112.410156 C 110.851562 111.742188 111.429688 111.417969 112.222656 111.644531 C 112.976562 111.871094 113.300781 112.457031 113.253906 113.171875 C 113.230469 113.753906 113.085938 114.316406 112.851562 114.847656 C 111.570312 117.609375 110.394531 120.429688 108.886719 123.070312 C 107.730469 125.109375 107.277344 126.917969 108.511719 129.085938 C 109.746094 131.25 110.707031 133.5625 111.769531 135.8125 C 111.960938 136.230469 112.171875 136.660156 112.257812 137.105469 C 112.394531 137.859375 112.109375 138.496094 111.40625 138.859375 C 110.683594 139.230469 109.96875 139.109375 109.394531 138.550781 C 109.089844 138.246094 108.839844 137.886719 108.648438 137.496094 C 107.660156 135.433594 106.703125 133.351562 105.734375 131.269531 C 105.675781 131.148438 105.609375 131.023438 105.457031 130.75 C 104.765625 132.425781 104.128906 133.96875 103.496094 135.511719 C 103.296875 135.996094 103.125 136.492188 102.859375 136.941406 C 102.414062 137.722656 101.597656 138.019531 100.851562 137.753906 C 100.109375 137.488281 99.6875 136.738281 99.828125 135.855469 C 99.894531 135.480469 99.996094 135.121094 100.148438 134.777344 C 101.21875 132.054688 102.328125 129.339844 103.367188 126.59375 C 103.519531 126.175781 103.507812 125.71875 103.347656 125.300781 C 102.550781 123.5625 101.632812 121.878906 100.828125 120.140625 C 100.289062 118.992188 99.839844 117.792969 99.367188 116.605469 C 99.089844 115.890625 98.832031 115.121094 99.679688 114.585938 C 100.304688 114.195312 101.011719 114.546875 101.625 115.582031 C 102.765625 117.5 103.855469 119.457031 104.964844 121.386719 C 105.109375 121.632812 105.261719 121.871094 105.53125 122.316406 Z M 105.53125 122.316406 " fill-opacity="1" fill-rule="nonzero"/></g></g></g><g clip-path="url(#db8ea486a2)"><g clip-path="url(#2411e819d7)"><g clip-path="url(#2d296e846a)"><path fill="#ffffff" d="M -4.84375 145.976562 C -5.097656 146.433594 -5.289062 146.75 -5.460938 147.074219 C -7.0625 150.101562 -8.664062 153.125 -10.289062 156.144531 C -10.503906 156.582031 -10.789062 156.992188 -11.132812 157.34375 C -11.710938 157.90625 -12.4375 158.003906 -13.144531 157.597656 C -13.847656 157.191406 -14.097656 156.515625 -13.902344 155.734375 C -13.789062 155.34375 -13.625 154.972656 -13.417969 154.628906 C -11.121094 150.558594 -8.804688 146.5 -6.527344 142.421875 C -6.347656 142.109375 -6.371094 141.574219 -6.496094 141.214844 C -7.511719 138.191406 -8.597656 135.195312 -9.605469 132.164062 C -9.933594 131.175781 -10.105469 130.136719 -10.300781 129.121094 C -10.414062 128.492188 -10.246094 127.941406 -9.570312 127.71875 C -8.894531 127.5 -8.433594 127.839844 -8.109375 128.382812 C -7.859375 128.808594 -7.648438 129.253906 -7.46875 129.710938 C -6.402344 132.316406 -5.347656 134.921875 -4.300781 137.535156 C -4.214844 137.746094 -4.121094 137.945312 -3.878906 138.457031 C -2.125 135.464844 -0.484375 132.683594 1.140625 129.878906 C 1.5 129.25 1.746094 128.566406 2.078125 127.917969 C 2.363281 127.375 2.808594 127.078125 3.449219 127.25 C 4.117188 127.425781 4.308594 127.980469 4.214844 128.539062 C 4.046875 129.5 3.886719 130.511719 3.488281 131.386719 C 2.625 133.28125 1.675781 135.140625 0.652344 136.960938 C -0.210938 138.503906 -1.253906 139.945312 -2.15625 141.46875 C -2.367188 141.832031 -2.441406 142.429688 -2.296875 142.820312 C -0.769531 146.707031 0.8125 150.566406 2.375 154.4375 C 2.460938 154.617188 2.539062 154.808594 2.585938 155.007812 C 2.777344 155.804688 2.636719 156.519531 1.894531 156.988281 C 1.191406 157.425781 0.277344 157.277344 -0.242188 156.621094 C -0.726562 156.015625 -1.128906 155.339844 -1.425781 154.609375 C -2.464844 152.089844 -3.433594 149.542969 -4.429688 147.003906 C -4.546875 146.71875 -4.660156 146.433594 -4.84375 145.976562 Z M 60.226562 136.171875 C 61.734375 133.140625 63.15625 130.292969 64.578125 127.433594 C 64.769531 127.042969 64.929688 126.632812 65.148438 126.261719 C 65.546875 125.59375 66.128906 125.269531 66.917969 125.496094 C 67.671875 125.722656 68 126.3125 67.953125 127.027344 C 67.925781 127.605469 67.785156 128.167969 67.546875 128.703125 C 66.265625 131.464844 65.09375 134.285156 63.585938 136.925781 C 62.425781 138.964844 61.972656 140.773438 63.207031 142.9375 C 64.445312 145.105469 65.402344 147.414062 66.464844 149.667969 C 66.660156 150.085938 66.867188 150.511719 66.957031 150.960938 C 67.089844 151.710938 66.808594 152.351562 66.101562 152.714844 C 65.378906 153.085938 64.664062 152.964844 64.089844 152.40625 C 63.785156 152.101562 63.535156 151.738281 63.34375 151.351562 C 62.359375 149.289062 61.398438 147.207031 60.429688 145.125 C 60.375 145 60.308594 144.878906 60.152344 144.601562 C 59.460938 146.277344 58.828125 147.820312 58.191406 149.363281 C 57.996094 149.851562 57.824219 150.347656 57.558594 150.792969 C 57.113281 151.574219 56.292969 151.871094 55.550781 151.609375 C 54.804688 151.34375 54.382812 150.59375 54.523438 149.707031 C 54.589844 149.335938 54.695312 148.972656 54.847656 148.632812 C 55.914062 145.90625 57.023438 143.191406 58.066406 140.449219 C 58.21875 140.03125 58.207031 139.574219 58.042969 139.15625 C 57.246094 137.414062 56.328125 135.734375 55.523438 133.996094 C 54.988281 132.84375 54.535156 131.648438 54.066406 130.457031 C 53.789062 129.746094 53.527344 128.976562 54.375 128.441406 C 55.003906 128.050781 55.710938 128.398438 56.320312 129.433594 C 57.460938 131.355469 58.550781 133.3125 59.664062 135.242188 C 59.804688 135.488281 59.960938 135.726562 60.226562 136.171875 Z M 60.226562 136.171875 " fill-opacity="1" fill-rule="nonzero"/></g></g></g><g fill="#ffffff" fill-opacity="1"><g transform="translate(279.795301, 190.033107)"><g><path d="M 9.636719 -7.960938 C 7.773438 -7.554688 6.128906 -7.46875 3.199219 -7.453125 L 3.199219 -11.464844 L 8.265625 -11.464844 L 8.265625 -12.886719 L 1.457031 -12.886719 L 1.457031 -6.027344 L 2.691406 -6.027344 C 6.011719 -6.027344 7.824219 -6.128906 9.824219 -6.535156 Z M 7.875 -0.101562 C 5.757812 -0.101562 4.503906 -0.675781 4.503906 -1.710938 C 4.503906 -2.742188 5.757812 -3.300781 7.875 -3.300781 C 9.992188 -3.300781 11.246094 -2.742188 11.246094 -1.710938 C 11.246094 -0.675781 9.992188 -0.101562 7.875 -0.101562 Z M 7.875 -4.707031 C 4.742188 -4.707031 2.777344 -3.574219 2.777344 -1.710938 C 2.777344 0.167969 4.742188 1.320312 7.875 1.320312 C 11.007812 1.320312 12.972656 0.167969 12.972656 -1.710938 C 12.972656 -3.574219 11.007812 -4.707031 7.875 -4.707031 Z M 12.835938 -10.179688 L 12.835938 -13.988281 L 11.058594 -13.988281 L 11.058594 -5.011719 L 12.835938 -5.011719 L 12.835938 -8.738281 L 14.96875 -8.738281 L 14.96875 -10.179688 Z M 12.835938 -10.179688 "/></g></g></g><g fill="#ffffff" fill-opacity="1"><g transform="translate(295.374136, 190.033107)"><g><path d="M 13.464844 -13.972656 L 11.71875 -13.972656 L 11.71875 -2.792969 L 13.464844 -2.792969 Z M 10.128906 -6.585938 C 7.773438 -7.402344 6.433594 -9.449219 6.433594 -11.617188 L 6.433594 -13.140625 L 4.65625 -13.140625 L 4.65625 -11.617188 C 4.65625 -9.382812 3.320312 -7.199219 0.914062 -6.316406 L 1.8125 -4.910156 C 3.605469 -5.589844 4.878906 -6.976562 5.570312 -8.6875 C 6.230469 -7.097656 7.484375 -5.84375 9.230469 -5.199219 Z M 5.234375 -0.40625 L 5.234375 -3.84375 L 3.472656 -3.84375 L 3.472656 1.015625 L 13.902344 1.015625 L 13.902344 -0.40625 Z M 5.234375 -0.40625 "/></g></g></g><g fill="#ffffff" fill-opacity="1"><g transform="translate(310.952971, 190.033107)"><g><path d="M 5.792969 -12.921875 C 3.402344 -12.921875 1.644531 -11.414062 1.644531 -9.246094 C 1.644531 -7.078125 3.402344 -5.570312 5.792969 -5.570312 C 8.179688 -5.570312 9.957031 -7.078125 9.957031 -9.246094 C 9.957031 -11.414062 8.179688 -12.921875 5.792969 -12.921875 Z M 5.792969 -11.429688 C 7.214844 -11.429688 8.246094 -10.585938 8.246094 -9.246094 C 8.246094 -7.925781 7.214844 -7.0625 5.792969 -7.0625 C 4.386719 -7.0625 3.351562 -7.925781 3.351562 -9.246094 C 3.351562 -10.585938 4.386719 -11.429688 5.792969 -11.429688 Z M 11.683594 -14.003906 L 11.683594 1.320312 L 13.445312 1.320312 L 13.445312 -14.003906 Z M 1.152344 -1.914062 C 3.859375 -1.914062 7.519531 -1.949219 10.890625 -2.589844 L 10.769531 -3.859375 C 7.484375 -3.371094 3.675781 -3.351562 0.929688 -3.351562 Z M 1.152344 -1.914062 "/></g></g></g><g fill="#ffffff" fill-opacity="1"><g transform="translate(326.531805, 190.033107)"><g/></g></g><g fill="#ffffff" fill-opacity="1"><g transform="translate(330.341847, 190.033107)"><g><path d="M 13.464844 -13.972656 L 11.71875 -13.972656 L 11.71875 -2.726562 L 13.464844 -2.726562 Z M 10.3125 -6.097656 C 7.960938 -6.789062 6.570312 -8.550781 6.570312 -10.433594 L 6.570312 -10.6875 L 9.855469 -10.6875 L 9.855469 -12.074219 L 6.570312 -12.074219 L 6.570312 -13.921875 L 4.828125 -13.921875 L 4.828125 -12.074219 L 1.507812 -12.074219 L 1.507812 -10.6875 L 4.828125 -10.6875 L 4.828125 -10.433594 C 4.828125 -8.433594 3.453125 -6.570312 1.082031 -5.824219 L 1.929688 -4.453125 C 3.742188 -5.046875 5.046875 -6.265625 5.722656 -7.824219 C 6.417969 -6.382812 7.722656 -5.265625 9.5 -4.726562 Z M 5.234375 -0.40625 L 5.234375 -3.757812 L 3.472656 -3.757812 L 3.472656 1.015625 L 13.902344 1.015625 L 13.902344 -0.40625 Z M 5.234375 -0.40625 "/></g></g></g><g fill="#ffffff" fill-opacity="1"><g transform="translate(345.920681, 190.033107)"><g><path d="M 9.078125 -10.703125 L 9.078125 -9.28125 L 11.769531 -9.28125 L 11.769531 -6.148438 L 13.53125 -6.148438 L 13.53125 -13.988281 L 11.769531 -13.988281 L 11.769531 -10.703125 Z M 9.890625 -7.585938 C 7.636719 -8.296875 6.316406 -9.992188 6.316406 -11.71875 L 6.316406 -11.886719 L 9.515625 -11.886719 L 9.515625 -13.292969 L 1.335938 -13.292969 L 1.335938 -11.886719 L 4.554688 -11.886719 L 4.554688 -11.734375 C 4.554688 -9.925781 3.167969 -8.027344 0.828125 -7.25 L 1.675781 -5.894531 C 3.472656 -6.46875 4.777344 -7.722656 5.453125 -9.246094 C 6.113281 -7.875 7.367188 -6.773438 9.078125 -6.230469 Z M 5.316406 -0.21875 L 5.316406 -1.574219 L 13.53125 -1.574219 L 13.53125 -5.453125 L 3.574219 -5.453125 L 3.574219 -4.082031 L 11.804688 -4.082031 L 11.804688 -2.863281 L 3.589844 -2.863281 L 3.589844 1.152344 L 14.039062 1.152344 L 14.039062 -0.21875 Z M 5.316406 -0.21875 "/></g></g></g><g fill="#ffffff" fill-opacity="1"><g transform="translate(361.499516, 190.033107)"><g><path d="M 9.90625 -12.242188 L 6.265625 -12.242188 L 6.265625 -14.003906 L 4.523438 -14.003906 L 4.523438 -12.242188 L 0.878906 -12.242188 L 0.878906 -10.855469 L 9.90625 -10.855469 Z M 3.351562 -7.25 C 3.351562 -8.214844 4.183594 -8.789062 5.386719 -8.789062 C 6.605469 -8.789062 7.433594 -8.214844 7.433594 -7.25 C 7.433594 -6.28125 6.605469 -5.707031 5.386719 -5.707031 C 4.183594 -5.707031 3.351562 -6.28125 3.351562 -7.25 Z M 9.09375 -7.25 C 9.09375 -8.976562 7.585938 -10.144531 5.386719 -10.144531 C 3.199219 -10.144531 1.675781 -8.976562 1.675781 -7.25 C 1.675781 -5.503906 3.199219 -4.351562 5.386719 -4.351562 C 7.585938 -4.351562 9.09375 -5.503906 9.09375 -7.25 Z M 4.878906 -3.402344 L 3.117188 -3.402344 L 3.117188 1.015625 L 13.414062 1.015625 L 13.414062 -0.40625 L 4.878906 -0.40625 Z M 12.804688 -9.109375 L 12.804688 -13.988281 L 11.058594 -13.988281 L 11.058594 -2.523438 L 12.804688 -2.523438 L 12.804688 -7.671875 L 14.96875 -7.671875 L 14.96875 -9.109375 Z M 12.804688 -9.109375 "/></g></g></g><g fill="#ffffff" fill-opacity="1"><g transform="translate(377.078351, 190.033107)"><g/></g></g><g fill="#ffffff" fill-opacity="1"><g transform="translate(380.888392, 190.033107)"><g><path d="M 11.683594 -14.003906 L 11.683594 1.335938 L 13.445312 1.335938 L 13.445312 -14.003906 Z M 5.300781 -12.871094 C 3.03125 -12.871094 1.371094 -10.769531 1.371094 -7.484375 C 1.371094 -4.167969 3.03125 -2.082031 5.300781 -2.082031 C 7.585938 -2.082031 9.246094 -4.167969 9.246094 -7.484375 C 9.246094 -10.769531 7.585938 -12.871094 5.300781 -12.871094 Z M 5.300781 -11.296875 C 6.636719 -11.296875 7.570312 -9.855469 7.570312 -7.484375 C 7.570312 -5.082031 6.636719 -3.640625 5.300781 -3.640625 C 3.980469 -3.640625 3.046875 -5.082031 3.046875 -7.484375 C 3.046875 -9.855469 3.980469 -11.296875 5.300781 -11.296875 Z M 5.300781 -11.296875 "/></g></g></g><g fill="#ffffff" fill-opacity="1"><g transform="translate(396.467227, 190.033107)"><g><path d="M 7.773438 -12.464844 C 10.058594 -12.464844 11.414062 -11.921875 11.414062 -10.957031 C 11.414062 -9.976562 10.058594 -9.433594 7.773438 -9.433594 C 5.488281 -9.433594 4.113281 -9.976562 4.113281 -10.957031 C 4.113281 -11.921875 5.488281 -12.464844 7.773438 -12.464844 Z M 7.773438 -8.09375 C 11.125 -8.09375 13.226562 -9.160156 13.226562 -10.957031 C 13.226562 -12.734375 11.125 -13.800781 7.773438 -13.800781 C 4.421875 -13.800781 2.320312 -12.734375 2.320312 -10.957031 C 2.320312 -9.160156 4.421875 -8.09375 7.773438 -8.09375 Z M 8.636719 -3.453125 L 6.824219 -3.453125 L 6.824219 -3.066406 C 6.824219 -1.644531 4.808594 -0.355469 1.796875 -0.0664062 L 2.371094 1.253906 C 4.84375 1 6.789062 0.0859375 7.722656 -1.234375 C 8.652344 0.117188 10.617188 1 13.109375 1.253906 L 13.667969 -0.0664062 C 10.617188 -0.339844 8.636719 -1.59375 8.636719 -3.066406 Z M 0.847656 -7.113281 L 0.847656 -5.707031 L 6.875 -5.707031 L 6.875 -4.132812 L 8.621094 -4.132812 L 8.621094 -5.707031 L 14.714844 -5.707031 L 14.714844 -7.113281 Z M 0.847656 -7.113281 "/></g></g></g><g fill="#ffffff" fill-opacity="1"><g transform="translate(412.046061, 190.033107)"><g><path d="M 10.296875 -7.265625 C 7.941406 -7.976562 6.554688 -9.738281 6.554688 -11.601562 L 6.554688 -11.667969 L 9.824219 -11.667969 L 9.824219 -13.074219 L 1.457031 -13.074219 L 1.457031 -11.667969 L 4.777344 -11.667969 L 4.777344 -11.601562 C 4.777344 -9.636719 3.386719 -7.757812 0.980469 -7.011719 L 1.863281 -5.640625 C 3.691406 -6.230469 4.996094 -7.46875 5.691406 -9.027344 C 6.382812 -7.585938 7.6875 -6.453125 9.449219 -5.910156 Z M 11.734375 -0.289062 L 5.199219 -0.289062 L 5.199219 -1.980469 L 11.734375 -1.980469 Z M 11.734375 -3.351562 L 5.199219 -3.351562 L 5.199219 -4.996094 L 3.472656 -4.996094 L 3.472656 1.117188 L 13.464844 1.117188 L 13.464844 -4.996094 L 11.734375 -4.996094 Z M 11.71875 -14.003906 L 11.71875 -5.691406 L 13.464844 -5.691406 L 13.464844 -14.003906 Z M 11.71875 -14.003906 "/></g></g></g><g fill="#ffffff" fill-opacity="1"><g transform="translate(427.624896, 190.033107)"><g/></g></g><g fill="#ffffff" fill-opacity="1"><g transform="translate(431.434944, 190.033107)"><g><path d="M 1.421875 -12.058594 L 1.421875 -10.636719 L 5.707031 -10.636719 C 5.46875 -7.554688 4.082031 -5.046875 0.777344 -3.132812 L 1.796875 -1.898438 C 6.097656 -4.371094 7.433594 -7.976562 7.433594 -12.058594 Z M 12.210938 -13.988281 L 12.210938 -8.011719 L 10.464844 -8.011719 L 10.464844 -13.582031 L 8.824219 -13.582031 L 8.824219 0.59375 L 10.464844 0.59375 L 10.464844 -6.585938 L 12.210938 -6.585938 L 12.210938 1.304688 L 13.871094 1.304688 L 13.871094 -13.988281 Z M 12.210938 -13.988281 "/></g></g></g><g fill="#ffffff" fill-opacity="1"><g transform="translate(447.013778, 190.033107)"><g><path d="M 6.875 -8.042969 L 3.132812 -8.042969 L 3.132812 -9.992188 L 6.875 -9.992188 Z M 8.601562 -13.34375 L 6.875 -13.34375 L 6.875 -11.328125 L 3.132812 -11.328125 L 3.132812 -13.34375 L 1.390625 -13.34375 L 1.390625 -6.65625 L 8.601562 -6.65625 Z M 4.675781 -1.558594 L 12.804688 -1.558594 L 12.804688 -5.46875 L 2.929688 -5.46875 L 2.929688 -4.113281 L 11.074219 -4.113281 L 11.074219 -2.84375 L 2.964844 -2.84375 L 2.964844 1.167969 L 13.3125 1.167969 L 13.3125 -0.203125 L 4.675781 -0.203125 Z M 12.804688 -10.855469 L 12.804688 -13.988281 L 11.058594 -13.988281 L 11.058594 -6.148438 L 12.804688 -6.148438 L 12.804688 -9.414062 L 14.953125 -9.414062 L 14.953125 -10.855469 Z M 12.804688 -10.855469 "/></g></g></g><g fill="#ffffff" fill-opacity="1"><g transform="translate(462.592613, 190.033107)"><g><path d="M 6.214844 -11.023438 L 9.449219 -11.023438 L 9.449219 -12.464844 L 1.132812 -12.464844 L 1.132812 -11.023438 L 4.472656 -11.023438 L 4.472656 -9.550781 C 4.472656 -7.011719 2.914062 -4.113281 0.574219 -2.996094 L 1.574219 -1.609375 C 3.335938 -2.472656 4.691406 -4.300781 5.367188 -6.433594 C 6.0625 -4.503906 7.367188 -2.8125 9.078125 -2 L 10.042969 -3.371094 C 7.722656 -4.472656 6.214844 -7.179688 6.214844 -9.550781 Z M 15.089844 -7.960938 L 12.703125 -7.960938 L 12.703125 -13.988281 L 10.957031 -13.988281 L 10.957031 1.304688 L 12.703125 1.304688 L 12.703125 -6.519531 L 15.089844 -6.519531 Z M 15.089844 -7.960938 "/></g></g></g><g fill="#ffffff" fill-opacity="1"><g transform="translate(478.171447, 190.033107)"><g><path d="M 6.503906 -4.929688 C 7.367188 -4.929688 8.265625 -5.4375 9.027344 -6.722656 L 7.976562 -7.503906 C 7.535156 -6.738281 7.078125 -6.351562 6.535156 -6.351562 C 5.46875 -6.351562 4.707031 -7.925781 3.183594 -7.925781 C 2.320312 -7.925781 1.421875 -7.417969 0.644531 -6.113281 L 1.710938 -5.351562 C 2.117188 -6.128906 2.609375 -6.484375 3.148438 -6.484375 C 4.21875 -6.484375 4.960938 -4.929688 6.503906 -4.929688 Z M 6.503906 -4.929688 "/></g></g></g></svg>