<svg xmlns="http://www.w3.org/2000/svg" xmlns:xlink="http://www.w3.org/1999/xlink" width="300" zoomAndPan="magnify" viewBox="0 0 224.87999 74.999997" height="100" preserveAspectRatio="xMidYMid meet" version="1.0"><defs><g/></defs><g fill="#e83f64" fill-opacity="1"><g transform="translate(69.842583, 56.860861)"><g><path d="M 15.058594 -4.664062 C 16.300781 -5.0625 16.746094 -6.261719 16.523438 -7.285156 C 16.347656 -8.171875 15.457031 -8.882812 14.171875 -8.484375 C 11.371094 -7.550781 9.507812 -7.550781 8.308594 -8.128906 C 7.105469 -8.664062 6.53125 -11.105469 6.351562 -15.058594 C 6.175781 -18.96875 6.441406 -24.433594 7.152344 -31.007812 C 7.195312 -32.207031 6.398438 -33.273438 5.199219 -33.273438 C 3.953125 -33.273438 3.199219 -32.382812 3.019531 -31.183594 C 2.488281 -23.855469 2.265625 -17.636719 2.621094 -13.015625 C 2.976562 -8.441406 3.996094 -5.417969 6.128906 -4.488281 C 7.417969 -3.820312 9.0625 -3.730469 10.660156 -3.863281 C 12.261719 -3.996094 13.816406 -4.308594 15.058594 -4.664062 Z M 15.058594 -4.664062 "/></g></g></g><g fill="#e83f64" fill-opacity="1"><g transform="translate(87.388957, 56.860861)"><g><path d="M 6.929688 -28.472656 C 8.664062 -28.828125 10.261719 -29.097656 11.859375 -29.273438 C 13.414062 -29.453125 15.238281 -29.628906 17.367188 -29.628906 C 18.300781 -29.628906 18.703125 -30.074219 18.523438 -31.273438 C 18.390625 -32.472656 17.679688 -33.050781 16.613281 -33.183594 C 14.480469 -33.183594 12.394531 -33.09375 10.4375 -32.917969 C 8.484375 -32.738281 6.707031 -32.382812 5.242188 -32.027344 C 4.351562 -31.761719 3.777344 -31.449219 3.464844 -31.09375 C 3.152344 -30.738281 2.976562 -29.984375 2.84375 -28.828125 C 2.53125 -26.386719 2.578125 -23.144531 2.753906 -18.878906 C 2.933594 -14.613281 3.242188 -11.238281 3.777344 -7.019531 C 3.820312 -5.953125 4.175781 -5.285156 4.664062 -4.929688 C 5.0625 -4.441406 5.820312 -4.175781 7.0625 -4.132812 C 8.171875 -4.085938 9.863281 -4.085938 12.171875 -4.132812 C 14.480469 -4.175781 16.746094 -4.441406 19.058594 -4.929688 C 20.257812 -5.109375 20.746094 -5.820312 20.699219 -7.019531 C 20.699219 -8.21875 19.902344 -8.527344 18.523438 -8.484375 C 16.878906 -8.128906 15.101562 -7.953125 13.328125 -7.773438 C 11.503906 -7.597656 9.460938 -7.597656 7.683594 -7.773438 C 7.328125 -10.394531 7.152344 -12.703125 6.972656 -15.679688 L 17.8125 -16.4375 C 19.058594 -16.480469 19.722656 -17.191406 19.902344 -18.433594 C 19.902344 -19.5 18.921875 -19.988281 17.636719 -19.988281 L 6.929688 -19.234375 C 6.796875 -23.5 6.796875 -26.652344 6.929688 -28.472656 Z M 6.929688 -28.472656 "/></g></g></g><g fill="#e83f64" fill-opacity="1"><g transform="translate(109.066507, 56.860861)"><g><path d="M 6.574219 -12.039062 C 9.816406 -12.394531 13.546875 -12.527344 15.992188 -12.660156 L 18.433594 -5.375 C 19.101562 -3.953125 20.300781 -3.820312 21.1875 -4.21875 C 22.078125 -4.621094 22.65625 -5.820312 22.167969 -7.019531 L 13.058594 -32.027344 C 12.703125 -32.960938 12.128906 -33.359375 11.238281 -33.359375 C 10.527344 -33.359375 9.863281 -32.78125 9.507812 -32.027344 C 8.839844 -30.515625 8.039062 -28.519531 7.152344 -25.988281 C 6.261719 -23.5 5.375 -20.921875 4.53125 -18.300781 L 2.175781 -10.925781 L 0.667969 -5.953125 C 0.3125 -4.664062 1.109375 -3.730469 2.042969 -3.554688 C 2.796875 -3.421875 4.042969 -3.777344 4.574219 -5.199219 Z M 14.96875 -15.945312 C 12.128906 -15.8125 9.863281 -15.769531 7.597656 -15.59375 L 11.148438 -27.542969 Z M 14.96875 -15.945312 "/></g></g></g><g fill="#e83f64" fill-opacity="1"><g transform="translate(132.165531, 56.860861)"><g><path d="M 6.128906 -19.722656 C 5.953125 -24.34375 5.953125 -27.496094 5.953125 -29.628906 C 9.863281 -30.160156 12.972656 -30.160156 14.4375 -29.453125 C 15.859375 -28.605469 16.703125 -27.363281 16.703125 -25.632812 C 16.703125 -23.632812 15.636719 -22.121094 13.859375 -21.234375 C 11.90625 -20.210938 9.195312 -19.765625 6.128906 -19.722656 Z M 6.308594 -15.859375 C 8.484375 -14.304688 10.75 -12.394531 12.570312 -10.4375 C 14.390625 -8.527344 15.902344 -6.574219 16.792969 -5.109375 C 17.011719 -4.574219 17.722656 -4.308594 18.433594 -4.308594 C 19.144531 -4.265625 19.8125 -4.441406 20.167969 -4.84375 C 20.746094 -5.597656 20.921875 -6.53125 20.078125 -7.773438 C 19.277344 -8.839844 18.035156 -10.21875 16.390625 -11.859375 C 14.746094 -13.546875 12.972656 -15.148438 10.972656 -16.613281 C 13.328125 -17.148438 15.726562 -18.035156 17.503906 -19.457031 C 19.324219 -20.921875 20.566406 -22.878906 20.613281 -25.542969 C 20.65625 -28.742188 19.679688 -30.960938 17.367188 -32.207031 C 15.058594 -33.449219 10.75 -33.671875 4.664062 -33.003906 C 3.996094 -32.871094 3.289062 -32.828125 2.753906 -32.515625 C 2.222656 -32.207031 1.820312 -31.671875 1.953125 -30.652344 C 2.085938 -29.808594 2.175781 -28.5625 2.222656 -27.140625 L 2.398438 -22.878906 C 2.53125 -19.101562 2.578125 -15.414062 2.578125 -12.347656 C 2.578125 -9.328125 2.488281 -6.839844 2.488281 -5.550781 C 2.53125 -4.265625 3.464844 -3.6875 4.351562 -3.730469 C 5.242188 -3.730469 6.085938 -4.351562 6.21875 -5.464844 C 6.261719 -8.839844 6.308594 -12.703125 6.308594 -15.859375 Z M 6.308594 -15.859375 "/></g></g></g><g fill="#e83f64" fill-opacity="1"><g transform="translate(155.264555, 56.860861)"><g><path d="M 18.347656 -4.398438 C 18.566406 -3.996094 19.101562 -3.730469 19.8125 -3.730469 C 20.878906 -3.597656 21.765625 -4.265625 22.078125 -5.863281 C 22.789062 -13.503906 22.789062 -22.34375 22.433594 -31.09375 C 22.433594 -32.339844 21.410156 -33.226562 20.390625 -33.273438 C 19.324219 -33.40625 18.300781 -32.695312 18.433594 -30.917969 C 18.789062 -22.386719 18.921875 -16.035156 18.703125 -11.0625 L 7.328125 -31.714844 C 6.929688 -32.78125 5.953125 -33.316406 4.753906 -33.273438 C 3.464844 -33.09375 2.84375 -32.207031 2.84375 -30.652344 C 2.664062 -24.652344 2.710938 -20.257812 2.753906 -16.480469 C 2.886719 -12.617188 3.109375 -9.417969 3.464844 -5.730469 C 3.464844 -4.488281 4.21875 -3.820312 5.507812 -3.820312 C 6.796875 -3.820312 7.242188 -4.664062 7.242188 -6.128906 C 6.929688 -9.640625 6.886719 -12.347656 6.753906 -15.324219 C 6.617188 -18.300781 6.574219 -21.5 6.398438 -25.988281 L 18.257812 -4.308594 Z M 18.347656 -4.398438 "/></g></g></g></svg>