<svg xmlns="http://www.w3.org/2000/svg" xmlns:xlink="http://www.w3.org/1999/xlink" width="300" zoomAndPan="magnify" viewBox="0 0 224.87999 74.999997" height="100" preserveAspectRatio="xMidYMid meet" version="1.0"><defs><g/></defs><g fill="#e83f64" fill-opacity="1"><g transform="translate(83.235638, 56.86086)"><g><path d="M 2.578125 -32.382812 C 1.15625 -32.027344 0.753906 -31.007812 0.753906 -30.117188 C 0.933594 -29.050781 1.6875 -28.296875 2.753906 -28.472656 C 4.488281 -28.695312 6.261719 -29.007812 8.21875 -29.183594 C 8.171875 -26.386719 8.128906 -22.03125 8.128906 -17.636719 L 8.128906 -6.042969 C 8.128906 -4.796875 8.929688 -4.085938 9.949219 -4.085938 C 11.328125 -4.085938 12.128906 -5.0625 12.128906 -6.128906 C 12.128906 -9.015625 12.128906 -13.636719 12.171875 -18.125 L 12.171875 -29.453125 C 13.949219 -29.496094 15.992188 -29.496094 17.992188 -29.453125 C 18.878906 -29.316406 19.546875 -30.160156 19.546875 -31.183594 C 19.546875 -32.070312 19.011719 -33.183594 17.902344 -33.359375 C 12.75 -33.359375 8.394531 -33.136719 2.578125 -32.382812 Z M 2.578125 -32.382812 "/></g></g></g><g fill="#e83f64" fill-opacity="1"><g transform="translate(103.713815, 56.86086)"><g><path d="M 6.929688 -28.472656 C 8.664062 -28.828125 10.261719 -29.097656 11.859375 -29.273438 C 13.414062 -29.453125 15.238281 -29.628906 17.367188 -29.628906 C 18.300781 -29.628906 18.703125 -30.074219 18.523438 -31.273438 C 18.390625 -32.472656 17.679688 -33.050781 16.613281 -33.183594 C 14.480469 -33.183594 12.394531 -33.09375 10.4375 -32.917969 C 8.484375 -32.738281 6.707031 -32.382812 5.242188 -32.027344 C 4.351562 -31.761719 3.777344 -31.449219 3.464844 -31.09375 C 3.152344 -30.738281 2.976562 -29.984375 2.84375 -28.828125 C 2.53125 -26.386719 2.578125 -23.144531 2.753906 -18.878906 C 2.933594 -14.613281 3.242188 -11.238281 3.777344 -7.019531 C 3.820312 -5.953125 4.175781 -5.285156 4.664062 -4.929688 C 5.0625 -4.441406 5.820312 -4.175781 7.0625 -4.132812 C 8.171875 -4.085938 9.863281 -4.085938 12.171875 -4.132812 C 14.480469 -4.175781 16.746094 -4.441406 19.058594 -4.929688 C 20.257812 -5.109375 20.746094 -5.820312 20.699219 -7.019531 C 20.699219 -8.21875 19.902344 -8.527344 18.523438 -8.484375 C 16.878906 -8.128906 15.101562 -7.953125 13.328125 -7.773438 C 11.503906 -7.597656 9.460938 -7.597656 7.683594 -7.773438 C 7.328125 -10.394531 7.152344 -12.703125 6.972656 -15.679688 L 17.8125 -16.4375 C 19.058594 -16.480469 19.722656 -17.191406 19.902344 -18.433594 C 19.902344 -19.5 18.921875 -19.988281 17.636719 -19.988281 L 6.929688 -19.234375 C 6.796875 -23.5 6.796875 -26.652344 6.929688 -28.472656 Z M 6.929688 -28.472656 "/></g></g></g><g fill="#e83f64" fill-opacity="1"><g transform="translate(125.391363, 56.86086)"><g><path d="M 4.574219 -11.503906 C 3.730469 -12.75 2.621094 -12.792969 1.734375 -12.128906 C 0.710938 -11.417969 0.175781 -10.21875 0.84375 -9.195312 C 2.222656 -6.886719 4.085938 -5.417969 6.175781 -4.574219 C 8.261719 -3.730469 10.394531 -3.597656 12.480469 -3.996094 C 14.480469 -4.351562 16.390625 -5.332031 17.679688 -6.617188 C 19.058594 -7.90625 19.902344 -9.683594 19.902344 -11.683594 C 19.902344 -14.527344 19.011719 -16.4375 17.722656 -17.8125 C 16.4375 -19.101562 14.703125 -19.902344 12.972656 -20.566406 C 11.195312 -21.144531 9.460938 -21.632812 8.171875 -22.34375 C 6.886719 -23.054688 6.042969 -24.03125 6.042969 -25.632812 C 6.042969 -27.808594 7.597656 -29.140625 9.550781 -29.496094 C 11.550781 -29.808594 13.949219 -29.140625 15.726562 -27.542969 C 16.96875 -26.429688 18.035156 -26.832031 18.613281 -27.585938 C 19.191406 -28.429688 19.324219 -29.628906 18.789062 -30.296875 C 15.945312 -33.183594 11.683594 -33.894531 8.128906 -33.003906 C 4.574219 -32.070312 1.734375 -29.40625 1.734375 -25.632812 C 1.734375 -23.320312 2.578125 -21.855469 3.863281 -20.65625 C 5.152344 -19.546875 6.929688 -18.835938 8.664062 -18.125 C 10.394531 -17.457031 12.171875 -16.792969 13.460938 -15.859375 C 14.746094 -14.925781 15.636719 -13.683594 15.636719 -11.773438 C 15.636719 -9.640625 13.902344 -7.996094 11.636719 -7.683594 C 9.328125 -7.328125 6.574219 -8.308594 4.574219 -11.503906 Z M 4.574219 -11.503906 "/></g></g></g><g fill="#e83f64" fill-opacity="1"><g transform="translate(146.980069, 56.86086)"><g><path d="M 2.578125 -32.382812 C 1.15625 -32.027344 0.753906 -31.007812 0.753906 -30.117188 C 0.933594 -29.050781 1.6875 -28.296875 2.753906 -28.472656 C 4.488281 -28.695312 6.261719 -29.007812 8.21875 -29.183594 C 8.171875 -26.386719 8.128906 -22.03125 8.128906 -17.636719 L 8.128906 -6.042969 C 8.128906 -4.796875 8.929688 -4.085938 9.949219 -4.085938 C 11.328125 -4.085938 12.128906 -5.0625 12.128906 -6.128906 C 12.128906 -9.015625 12.128906 -13.636719 12.171875 -18.125 L 12.171875 -29.453125 C 13.949219 -29.496094 15.992188 -29.496094 17.992188 -29.453125 C 18.878906 -29.316406 19.546875 -30.160156 19.546875 -31.183594 C 19.546875 -32.070312 19.011719 -33.183594 17.902344 -33.359375 C 12.75 -33.359375 8.394531 -33.136719 2.578125 -32.382812 Z M 2.578125 -32.382812 "/></g></g></g></svg>