<svg xmlns="http://www.w3.org/2000/svg" xmlns:xlink="http://www.w3.org/1999/xlink" width="40" zoomAndPan="magnify" viewBox="0 0 30 30.000001" height="40" preserveAspectRatio="xMidYMid meet" version="1.0"><defs><clipPath id="5c13020d5b"><path d="M 0.484375 1 L 29.515625 1 L 29.515625 29 L 0.484375 29 Z M 0.484375 1 " clip-rule="nonzero"/></clipPath><clipPath id="40d6a7d7a5"><path d="M 1 0.863281 L 29.300781 1.390625 L 28.785156 28.96875 L 0.484375 28.441406 Z M 1 0.863281 " clip-rule="nonzero"/></clipPath><clipPath id="04ea3f2be7"><path d="M 1 0.863281 L 29.300781 1.390625 L 28.785156 28.96875 L 0.484375 28.441406 Z M 1 0.863281 " clip-rule="nonzero"/></clipPath><clipPath id="1cb743425f"><path d="M 1 0.863281 L 29.300781 1.390625 L 28.785156 28.96875 L 0.484375 28.441406 Z M 1 0.863281 " clip-rule="nonzero"/></clipPath><clipPath id="d9c605c9bb"><path d="M 2 25 L 6 25 L 6 27 L 2 27 Z M 2 25 " clip-rule="nonzero"/></clipPath><clipPath id="97fa1667cd"><path d="M 1 0.863281 L 29.300781 1.390625 L 28.785156 28.96875 L 0.484375 28.441406 Z M 1 0.863281 " clip-rule="nonzero"/></clipPath><clipPath id="32b6344ecc"><path d="M 1 0.863281 L 29.300781 1.390625 L 28.785156 28.96875 L 0.484375 28.441406 Z M 1 0.863281 " clip-rule="nonzero"/></clipPath><clipPath id="b2fe979d8e"><path d="M 1 0.863281 L 29.300781 1.390625 L 28.785156 28.96875 L 0.484375 28.441406 Z M 1 0.863281 " clip-rule="nonzero"/></clipPath><clipPath id="9ee25c9e9a"><path d="M 5 25 L 6 25 L 6 26 L 5 26 Z M 5 25 " clip-rule="nonzero"/></clipPath><clipPath id="e87a0f7d7c"><path d="M 1 0.863281 L 29.300781 1.390625 L 28.785156 28.96875 L 0.484375 28.441406 Z M 1 0.863281 " clip-rule="nonzero"/></clipPath><clipPath id="69e0d5d0f9"><path d="M 1 0.863281 L 29.300781 1.390625 L 28.785156 28.96875 L 0.484375 28.441406 Z M 1 0.863281 " clip-rule="nonzero"/></clipPath><clipPath id="3aa6b8e56b"><path d="M 1 0.863281 L 29.300781 1.390625 L 28.785156 28.96875 L 0.484375 28.441406 Z M 1 0.863281 " clip-rule="nonzero"/></clipPath><clipPath id="cdaf00e396"><path d="M 16 22 L 21 22 L 21 23 L 16 23 Z M 16 22 " clip-rule="nonzero"/></clipPath><clipPath id="6505ac14b9"><path d="M 1 0.863281 L 29.300781 1.390625 L 28.785156 28.96875 L 0.484375 28.441406 Z M 1 0.863281 " clip-rule="nonzero"/></clipPath><clipPath id="adde5712bd"><path d="M 1 0.863281 L 29.300781 1.390625 L 28.785156 28.96875 L 0.484375 28.441406 Z M 1 0.863281 " clip-rule="nonzero"/></clipPath><clipPath id="942a5647ee"><path d="M 1 0.863281 L 29.300781 1.390625 L 28.785156 28.96875 L 0.484375 28.441406 Z M 1 0.863281 " clip-rule="nonzero"/></clipPath><clipPath id="c1ba2ec824"><path d="M 20 22 L 21 22 L 21 23 L 20 23 Z M 20 22 " clip-rule="nonzero"/></clipPath><clipPath id="991554505f"><path d="M 1 0.863281 L 29.300781 1.390625 L 28.785156 28.96875 L 0.484375 28.441406 Z M 1 0.863281 " clip-rule="nonzero"/></clipPath><clipPath id="7275230c74"><path d="M 1 0.863281 L 29.300781 1.390625 L 28.785156 28.96875 L 0.484375 28.441406 Z M 1 0.863281 " clip-rule="nonzero"/></clipPath><clipPath id="b047b14f7b"><path d="M 1 0.863281 L 29.300781 1.390625 L 28.785156 28.96875 L 0.484375 28.441406 Z M 1 0.863281 " clip-rule="nonzero"/></clipPath><clipPath id="df088fc722"><path d="M 25 7 L 26 7 L 26 8 L 25 8 Z M 25 7 " clip-rule="nonzero"/></clipPath><clipPath id="6afb744d50"><path d="M 1 0.863281 L 29.300781 1.390625 L 28.785156 28.96875 L 0.484375 28.441406 Z M 1 0.863281 " clip-rule="nonzero"/></clipPath><clipPath id="ec8b8dddee"><path d="M 1 0.863281 L 29.300781 1.390625 L 28.785156 28.96875 L 0.484375 28.441406 Z M 1 0.863281 " clip-rule="nonzero"/></clipPath><clipPath id="9a7732c45a"><path d="M 1 0.863281 L 29.300781 1.390625 L 28.785156 28.96875 L 0.484375 28.441406 Z M 1 0.863281 " clip-rule="nonzero"/></clipPath><clipPath id="6326b74b1a"><path d="M 3 22 L 4 22 L 4 23 L 3 23 Z M 3 22 " clip-rule="nonzero"/></clipPath><clipPath id="525f9ac0d6"><path d="M 1 0.863281 L 29.300781 1.390625 L 28.785156 28.96875 L 0.484375 28.441406 Z M 1 0.863281 " clip-rule="nonzero"/></clipPath><clipPath id="b8a933ffe3"><path d="M 1 0.863281 L 29.300781 1.390625 L 28.785156 28.96875 L 0.484375 28.441406 Z M 1 0.863281 " clip-rule="nonzero"/></clipPath><clipPath id="b6503f5a80"><path d="M 1 0.863281 L 29.300781 1.390625 L 28.785156 28.96875 L 0.484375 28.441406 Z M 1 0.863281 " clip-rule="nonzero"/></clipPath><clipPath id="74f9194b9a"><path d="M 23 1 L 27 1 L 27 3 L 23 3 Z M 23 1 " clip-rule="nonzero"/></clipPath><clipPath id="a14fe74923"><path d="M 1 0.863281 L 29.300781 1.390625 L 28.785156 28.96875 L 0.484375 28.441406 Z M 1 0.863281 " clip-rule="nonzero"/></clipPath><clipPath id="7b010d50a7"><path d="M 1 0.863281 L 29.300781 1.390625 L 28.785156 28.96875 L 0.484375 28.441406 Z M 1 0.863281 " clip-rule="nonzero"/></clipPath><clipPath id="d24d9f1d83"><path d="M 1 0.863281 L 29.300781 1.390625 L 28.785156 28.96875 L 0.484375 28.441406 Z M 1 0.863281 " clip-rule="nonzero"/></clipPath><clipPath id="4f5be65410"><path d="M 26 2 L 27 2 L 27 3 L 26 3 Z M 26 2 " clip-rule="nonzero"/></clipPath><clipPath id="296ab0f6e3"><path d="M 1 0.863281 L 29.300781 1.390625 L 28.785156 28.96875 L 0.484375 28.441406 Z M 1 0.863281 " clip-rule="nonzero"/></clipPath><clipPath id="d293ad1a78"><path d="M 1 0.863281 L 29.300781 1.390625 L 28.785156 28.96875 L 0.484375 28.441406 Z M 1 0.863281 " clip-rule="nonzero"/></clipPath><clipPath id="d3b01dd11b"><path d="M 1 0.863281 L 29.300781 1.390625 L 28.785156 28.96875 L 0.484375 28.441406 Z M 1 0.863281 " clip-rule="nonzero"/></clipPath><clipPath id="3a0ba23570"><path d="M 6 25 L 7 25 L 7 26 L 6 26 Z M 6 25 " clip-rule="nonzero"/></clipPath><clipPath id="b447059303"><path d="M 1 0.863281 L 29.300781 1.390625 L 28.785156 28.96875 L 0.484375 28.441406 Z M 1 0.863281 " clip-rule="nonzero"/></clipPath><clipPath id="64296bbd17"><path d="M 1 0.863281 L 29.300781 1.390625 L 28.785156 28.96875 L 0.484375 28.441406 Z M 1 0.863281 " clip-rule="nonzero"/></clipPath><clipPath id="b0760ad1a1"><path d="M 1 0.863281 L 29.300781 1.390625 L 28.785156 28.96875 L 0.484375 28.441406 Z M 1 0.863281 " clip-rule="nonzero"/></clipPath></defs><g clip-path="url(#5c13020d5b)"><g clip-path="url(#40d6a7d7a5)"><g clip-path="url(#04ea3f2be7)"><g clip-path="url(#1cb743425f)"><path fill="#000000" d="M 29.03125 8.386719 C 28.996094 8.367188 28.957031 8.355469 28.914062 8.355469 L 28.738281 8.363281 C 28.371094 8.371094 28.125 8.375 28.003906 8.375 C 27.882812 8.378906 27.75 8.382812 27.609375 8.382812 C 27.46875 8.386719 27.289062 8.390625 27.070312 8.394531 L 27.011719 8.398438 C 27.046875 8.289062 27.078125 8.191406 27.105469 8.101562 C 27.136719 8.011719 27.167969 7.910156 27.203125 7.800781 C 27.238281 7.6875 27.269531 7.59375 27.292969 7.515625 C 27.320312 7.441406 27.359375 7.316406 27.414062 7.148438 C 27.449219 7.039062 27.472656 6.953125 27.492188 6.894531 C 27.523438 6.867188 27.542969 6.832031 27.550781 6.789062 C 27.574219 6.679688 27.503906 6.574219 27.390625 6.550781 L 27.125 6.496094 C 27.121094 6.480469 27.117188 6.472656 27.117188 6.46875 C 27.113281 6.449219 27.097656 6.378906 27.074219 6.261719 C 27.046875 6.125 27.019531 5.992188 26.996094 5.867188 C 26.972656 5.742188 26.949219 5.554688 26.917969 5.316406 C 26.882812 5 26.875 4.917969 26.871094 4.894531 C 26.871094 4.867188 26.867188 4.765625 26.859375 4.429688 C 26.851562 4.160156 26.851562 3.945312 26.855469 3.789062 C 26.859375 3.625 26.863281 3.53125 26.863281 3.5 C 26.863281 3.464844 26.855469 3.429688 26.839844 3.402344 C 26.859375 3.351562 26.875 3.304688 26.890625 3.261719 C 26.949219 3.109375 27.019531 2.902344 27.109375 2.644531 C 27.203125 2.386719 27.265625 2.207031 27.296875 2.109375 C 27.332031 2.011719 27.367188 1.914062 27.402344 1.8125 C 27.457031 1.652344 27.460938 1.644531 27.464844 1.636719 C 27.496094 1.527344 27.433594 1.414062 27.324219 1.382812 C 27.257812 1.363281 27.191406 1.378906 27.144531 1.414062 C 27.136719 1.414062 27.128906 1.414062 27.121094 1.410156 C 27.015625 1.40625 26.9375 1.402344 26.886719 1.398438 C 26.835938 1.398438 26.785156 1.394531 26.730469 1.390625 C 26.683594 1.390625 26.601562 1.386719 26.488281 1.382812 C 26.375 1.378906 26.265625 1.378906 26.160156 1.375 L 25.839844 1.367188 C 25.726562 1.363281 25.578125 1.363281 25.390625 1.359375 C 25.199219 1.355469 24.9375 1.355469 24.585938 1.355469 C 24.242188 1.351562 23.996094 1.351562 23.855469 1.355469 C 23.71875 1.355469 23.507812 1.359375 23.230469 1.367188 C 22.953125 1.371094 22.589844 1.382812 22.117188 1.398438 C 21.65625 1.410156 21.347656 1.421875 21.191406 1.425781 C 21.03125 1.429688 20.859375 1.433594 20.675781 1.441406 C 20.488281 1.449219 20.214844 1.460938 19.863281 1.476562 C 19.511719 1.496094 19.191406 1.515625 18.910156 1.535156 C 18.628906 1.554688 18.378906 1.574219 18.164062 1.589844 C 17.949219 1.605469 17.652344 1.625 17.273438 1.652344 C 16.898438 1.679688 16.605469 1.699219 16.40625 1.710938 C 16.207031 1.722656 15.933594 1.734375 15.59375 1.75 C 15.253906 1.765625 15.042969 1.773438 14.960938 1.777344 C 14.875 1.777344 14.753906 1.78125 14.597656 1.789062 C 14.4375 1.792969 14.214844 1.804688 13.933594 1.816406 C 13.648438 1.832031 13.429688 1.84375 13.285156 1.855469 C 13.136719 1.863281 12.960938 1.878906 12.765625 1.902344 C 12.570312 1.921875 12.394531 1.941406 12.242188 1.964844 C 12.09375 1.988281 11.976562 2.003906 11.898438 2.015625 C 11.820312 2.03125 11.742188 2.042969 11.675781 2.054688 C 11.613281 2.0625 11.5625 2.074219 11.523438 2.078125 C 11.511719 2.070312 11.496094 2.0625 11.480469 2.054688 C 11.378906 2.011719 11.257812 2.058594 11.214844 2.164062 C 11.152344 2.316406 11.113281 2.40625 11.101562 2.4375 C 11.089844 2.464844 11.074219 2.503906 11.054688 2.550781 C 11.035156 2.601562 11.015625 2.648438 10.996094 2.695312 C 10.980469 2.734375 10.957031 2.789062 10.929688 2.859375 C 10.847656 2.84375 10.765625 2.832031 10.695312 2.828125 C 10.617188 2.824219 10.53125 2.828125 10.4375 2.835938 C 10.339844 2.84375 10.25 2.859375 10.164062 2.882812 C 10.078125 2.90625 10.015625 2.925781 9.964844 2.945312 C 9.914062 2.964844 9.847656 3 9.753906 3.050781 C 9.660156 3.101562 9.566406 3.164062 9.480469 3.230469 C 9.394531 3.296875 9.320312 3.363281 9.261719 3.425781 C 9.199219 3.488281 9.125 3.578125 9.035156 3.699219 C 8.941406 3.824219 8.875 3.921875 8.835938 4 C 8.796875 4.070312 8.753906 4.164062 8.703125 4.285156 C 8.652344 4.402344 8.625 4.480469 8.609375 4.527344 C 8.59375 4.574219 8.574219 4.644531 8.554688 4.734375 C 8.53125 4.828125 8.515625 4.925781 8.5 5.027344 C 8.488281 5.132812 8.480469 5.257812 8.480469 5.410156 C 8.476562 5.5625 8.484375 5.707031 8.5 5.839844 C 8.5 5.847656 8.503906 5.851562 8.503906 5.859375 C 8.421875 5.886719 8.347656 5.921875 8.28125 5.957031 C 8.167969 6.019531 8.058594 6.09375 7.953125 6.179688 C 7.847656 6.265625 7.769531 6.339844 7.714844 6.40625 C 7.664062 6.46875 7.597656 6.566406 7.519531 6.707031 C 7.4375 6.84375 7.386719 6.949219 7.355469 7.027344 C 7.328125 7.097656 7.304688 7.175781 7.28125 7.257812 C 7.257812 7.339844 7.242188 7.414062 7.226562 7.480469 C 7.214844 7.546875 7.199219 7.621094 7.1875 7.703125 C 7.175781 7.785156 7.167969 7.898438 7.160156 8.042969 C 7.152344 8.191406 7.152344 8.300781 7.15625 8.375 C 7.160156 8.453125 7.171875 8.542969 7.1875 8.65625 C 7.199219 8.730469 7.214844 8.808594 7.234375 8.890625 C 7.191406 8.898438 7.15625 8.910156 7.117188 8.917969 C 7.011719 8.949219 6.902344 8.984375 6.792969 9.027344 C 6.679688 9.074219 6.59375 9.113281 6.519531 9.148438 C 6.453125 9.1875 6.398438 9.21875 6.351562 9.246094 C 6.304688 9.273438 6.246094 9.316406 6.171875 9.371094 C 6.097656 9.425781 6.035156 9.476562 5.984375 9.523438 C 5.933594 9.570312 5.867188 9.636719 5.785156 9.730469 C 5.703125 9.824219 5.628906 9.917969 5.566406 10.015625 C 5.503906 10.109375 5.453125 10.195312 5.417969 10.273438 C 5.382812 10.347656 5.359375 10.398438 5.347656 10.433594 C 5.332031 10.464844 5.316406 10.507812 5.300781 10.566406 C 5.28125 10.625 5.265625 10.699219 5.246094 10.792969 C 5.226562 10.886719 5.214844 10.992188 5.207031 11.101562 C 5.199219 11.214844 5.195312 11.320312 5.199219 11.421875 C 5.203125 11.519531 5.210938 11.625 5.222656 11.726562 C 5.234375 11.832031 5.253906 11.9375 5.273438 12.042969 C 5.296875 12.148438 5.335938 12.273438 5.382812 12.414062 C 5.304688 12.449219 5.242188 12.480469 5.195312 12.507812 C 5.140625 12.539062 5.085938 12.574219 5.035156 12.609375 C 4.980469 12.648438 4.9375 12.683594 4.898438 12.714844 C 4.859375 12.746094 4.820312 12.785156 4.769531 12.832031 C 4.722656 12.882812 4.664062 12.949219 4.59375 13.035156 C 4.527344 13.125 4.472656 13.199219 4.433594 13.261719 C 4.394531 13.320312 4.355469 13.390625 4.3125 13.46875 C 4.273438 13.550781 4.21875 13.667969 4.152344 13.828125 C 4.085938 13.988281 4.042969 14.117188 4.011719 14.21875 C 3.984375 14.316406 3.960938 14.410156 3.945312 14.492188 C 3.925781 14.578125 3.914062 14.660156 3.90625 14.738281 C 3.894531 14.816406 3.890625 14.949219 3.890625 15.144531 C 3.886719 15.398438 3.890625 15.472656 3.894531 15.511719 C 3.898438 15.5625 3.902344 15.605469 3.902344 15.632812 C 3.90625 15.652344 3.910156 15.679688 3.914062 15.714844 C 3.898438 15.722656 3.882812 15.730469 3.871094 15.738281 C 3.792969 15.78125 3.707031 15.839844 3.601562 15.914062 C 3.5 15.988281 3.40625 16.0625 3.328125 16.136719 C 3.25 16.210938 3.175781 16.289062 3.105469 16.367188 C 3.035156 16.449219 2.992188 16.5 2.96875 16.535156 C 2.945312 16.5625 2.921875 16.59375 2.902344 16.621094 C 2.882812 16.648438 2.859375 16.6875 2.824219 16.738281 C 2.792969 16.789062 2.757812 16.851562 2.710938 16.929688 C 2.667969 17.011719 2.617188 17.125 2.5625 17.273438 C 2.503906 17.421875 2.46875 17.535156 2.449219 17.621094 C 2.429688 17.703125 2.417969 17.785156 2.40625 17.871094 C 2.394531 17.953125 2.390625 18.011719 2.386719 18.050781 C 2.386719 18.078125 2.386719 18.132812 2.398438 18.332031 C 2.40625 18.535156 2.417969 18.605469 2.425781 18.640625 C 2.433594 18.695312 2.453125 18.773438 2.476562 18.871094 C 2.503906 18.96875 2.535156 19.0625 2.570312 19.144531 C 2.601562 19.226562 2.628906 19.285156 2.648438 19.335938 C 2.671875 19.378906 2.699219 19.433594 2.734375 19.5 C 2.765625 19.5625 2.789062 19.609375 2.804688 19.632812 C 2.824219 19.667969 2.859375 19.695312 2.894531 19.714844 C 2.882812 19.738281 2.875 19.761719 2.863281 19.785156 C 2.828125 19.789062 2.796875 19.792969 2.761719 19.796875 C 2.726562 19.800781 2.6875 19.808594 2.640625 19.820312 C 2.605469 19.824219 2.539062 19.84375 2.386719 19.90625 C 2.273438 19.953125 2.183594 19.996094 2.117188 20.039062 C 2.054688 20.074219 1.992188 20.121094 1.929688 20.167969 C 1.867188 20.214844 1.785156 20.285156 1.6875 20.378906 C 1.59375 20.472656 1.523438 20.542969 1.480469 20.59375 C 1.441406 20.640625 1.394531 20.703125 1.339844 20.773438 C 1.285156 20.84375 1.242188 20.902344 1.210938 20.949219 C 1.1875 20.980469 1.140625 21.054688 1.007812 21.300781 C 0.902344 21.492188 0.835938 21.636719 0.796875 21.742188 C 0.761719 21.84375 0.734375 21.9375 0.714844 22.015625 C 0.695312 22.097656 0.683594 22.144531 0.679688 22.164062 C 0.679688 22.179688 0.671875 22.214844 0.648438 22.355469 C 0.632812 22.464844 0.617188 22.5625 0.609375 22.648438 C 0.601562 22.734375 0.59375 22.8125 0.589844 22.878906 C 0.585938 22.949219 0.585938 23.027344 0.585938 23.117188 C 0.585938 23.203125 0.585938 23.289062 0.589844 23.363281 C 0.59375 23.441406 0.601562 23.550781 0.621094 23.703125 C 0.640625 23.859375 0.660156 23.972656 0.679688 24.058594 C 0.695312 24.140625 0.71875 24.21875 0.738281 24.285156 C 0.761719 24.351562 0.785156 24.410156 0.804688 24.460938 C 0.828125 24.507812 0.851562 24.558594 0.875 24.601562 C 0.902344 24.648438 0.933594 24.695312 0.96875 24.746094 C 1.007812 24.800781 1.058594 24.859375 1.125 24.925781 C 1.1875 24.992188 1.242188 25.039062 1.28125 25.070312 C 1.320312 25.101562 1.351562 25.125 1.386719 25.144531 C 1.417969 25.167969 1.453125 25.1875 1.492188 25.210938 C 1.53125 25.230469 1.5625 25.246094 1.597656 25.261719 C 1.628906 25.273438 1.664062 25.289062 1.707031 25.300781 C 1.746094 25.3125 1.785156 25.324219 1.824219 25.332031 C 1.863281 25.339844 1.902344 25.347656 1.933594 25.351562 C 1.96875 25.359375 2.003906 25.359375 2.035156 25.363281 L 2.046875 25.363281 C 2.070312 25.363281 2.101562 25.363281 2.132812 25.359375 C 2.167969 25.359375 2.199219 25.359375 2.226562 25.355469 C 2.25 25.351562 2.277344 25.347656 2.308594 25.339844 C 2.324219 25.4375 2.339844 25.535156 2.351562 25.636719 C 2.378906 25.8125 2.414062 26.058594 2.457031 26.375 C 2.457031 26.378906 2.457031 26.382812 2.457031 26.386719 L 2.46875 26.433594 C 2.453125 26.433594 2.4375 26.4375 2.425781 26.4375 C 2.386719 26.441406 2.351562 26.445312 2.320312 26.449219 C 2.210938 26.460938 2.128906 26.558594 2.136719 26.667969 C 2.148438 26.773438 2.234375 26.851562 2.335938 26.851562 C 2.34375 26.851562 2.351562 26.851562 2.359375 26.851562 C 2.394531 26.847656 2.429688 26.84375 2.472656 26.839844 C 2.515625 26.835938 2.574219 26.828125 2.648438 26.816406 C 2.71875 26.808594 2.8125 26.796875 2.925781 26.78125 C 3.042969 26.765625 3.121094 26.757812 3.164062 26.75 C 3.207031 26.746094 3.289062 26.734375 3.414062 26.714844 C 3.535156 26.695312 3.679688 26.675781 3.84375 26.652344 L 4.355469 26.582031 C 4.53125 26.558594 4.6875 26.535156 4.824219 26.515625 C 4.960938 26.496094 5.097656 26.476562 5.234375 26.457031 C 5.371094 26.4375 5.496094 26.421875 5.613281 26.40625 C 5.730469 26.390625 5.84375 26.375 5.957031 26.359375 C 5.949219 26.40625 5.941406 26.453125 5.933594 26.492188 C 5.898438 26.679688 5.867188 26.847656 5.835938 27 C 5.800781 27.152344 5.769531 27.289062 5.738281 27.414062 C 5.710938 27.539062 5.671875 27.679688 5.628906 27.835938 C 5.601562 27.941406 5.570312 28.046875 5.542969 28.144531 C 5.535156 28.152344 5.53125 28.160156 5.523438 28.167969 C 5.449219 28.25 5.457031 28.375 5.539062 28.449219 C 5.5625 28.484375 5.597656 28.507812 5.640625 28.523438 C 5.660156 28.527344 5.675781 28.53125 5.695312 28.53125 C 5.785156 28.53125 5.867188 28.476562 5.894531 28.386719 C 5.894531 28.375 5.898438 28.363281 5.902344 28.351562 C 5.914062 28.339844 5.921875 28.332031 5.929688 28.320312 C 5.960938 28.289062 6.003906 28.242188 6.050781 28.191406 C 6.101562 28.136719 6.171875 28.054688 6.265625 27.949219 C 6.359375 27.84375 6.414062 27.78125 6.429688 27.765625 C 6.445312 27.746094 6.5 27.6875 6.59375 27.582031 C 6.683594 27.480469 6.753906 27.398438 6.804688 27.335938 C 6.859375 27.277344 6.902344 27.226562 6.941406 27.183594 C 6.964844 27.15625 7.019531 27.097656 7.097656 27.011719 C 7.105469 27.019531 7.113281 27.027344 7.121094 27.035156 C 7.1875 27.109375 7.261719 27.191406 7.34375 27.28125 C 7.429688 27.371094 7.632812 27.570312 7.960938 27.890625 C 7.957031 27.9375 7.953125 27.988281 7.945312 28.042969 C 7.933594 28.15625 8.015625 28.253906 8.128906 28.265625 C 8.132812 28.265625 8.136719 28.265625 8.144531 28.265625 C 8.25 28.269531 8.339844 28.191406 8.347656 28.085938 C 8.351562 28.042969 8.355469 28.003906 8.359375 27.96875 C 8.363281 27.964844 8.371094 27.960938 8.371094 27.957031 C 8.429688 27.886719 8.429688 27.789062 8.382812 27.71875 L 8.382812 27.714844 L 8.410156 27.296875 C 8.421875 27.105469 8.4375 26.8125 8.460938 26.417969 C 8.464844 26.316406 8.46875 26.226562 8.472656 26.148438 C 8.78125 26.125 9.042969 26.101562 9.253906 26.082031 C 9.46875 26.0625 9.628906 26.046875 9.730469 26.035156 C 9.832031 26.027344 9.945312 26.015625 10.070312 26 C 10.195312 25.984375 10.339844 25.96875 10.507812 25.953125 C 10.667969 25.933594 10.910156 25.910156 11.21875 25.878906 C 11.527344 25.851562 11.761719 25.828125 11.917969 25.816406 C 12.070312 25.804688 12.195312 25.792969 12.28125 25.789062 C 12.367188 25.78125 12.492188 25.773438 12.648438 25.765625 C 12.804688 25.757812 12.988281 25.746094 13.203125 25.738281 C 13.410156 25.726562 13.667969 25.71875 13.972656 25.707031 C 14.269531 25.695312 14.582031 25.6875 14.90625 25.683594 C 15.234375 25.679688 15.480469 25.675781 15.652344 25.671875 C 15.824219 25.671875 15.972656 25.671875 16.101562 25.671875 C 16.222656 25.667969 16.53125 25.664062 17.070312 25.65625 C 17.585938 25.644531 17.984375 25.636719 18.25 25.628906 C 18.515625 25.621094 18.714844 25.613281 18.839844 25.609375 L 19.183594 25.59375 C 19.289062 25.589844 19.394531 25.585938 19.5 25.582031 C 19.609375 25.574219 19.714844 25.570312 19.820312 25.5625 C 19.925781 25.558594 20.097656 25.546875 20.339844 25.53125 C 20.578125 25.515625 20.765625 25.5 20.890625 25.488281 C 21.011719 25.476562 21.132812 25.464844 21.246094 25.453125 L 21.566406 25.417969 C 21.664062 25.410156 21.765625 25.398438 21.871094 25.382812 C 21.980469 25.367188 22.058594 25.265625 22.046875 25.15625 C 22.039062 25.097656 22.003906 25.050781 21.960938 25.019531 L 21.964844 25.003906 C 21.984375 24.9375 22.007812 24.859375 22.035156 24.773438 L 22.117188 24.5 C 22.144531 24.40625 22.167969 24.332031 22.183594 24.277344 C 22.199219 24.21875 22.226562 24.125 22.265625 23.992188 C 22.300781 23.859375 22.359375 23.65625 22.4375 23.378906 L 22.863281 21.832031 C 22.914062 21.648438 22.980469 21.40625 23.0625 21.113281 C 23.144531 20.816406 23.230469 20.515625 23.320312 20.207031 C 23.410156 19.898438 23.488281 19.613281 23.5625 19.355469 C 23.636719 19.097656 23.710938 18.828125 23.789062 18.546875 C 23.867188 18.269531 23.980469 17.855469 24.132812 17.304688 C 24.28125 16.757812 24.386719 16.371094 24.449219 16.152344 C 24.511719 15.9375 24.582031 15.695312 24.664062 15.429688 C 24.746094 15.167969 24.835938 14.886719 24.929688 14.597656 C 25.023438 14.308594 25.085938 14.125 25.113281 14.042969 C 25.140625 13.960938 25.179688 13.839844 25.230469 13.6875 C 25.28125 13.53125 25.324219 13.394531 25.363281 13.273438 C 25.402344 13.152344 25.492188 12.855469 25.644531 12.367188 C 25.789062 11.886719 25.898438 11.527344 25.96875 11.296875 C 26.035156 11.0625 26.089844 10.878906 26.132812 10.738281 C 26.175781 10.605469 26.199219 10.515625 26.214844 10.476562 C 26.285156 10.472656 26.332031 10.46875 26.355469 10.46875 C 26.402344 10.464844 26.503906 10.460938 26.664062 10.449219 C 26.824219 10.441406 27.136719 10.425781 27.597656 10.402344 L 27.601562 10.402344 L 27.691406 10.394531 C 27.800781 10.386719 27.878906 10.296875 27.878906 10.191406 C 27.898438 10.121094 27.878906 10.042969 27.824219 9.988281 L 27.742188 9.914062 L 27.527344 9.695312 C 27.480469 9.644531 27.449219 9.613281 27.441406 9.601562 C 27.4375 9.597656 27.429688 9.589844 27.414062 9.574219 C 27.527344 9.515625 27.613281 9.476562 27.664062 9.449219 C 27.746094 9.40625 27.863281 9.347656 28.007812 9.269531 C 28.152344 9.195312 28.335938 9.101562 28.558594 8.988281 C 28.777344 8.871094 28.933594 8.792969 29.027344 8.746094 C 29.125 8.695312 29.167969 8.574219 29.117188 8.476562 C 29.097656 8.4375 29.066406 8.40625 29.03125 8.386719 Z M 11.746094 2.453125 C 11.8125 2.441406 11.882812 2.429688 11.960938 2.417969 C 12.039062 2.40625 12.15625 2.390625 12.304688 2.367188 C 12.449219 2.347656 12.621094 2.324219 12.808594 2.304688 C 13 2.285156 13.167969 2.269531 13.3125 2.261719 C 13.457031 2.25 13.671875 2.238281 13.953125 2.226562 C 14.234375 2.210938 14.453125 2.203125 14.613281 2.195312 C 14.769531 2.191406 14.890625 2.183594 14.972656 2.183594 C 15.058594 2.179688 15.273438 2.171875 15.613281 2.15625 C 15.953125 2.140625 16.230469 2.128906 16.429688 2.117188 C 16.632812 2.105469 16.925781 2.085938 17.304688 2.058594 C 17.683594 2.03125 17.980469 2.011719 18.195312 1.996094 C 18.410156 1.980469 18.65625 1.960938 18.9375 1.941406 C 19.21875 1.921875 19.535156 1.902344 19.886719 1.882812 C 20.234375 1.867188 20.503906 1.855469 20.6875 1.847656 C 20.875 1.839844 21.042969 1.835938 21.203125 1.832031 C 21.359375 1.828125 21.667969 1.816406 22.132812 1.804688 C 22.601562 1.789062 22.964844 1.78125 23.238281 1.773438 C 23.515625 1.765625 23.722656 1.761719 23.859375 1.761719 C 23.996094 1.761719 24.242188 1.761719 24.585938 1.761719 C 24.929688 1.761719 25.199219 1.761719 25.382812 1.765625 C 25.570312 1.769531 25.71875 1.773438 25.828125 1.773438 L 26.152344 1.78125 C 26.253906 1.785156 26.363281 1.789062 26.472656 1.789062 C 26.585938 1.792969 26.667969 1.796875 26.714844 1.800781 C 26.765625 1.800781 26.8125 1.804688 26.863281 1.804688 C 26.890625 1.808594 26.925781 1.808594 26.96875 1.8125 C 26.949219 1.867188 26.929688 1.921875 26.910156 1.976562 C 26.875 2.074219 26.8125 2.253906 26.722656 2.511719 C 26.632812 2.765625 26.5625 2.96875 26.507812 3.121094 C 26.453125 3.269531 26.386719 3.449219 26.308594 3.65625 C 26.234375 3.863281 26.128906 4.160156 25.992188 4.539062 C 25.855469 4.917969 25.753906 5.214844 25.683594 5.414062 L 25.460938 6.054688 C 25.382812 6.28125 25.285156 6.566406 25.164062 6.910156 C 25.042969 7.253906 24.953125 7.515625 24.894531 7.691406 C 24.832031 7.867188 24.785156 8.007812 24.75 8.113281 C 24.714844 8.21875 24.679688 8.324219 24.644531 8.429688 C 24.613281 8.535156 24.542969 8.757812 24.4375 9.109375 C 24.332031 9.457031 24.246094 9.734375 24.1875 9.9375 C 24.128906 10.136719 24.074219 10.3125 24.035156 10.457031 C 23.992188 10.597656 23.957031 10.714844 23.933594 10.796875 C 23.90625 10.882812 23.835938 11.136719 23.710938 11.5625 C 23.589844 11.984375 23.496094 12.3125 23.433594 12.539062 L 23.265625 13.140625 C 23.21875 13.316406 23.140625 13.59375 23.03125 13.960938 C 22.921875 14.328125 22.835938 14.605469 22.78125 14.785156 C 22.726562 14.964844 22.683594 15.101562 22.652344 15.195312 C 22.625 15.289062 22.566406 15.464844 22.488281 15.726562 C 22.40625 15.984375 22.332031 16.234375 22.261719 16.472656 C 22.191406 16.707031 22.132812 16.910156 22.085938 17.074219 C 22.039062 17.238281 21.996094 17.402344 21.953125 17.558594 C 21.910156 17.714844 21.878906 17.832031 21.859375 17.914062 L 21.722656 18.421875 C 21.65625 18.675781 21.566406 19 21.457031 19.386719 C 21.351562 19.773438 21.273438 20.042969 21.226562 20.191406 L 21.125 20.53125 C 21.097656 20.609375 21.078125 20.675781 21.0625 20.734375 C 21.042969 20.789062 21.023438 20.859375 20.996094 20.9375 C 20.972656 21.019531 20.953125 21.082031 20.9375 21.125 C 20.925781 21.167969 20.898438 21.246094 20.855469 21.359375 C 20.851562 21.371094 20.847656 21.382812 20.847656 21.394531 L 20.765625 21.414062 C 20.710938 21.425781 20.640625 21.441406 20.550781 21.460938 C 20.464844 21.480469 20.359375 21.5 20.238281 21.519531 C 20.117188 21.542969 19.972656 21.566406 19.808594 21.59375 C 19.648438 21.617188 19.5 21.636719 19.359375 21.652344 C 19.222656 21.667969 19.132812 21.679688 19.09375 21.683594 L 18.941406 21.695312 C 18.882812 21.699219 18.816406 21.707031 18.75 21.710938 C 18.675781 21.714844 18.570312 21.71875 18.425781 21.726562 C 18.285156 21.734375 18.074219 21.742188 17.796875 21.746094 C 17.519531 21.75 17.238281 21.753906 16.957031 21.753906 C 16.671875 21.753906 16.410156 21.753906 16.171875 21.75 C 15.929688 21.75 15.730469 21.75 15.566406 21.75 C 15.402344 21.75 15.25 21.75 15.101562 21.75 C 14.957031 21.75 14.753906 21.75 14.5 21.75 C 14.246094 21.75 14.050781 21.753906 13.925781 21.753906 C 13.796875 21.757812 13.648438 21.761719 13.480469 21.765625 C 13.3125 21.769531 13.089844 21.777344 12.816406 21.789062 C 12.546875 21.800781 12.242188 21.8125 11.914062 21.832031 C 11.585938 21.847656 11.378906 21.859375 11.296875 21.863281 C 11.214844 21.871094 11.105469 21.875 10.96875 21.886719 C 10.828125 21.894531 10.636719 21.90625 10.386719 21.921875 C 10.140625 21.941406 9.914062 21.957031 9.71875 21.976562 C 9.523438 21.992188 9.269531 22.015625 8.964844 22.046875 C 8.65625 22.078125 8.398438 22.105469 8.191406 22.128906 C 7.984375 22.148438 7.714844 22.175781 7.378906 22.214844 C 7.042969 22.25 6.847656 22.269531 6.804688 22.277344 C 6.761719 22.28125 6.589844 22.300781 6.292969 22.335938 C 5.988281 22.371094 5.75 22.394531 5.570312 22.417969 C 5.394531 22.4375 5.144531 22.460938 4.828125 22.492188 C 4.507812 22.527344 4.25 22.550781 4.046875 22.570312 L 3.636719 22.609375 C 3.5625 22.617188 3.46875 22.625 3.359375 22.636719 C 3.246094 22.648438 3.160156 22.65625 3.09375 22.667969 L 2.777344 22.707031 C 2.625 22.726562 2.523438 22.742188 2.464844 22.75 C 2.414062 22.757812 2.328125 22.769531 2.214844 22.785156 C 2.121094 22.800781 2.011719 22.816406 1.882812 22.832031 C 1.953125 22.691406 2.046875 22.496094 2.175781 22.222656 C 2.464844 21.609375 2.628906 21.265625 2.675781 21.164062 L 2.777344 20.949219 C 2.796875 20.90625 2.839844 20.816406 2.90625 20.679688 C 2.972656 20.539062 3.042969 20.378906 3.121094 20.207031 C 3.132812 20.207031 3.144531 20.207031 3.15625 20.210938 C 3.171875 20.214844 3.1875 20.21875 3.203125 20.222656 L 3.082031 20.476562 C 3.066406 20.511719 3.042969 20.558594 3.011719 20.621094 C 2.984375 20.683594 2.945312 20.761719 2.902344 20.847656 C 2.855469 20.9375 2.816406 21.015625 2.785156 21.085938 C 2.75 21.15625 2.722656 21.214844 2.699219 21.261719 C 2.675781 21.308594 2.652344 21.359375 2.628906 21.40625 C 2.605469 21.453125 2.5625 21.542969 2.5 21.675781 C 2.4375 21.804688 2.386719 21.902344 2.355469 21.96875 C 2.320312 22.039062 2.300781 22.082031 2.289062 22.105469 C 2.28125 22.125 2.265625 22.152344 2.25 22.183594 C 2.234375 22.21875 2.222656 22.246094 2.210938 22.261719 C 2.203125 22.28125 2.1875 22.316406 2.164062 22.363281 C 2.140625 22.410156 2.15625 22.460938 2.199219 22.488281 C 2.214844 22.519531 2.246094 22.539062 2.28125 22.539062 C 2.285156 22.539062 2.292969 22.539062 2.300781 22.535156 C 2.398438 22.519531 2.476562 22.507812 2.535156 22.496094 C 2.597656 22.488281 2.65625 22.476562 2.710938 22.46875 C 2.769531 22.460938 2.808594 22.453125 2.824219 22.449219 L 2.863281 22.445312 C 2.917969 22.4375 2.953125 22.386719 2.945312 22.335938 C 2.9375 22.28125 2.886719 22.246094 2.835938 22.253906 L 2.789062 22.261719 C 2.773438 22.265625 2.734375 22.273438 2.679688 22.28125 C 2.625 22.289062 2.566406 22.296875 2.507812 22.308594 C 2.476562 22.3125 2.441406 22.320312 2.398438 22.324219 C 2.40625 22.308594 2.414062 22.292969 2.425781 22.269531 C 2.441406 22.238281 2.457031 22.210938 2.464844 22.1875 C 2.476562 22.167969 2.496094 22.121094 2.53125 22.054688 C 2.5625 21.988281 2.613281 21.890625 2.675781 21.757812 C 2.738281 21.628906 2.78125 21.539062 2.804688 21.492188 C 2.828125 21.441406 2.851562 21.394531 2.875 21.347656 C 2.898438 21.300781 2.925781 21.242188 2.960938 21.171875 C 2.992188 21.101562 3.03125 21.023438 3.078125 20.933594 C 3.121094 20.84375 3.160156 20.769531 3.1875 20.707031 C 3.21875 20.644531 3.242188 20.597656 3.257812 20.5625 L 3.390625 20.285156 C 3.410156 20.296875 3.429688 20.304688 3.445312 20.316406 C 3.480469 20.335938 3.519531 20.355469 3.550781 20.378906 C 3.589844 20.40625 3.621094 20.429688 3.652344 20.453125 C 3.683594 20.480469 3.710938 20.507812 3.742188 20.535156 C 3.769531 20.5625 3.804688 20.597656 3.84375 20.640625 C 3.882812 20.6875 3.917969 20.726562 3.945312 20.757812 C 3.933594 20.792969 3.925781 20.816406 3.917969 20.835938 C 3.914062 20.859375 3.910156 20.882812 3.90625 20.910156 C 3.902344 20.941406 3.898438 20.96875 3.902344 21 C 3.902344 21.03125 3.90625 21.070312 3.917969 21.113281 C 3.929688 21.160156 3.949219 21.203125 3.972656 21.238281 C 3.992188 21.269531 4.011719 21.292969 4.035156 21.3125 C 4.054688 21.332031 4.082031 21.351562 4.121094 21.371094 C 4.164062 21.394531 4.214844 21.410156 4.269531 21.417969 C 4.292969 21.421875 4.316406 21.421875 4.335938 21.421875 C 4.355469 21.421875 4.371094 21.421875 4.390625 21.421875 C 4.425781 21.417969 4.460938 21.40625 4.503906 21.394531 C 4.542969 21.378906 4.585938 21.359375 4.628906 21.332031 C 4.671875 21.304688 4.707031 21.273438 4.738281 21.246094 C 4.769531 21.21875 4.796875 21.183594 4.824219 21.140625 C 4.855469 21.09375 4.878906 21.042969 4.902344 20.980469 C 4.925781 20.917969 4.9375 20.871094 4.941406 20.835938 C 4.949219 20.796875 4.949219 20.757812 4.945312 20.710938 C 4.941406 20.664062 4.933594 20.617188 4.921875 20.578125 C 4.90625 20.535156 4.886719 20.496094 4.863281 20.460938 C 4.839844 20.425781 4.816406 20.402344 4.792969 20.382812 C 4.773438 20.363281 4.746094 20.34375 4.710938 20.328125 C 4.671875 20.308594 4.632812 20.296875 4.59375 20.292969 C 4.5625 20.289062 4.542969 20.285156 4.519531 20.289062 C 4.5 20.289062 4.480469 20.292969 4.449219 20.300781 C 4.421875 20.308594 4.394531 20.316406 4.367188 20.328125 C 4.347656 20.339844 4.332031 20.347656 4.320312 20.355469 C 4.300781 20.367188 4.28125 20.382812 4.25 20.410156 C 4.238281 20.421875 4.226562 20.433594 4.214844 20.445312 C 4.195312 20.421875 4.171875 20.398438 4.148438 20.371094 C 4.097656 20.316406 4.054688 20.273438 4.019531 20.238281 C 3.984375 20.207031 3.949219 20.175781 3.914062 20.144531 C 3.875 20.113281 3.832031 20.078125 3.785156 20.046875 C 3.738281 20.015625 3.691406 19.988281 3.644531 19.960938 C 3.59375 19.933594 3.535156 19.90625 3.460938 19.878906 C 3.40625 19.855469 3.347656 19.839844 3.289062 19.828125 L 3.300781 19.800781 C 3.339844 19.703125 3.40625 19.554688 3.492188 19.347656 C 3.578125 19.144531 3.664062 18.945312 3.75 18.753906 C 3.832031 18.5625 3.933594 18.339844 4.054688 18.089844 C 4.171875 17.839844 4.265625 17.648438 4.328125 17.523438 C 4.390625 17.398438 4.476562 17.230469 4.585938 17.023438 C 4.695312 16.816406 4.785156 16.644531 4.855469 16.511719 C 4.925781 16.378906 4.984375 16.269531 5.027344 16.191406 C 5.054688 16.144531 5.097656 16.0625 5.160156 15.949219 C 5.167969 15.953125 5.171875 15.957031 5.179688 15.960938 C 5.207031 15.976562 5.226562 15.992188 5.242188 16.007812 C 5.261719 16.023438 5.277344 16.039062 5.296875 16.0625 C 5.320312 16.089844 5.332031 16.109375 5.335938 16.117188 C 5.339844 16.121094 5.351562 16.140625 5.371094 16.191406 C 5.386719 16.226562 5.402344 16.269531 5.414062 16.320312 C 5.429688 16.386719 5.433594 16.421875 5.4375 16.441406 C 5.398438 16.460938 5.367188 16.492188 5.347656 16.53125 C 5.320312 16.578125 5.304688 16.617188 5.292969 16.640625 C 5.28125 16.671875 5.269531 16.699219 5.257812 16.734375 C 5.246094 16.765625 5.238281 16.800781 5.230469 16.832031 C 5.222656 16.867188 5.21875 16.894531 5.214844 16.921875 C 5.210938 16.949219 5.210938 16.980469 5.210938 17.011719 C 5.210938 17.054688 5.21875 17.09375 5.226562 17.132812 C 5.238281 17.175781 5.253906 17.214844 5.273438 17.253906 C 5.292969 17.292969 5.3125 17.320312 5.332031 17.34375 C 5.351562 17.363281 5.371094 17.382812 5.394531 17.402344 C 5.417969 17.417969 5.441406 17.433594 5.46875 17.449219 C 5.5 17.464844 5.539062 17.480469 5.585938 17.488281 C 5.621094 17.496094 5.652344 17.5 5.6875 17.5 C 5.703125 17.5 5.722656 17.5 5.742188 17.5 C 5.792969 17.496094 5.84375 17.484375 5.890625 17.46875 C 5.9375 17.449219 5.980469 17.425781 6.019531 17.398438 C 6.058594 17.375 6.09375 17.34375 6.125 17.308594 C 6.15625 17.273438 6.179688 17.242188 6.199219 17.210938 C 6.21875 17.179688 6.234375 17.140625 6.246094 17.101562 C 6.261719 17.058594 6.269531 17.011719 6.273438 16.964844 C 6.277344 16.917969 6.273438 16.871094 6.261719 16.828125 C 6.25 16.785156 6.238281 16.746094 6.21875 16.714844 C 6.203125 16.6875 6.183594 16.660156 6.164062 16.636719 C 6.144531 16.617188 6.128906 16.601562 6.109375 16.585938 C 6.089844 16.570312 6.070312 16.558594 6.046875 16.542969 C 6.023438 16.53125 5.996094 16.519531 5.96875 16.507812 C 5.941406 16.496094 5.914062 16.484375 5.890625 16.476562 C 5.875 16.472656 5.863281 16.46875 5.855469 16.46875 C 5.851562 16.4375 5.847656 16.410156 5.84375 16.386719 C 5.839844 16.347656 5.828125 16.292969 5.8125 16.226562 C 5.796875 16.152344 5.773438 16.085938 5.75 16.027344 C 5.726562 15.972656 5.707031 15.933594 5.6875 15.902344 C 5.667969 15.871094 5.644531 15.839844 5.613281 15.800781 C 5.582031 15.765625 5.550781 15.730469 5.515625 15.703125 C 5.484375 15.671875 5.445312 15.644531 5.402344 15.617188 C 5.386719 15.605469 5.371094 15.597656 5.359375 15.589844 C 5.476562 15.375 5.585938 15.171875 5.683594 14.992188 C 5.796875 14.78125 5.878906 14.628906 5.921875 14.542969 L 6.148438 14.121094 C 6.25 13.921875 6.335938 13.765625 6.398438 13.640625 C 6.460938 13.519531 6.59375 13.25 6.792969 12.84375 C 6.800781 12.824219 6.8125 12.808594 6.820312 12.789062 C 6.847656 12.808594 6.875 12.832031 6.90625 12.859375 C 6.941406 12.894531 6.972656 12.933594 7.003906 12.976562 C 7.035156 13.023438 7.066406 13.070312 7.089844 13.121094 C 7.125 13.191406 7.140625 13.226562 7.148438 13.246094 C 7.160156 13.269531 7.167969 13.296875 7.175781 13.320312 C 7.179688 13.335938 7.1875 13.351562 7.195312 13.378906 C 7.191406 13.382812 7.1875 13.390625 7.183594 13.398438 C 7.167969 13.4375 7.15625 13.472656 7.148438 13.496094 C 7.136719 13.523438 7.128906 13.554688 7.121094 13.585938 C 7.117188 13.617188 7.109375 13.644531 7.105469 13.671875 C 7.101562 13.710938 7.105469 13.757812 7.128906 13.875 C 7.152344 13.988281 7.179688 14.054688 7.214844 14.101562 C 7.242188 14.128906 7.261719 14.152344 7.285156 14.171875 C 7.308594 14.191406 7.335938 14.207031 7.371094 14.226562 C 7.410156 14.25 7.457031 14.265625 7.515625 14.273438 C 7.550781 14.28125 7.582031 14.285156 7.613281 14.285156 C 7.640625 14.285156 7.667969 14.285156 7.691406 14.28125 C 7.75 14.273438 7.8125 14.257812 7.875 14.230469 C 7.9375 14.203125 7.988281 14.171875 8.035156 14.136719 C 8.074219 14.105469 8.113281 14.070312 8.140625 14.035156 C 8.167969 14 8.191406 13.972656 8.207031 13.941406 C 8.226562 13.910156 8.242188 13.871094 8.261719 13.816406 C 8.28125 13.757812 8.292969 13.703125 8.296875 13.65625 C 8.296875 13.609375 8.296875 13.5625 8.285156 13.519531 C 8.277344 13.472656 8.265625 13.4375 8.25 13.40625 C 8.234375 13.375 8.21875 13.351562 8.199219 13.324219 C 8.175781 13.296875 8.144531 13.269531 8.097656 13.242188 C 8.050781 13.210938 8.007812 13.191406 7.96875 13.179688 C 7.933594 13.171875 7.898438 13.167969 7.859375 13.167969 C 7.820312 13.164062 7.78125 13.171875 7.734375 13.179688 C 7.695312 13.1875 7.65625 13.195312 7.617188 13.207031 C 7.605469 13.1875 7.585938 13.171875 7.566406 13.15625 C 7.558594 13.136719 7.550781 13.113281 7.539062 13.089844 C 7.527344 13.054688 7.503906 13.003906 7.46875 12.9375 C 7.433594 12.863281 7.394531 12.796875 7.347656 12.734375 C 7.304688 12.671875 7.253906 12.613281 7.199219 12.558594 C 7.148438 12.507812 7.09375 12.464844 7.042969 12.429688 C 7.027344 12.417969 7.015625 12.414062 7.003906 12.40625 C 7.101562 12.203125 7.179688 12.039062 7.238281 11.910156 L 7.457031 11.4375 C 7.5 11.339844 7.550781 11.230469 7.609375 11.101562 C 7.667969 10.976562 7.738281 10.816406 7.828125 10.621094 C 7.917969 10.425781 8.039062 10.164062 8.191406 9.839844 C 8.269531 9.675781 8.335938 9.53125 8.394531 9.410156 C 8.425781 9.433594 8.453125 9.464844 8.480469 9.5 C 8.515625 9.546875 8.535156 9.574219 8.546875 9.589844 C 8.558594 9.617188 8.574219 9.644531 8.589844 9.675781 C 8.601562 9.707031 8.613281 9.734375 8.621094 9.761719 C 8.625 9.769531 8.628906 9.785156 8.636719 9.808594 L 8.636719 9.8125 C 8.621094 9.859375 8.605469 9.894531 8.597656 9.921875 C 8.589844 9.949219 8.578125 9.984375 8.570312 10.019531 C 8.558594 10.066406 8.554688 10.121094 8.550781 10.1875 C 8.546875 10.257812 8.554688 10.316406 8.566406 10.371094 C 8.578125 10.425781 8.59375 10.472656 8.617188 10.511719 C 8.636719 10.546875 8.660156 10.582031 8.6875 10.609375 C 8.710938 10.640625 8.742188 10.664062 8.773438 10.683594 C 8.800781 10.703125 8.832031 10.71875 8.859375 10.726562 C 8.894531 10.738281 8.933594 10.746094 8.988281 10.746094 C 8.992188 10.746094 9 10.746094 9.007812 10.746094 C 9.046875 10.75 9.085938 10.746094 9.121094 10.738281 C 9.15625 10.730469 9.1875 10.722656 9.214844 10.710938 C 9.242188 10.699219 9.265625 10.6875 9.285156 10.675781 C 9.3125 10.664062 9.34375 10.640625 9.386719 10.609375 C 9.429688 10.574219 9.46875 10.53125 9.507812 10.484375 C 9.550781 10.429688 9.589844 10.367188 9.617188 10.296875 C 9.648438 10.222656 9.667969 10.15625 9.671875 10.097656 C 9.679688 10.039062 9.679688 10 9.675781 9.96875 C 9.671875 9.941406 9.664062 9.914062 9.65625 9.886719 C 9.644531 9.855469 9.628906 9.820312 9.609375 9.789062 C 9.589844 9.761719 9.570312 9.738281 9.542969 9.714844 C 9.519531 9.695312 9.488281 9.675781 9.457031 9.660156 C 9.429688 9.644531 9.40625 9.636719 9.386719 9.632812 C 9.359375 9.625 9.332031 9.621094 9.277344 9.621094 C 9.230469 9.617188 9.191406 9.621094 9.15625 9.628906 C 9.121094 9.632812 9.082031 9.644531 9.042969 9.664062 L 9.039062 9.664062 C 9.03125 9.644531 9.027344 9.628906 9.023438 9.617188 C 9.011719 9.585938 8.992188 9.542969 8.976562 9.503906 C 8.957031 9.460938 8.933594 9.417969 8.914062 9.382812 C 8.890625 9.339844 8.859375 9.292969 8.816406 9.238281 C 8.769531 9.183594 8.722656 9.128906 8.667969 9.085938 C 8.640625 9.0625 8.613281 9.039062 8.585938 9.019531 C 8.644531 8.898438 8.691406 8.800781 8.726562 8.730469 C 8.769531 8.644531 8.851562 8.476562 8.972656 8.226562 C 9.09375 7.976562 9.210938 7.738281 9.320312 7.511719 C 9.429688 7.28125 9.511719 7.109375 9.566406 6.992188 C 9.625 6.875 9.683594 6.75 9.742188 6.621094 C 9.804688 6.492188 9.859375 6.382812 9.898438 6.296875 L 9.898438 6.292969 C 9.910156 6.296875 9.917969 6.304688 9.929688 6.308594 C 9.980469 6.34375 10.003906 6.363281 10.015625 6.371094 C 10.027344 6.378906 10.050781 6.398438 10.085938 6.433594 C 10.105469 6.449219 10.140625 6.484375 10.195312 6.558594 C 10.226562 6.59375 10.253906 6.632812 10.285156 6.675781 C 10.28125 6.683594 10.277344 6.691406 10.273438 6.699219 C 10.269531 6.714844 10.261719 6.738281 10.25 6.777344 C 10.246094 6.785156 10.246094 6.789062 10.242188 6.796875 C 10.226562 6.8125 10.210938 6.828125 10.191406 6.84375 C 10.109375 6.921875 10.105469 7.050781 10.183594 7.132812 C 10.195312 7.148438 10.210938 7.160156 10.226562 7.167969 C 10.230469 7.179688 10.230469 7.1875 10.234375 7.199219 C 10.25 7.246094 10.269531 7.285156 10.296875 7.320312 C 10.320312 7.355469 10.355469 7.390625 10.390625 7.417969 C 10.433594 7.449219 10.484375 7.472656 10.550781 7.488281 C 10.589844 7.496094 10.628906 7.5 10.667969 7.5 C 10.695312 7.503906 10.726562 7.5 10.757812 7.496094 C 10.828125 7.488281 10.898438 7.46875 10.964844 7.4375 C 11.027344 7.410156 11.082031 7.378906 11.125 7.339844 C 11.164062 7.308594 11.191406 7.28125 11.214844 7.257812 C 11.242188 7.226562 11.265625 7.191406 11.292969 7.136719 C 11.320312 7.085938 11.34375 7.035156 11.355469 6.988281 C 11.367188 6.9375 11.371094 6.894531 11.371094 6.847656 C 11.371094 6.800781 11.363281 6.757812 11.351562 6.722656 C 11.339844 6.683594 11.324219 6.652344 11.304688 6.617188 C 11.285156 6.589844 11.265625 6.558594 11.238281 6.535156 C 11.214844 6.511719 11.183594 6.488281 11.152344 6.472656 C 11.125 6.457031 11.097656 6.445312 11.074219 6.4375 C 11.050781 6.429688 11.027344 6.425781 10.988281 6.421875 C 10.945312 6.417969 10.902344 6.417969 10.851562 6.425781 C 10.808594 6.429688 10.777344 6.4375 10.75 6.445312 C 10.730469 6.453125 10.707031 6.460938 10.6875 6.46875 C 10.679688 6.472656 10.667969 6.476562 10.65625 6.484375 C 10.609375 6.417969 10.566406 6.355469 10.523438 6.300781 C 10.460938 6.226562 10.410156 6.171875 10.371094 6.132812 C 10.332031 6.09375 10.296875 6.066406 10.269531 6.042969 C 10.242188 6.023438 10.203125 5.996094 10.152344 5.964844 C 10.125 5.945312 10.097656 5.929688 10.074219 5.914062 C 10.121094 5.804688 10.191406 5.648438 10.28125 5.441406 C 10.453125 5.058594 10.601562 4.714844 10.722656 4.417969 C 10.847656 4.125 10.917969 3.949219 10.941406 3.890625 C 10.964844 3.835938 10.992188 3.769531 11.023438 3.695312 C 11.050781 3.625 11.097656 3.519531 11.152344 3.382812 C 11.167969 3.390625 11.183594 3.398438 11.199219 3.410156 C 11.28125 3.453125 11.320312 3.480469 11.339844 3.496094 C 11.371094 3.519531 11.398438 3.542969 11.421875 3.570312 C 11.449219 3.597656 11.46875 3.621094 11.484375 3.644531 C 11.496094 3.664062 11.511719 3.691406 11.527344 3.722656 C 11.542969 3.757812 11.554688 3.789062 11.5625 3.8125 C 11.5625 3.816406 11.566406 3.832031 11.578125 3.894531 C 11.507812 3.910156 11.449219 3.964844 11.433594 4.042969 C 11.425781 4.070312 11.421875 4.09375 11.417969 4.105469 C 11.414062 4.125 11.410156 4.144531 11.40625 4.167969 C 11.402344 4.1875 11.402344 4.207031 11.398438 4.226562 C 11.398438 4.242188 11.394531 4.257812 11.394531 4.273438 C 11.394531 4.289062 11.394531 4.308594 11.394531 4.332031 C 11.394531 4.355469 11.398438 4.378906 11.398438 4.402344 C 11.402344 4.429688 11.40625 4.453125 11.414062 4.472656 C 11.421875 4.5 11.429688 4.527344 11.445312 4.5625 C 11.460938 4.597656 11.476562 4.621094 11.492188 4.640625 C 11.503906 4.660156 11.519531 4.679688 11.539062 4.699219 C 11.5625 4.726562 11.59375 4.75 11.625 4.769531 C 11.652344 4.789062 11.679688 4.800781 11.699219 4.808594 C 11.726562 4.820312 11.761719 4.832031 11.808594 4.839844 C 11.832031 4.84375 11.855469 4.84375 11.882812 4.847656 C 11.914062 4.847656 11.945312 4.84375 11.976562 4.839844 C 12.035156 4.832031 12.082031 4.820312 12.121094 4.808594 C 12.15625 4.792969 12.191406 4.773438 12.230469 4.753906 C 12.273438 4.726562 12.3125 4.691406 12.355469 4.648438 C 12.398438 4.601562 12.433594 4.554688 12.457031 4.503906 C 12.484375 4.453125 12.5 4.410156 12.511719 4.371094 C 12.519531 4.324219 12.523438 4.277344 12.523438 4.230469 C 12.519531 4.179688 12.507812 4.132812 12.488281 4.085938 C 12.472656 4.042969 12.457031 4.019531 12.441406 4 C 12.429688 3.980469 12.414062 3.964844 12.398438 3.949219 C 12.382812 3.933594 12.363281 3.921875 12.347656 3.90625 C 12.324219 3.894531 12.304688 3.882812 12.28125 3.871094 C 12.25 3.859375 12.210938 3.851562 12.140625 3.84375 C 12.085938 3.839844 12.039062 3.839844 12.003906 3.84375 C 11.984375 3.742188 11.972656 3.707031 11.96875 3.683594 C 11.953125 3.644531 11.9375 3.601562 11.914062 3.550781 C 11.890625 3.496094 11.863281 3.449219 11.835938 3.40625 C 11.808594 3.367188 11.773438 3.324219 11.734375 3.28125 C 11.691406 3.238281 11.648438 3.195312 11.601562 3.160156 C 11.554688 3.125 11.492188 3.085938 11.40625 3.039062 C 11.375 3.019531 11.34375 3.003906 11.316406 2.992188 C 11.339844 2.929688 11.359375 2.882812 11.375 2.84375 C 11.390625 2.800781 11.410156 2.757812 11.429688 2.707031 C 11.453125 2.65625 11.46875 2.617188 11.480469 2.585938 C 11.488281 2.570312 11.5 2.539062 11.515625 2.496094 C 11.546875 2.492188 11.570312 2.484375 11.589844 2.480469 C 11.628906 2.476562 11.679688 2.464844 11.746094 2.453125 Z M 4.308594 20.988281 C 4.308594 20.980469 4.308594 20.972656 4.308594 20.964844 L 4.308594 20.960938 C 4.335938 20.945312 4.359375 20.925781 4.375 20.902344 C 4.382812 20.894531 4.394531 20.871094 4.421875 20.835938 C 4.441406 20.808594 4.460938 20.78125 4.476562 20.761719 C 4.492188 20.742188 4.507812 20.726562 4.519531 20.714844 C 4.523438 20.710938 4.53125 20.707031 4.535156 20.703125 C 4.535156 20.710938 4.535156 20.722656 4.539062 20.738281 C 4.539062 20.765625 4.539062 20.777344 4.539062 20.777344 C 4.539062 20.78125 4.535156 20.796875 4.519531 20.84375 C 4.503906 20.882812 4.492188 20.902344 4.484375 20.914062 C 4.46875 20.941406 4.457031 20.953125 4.453125 20.957031 C 4.445312 20.960938 4.433594 20.972656 4.410156 20.988281 C 4.390625 21.003906 4.375 21.007812 4.367188 21.011719 C 4.351562 21.015625 4.347656 21.015625 4.347656 21.015625 C 4.34375 21.015625 4.335938 21.015625 4.320312 21.015625 C 4.316406 21.015625 4.316406 21.015625 4.3125 21.011719 L 4.3125 21.007812 C 4.308594 20.996094 4.308594 20.988281 4.308594 20.988281 Z M 4.496094 16.320312 C 4.488281 16.335938 4.480469 16.351562 4.472656 16.367188 C 4.464844 16.339844 4.457031 16.308594 4.449219 16.273438 C 4.417969 16.148438 4.394531 16.042969 4.378906 15.957031 C 4.453125 15.929688 4.496094 15.917969 4.519531 15.910156 C 4.5625 15.898438 4.613281 15.890625 4.667969 15.882812 C 4.695312 15.878906 4.71875 15.875 4.738281 15.871094 C 4.710938 15.925781 4.6875 15.96875 4.667969 16 C 4.625 16.078125 4.570312 16.1875 4.496094 16.320312 Z M 5.644531 17.082031 C 5.640625 17.078125 5.636719 17.070312 5.632812 17.0625 C 5.625 17.054688 5.625 17.046875 5.621094 17.039062 C 5.617188 17.027344 5.617188 17.015625 5.617188 17.003906 C 5.617188 16.984375 5.617188 16.96875 5.617188 16.960938 C 5.621094 16.953125 5.621094 16.941406 5.625 16.917969 C 5.628906 16.898438 5.636719 16.878906 5.640625 16.859375 C 5.644531 16.859375 5.644531 16.855469 5.644531 16.851562 C 5.65625 16.851562 5.667969 16.851562 5.679688 16.851562 C 5.6875 16.851562 5.695312 16.847656 5.703125 16.847656 C 5.714844 16.851562 5.726562 16.851562 5.734375 16.851562 C 5.742188 16.855469 5.757812 16.859375 5.773438 16.863281 C 5.785156 16.867188 5.800781 16.875 5.8125 16.878906 C 5.828125 16.886719 5.835938 16.890625 5.84375 16.894531 C 5.847656 16.894531 5.851562 16.898438 5.855469 16.902344 C 5.859375 16.902344 5.859375 16.90625 5.863281 16.90625 L 5.863281 16.910156 C 5.863281 16.910156 5.867188 16.914062 5.867188 16.921875 C 5.867188 16.929688 5.867188 16.9375 5.867188 16.945312 C 5.867188 16.953125 5.867188 16.964844 5.863281 16.972656 C 5.859375 16.988281 5.851562 17 5.847656 17.003906 C 5.847656 17.011719 5.839844 17.019531 5.824219 17.035156 C 5.8125 17.046875 5.804688 17.058594 5.789062 17.066406 C 5.777344 17.074219 5.765625 17.082031 5.75 17.085938 C 5.738281 17.09375 5.722656 17.09375 5.710938 17.097656 C 5.695312 17.097656 5.683594 17.097656 5.671875 17.09375 C 5.664062 17.09375 5.65625 17.089844 5.65625 17.089844 C 5.652344 17.089844 5.648438 17.085938 5.648438 17.085938 C 5.644531 17.082031 5.640625 17.082031 5.644531 17.082031 Z M 6.21875 13.09375 C 6.210938 13.078125 6.199219 13.0625 6.183594 13.042969 C 6.15625 13.003906 6.097656 12.910156 5.980469 12.703125 C 5.972656 12.691406 5.96875 12.675781 5.960938 12.664062 C 5.980469 12.660156 6 12.65625 6.023438 12.652344 C 6.113281 12.636719 6.199219 12.628906 6.28125 12.628906 C 6.339844 12.628906 6.390625 12.632812 6.441406 12.640625 L 6.425781 12.667969 C 6.347656 12.832031 6.277344 12.972656 6.21875 13.09375 Z M 7.546875 13.859375 C 7.542969 13.847656 7.539062 13.828125 7.53125 13.792969 C 7.519531 13.742188 7.515625 13.71875 7.515625 13.707031 C 7.515625 13.699219 7.519531 13.6875 7.523438 13.675781 L 7.523438 13.667969 C 7.546875 13.667969 7.574219 13.660156 7.597656 13.652344 C 7.683594 13.617188 7.726562 13.601562 7.742188 13.597656 C 7.765625 13.589844 7.789062 13.582031 7.808594 13.578125 C 7.832031 13.574219 7.84375 13.574219 7.847656 13.574219 C 7.855469 13.578125 7.859375 13.574219 7.863281 13.578125 C 7.867188 13.578125 7.871094 13.578125 7.875 13.582031 C 7.875 13.585938 7.878906 13.585938 7.882812 13.585938 C 7.882812 13.589844 7.882812 13.59375 7.882812 13.601562 C 7.886719 13.609375 7.886719 13.621094 7.886719 13.632812 C 7.886719 13.636719 7.882812 13.652344 7.875 13.683594 C 7.863281 13.722656 7.855469 13.734375 7.855469 13.734375 C 7.851562 13.742188 7.84375 13.753906 7.824219 13.773438 C 7.8125 13.789062 7.800781 13.800781 7.78125 13.816406 C 7.761719 13.832031 7.742188 13.84375 7.710938 13.855469 C 7.679688 13.871094 7.660156 13.875 7.644531 13.875 C 7.628906 13.878906 7.609375 13.878906 7.59375 13.875 C 7.570312 13.871094 7.5625 13.867188 7.5625 13.867188 C 7.558594 13.863281 7.550781 13.859375 7.546875 13.859375 Z M 7.882812 9.546875 C 7.84375 9.457031 7.808594 9.367188 7.777344 9.28125 C 7.769531 9.265625 7.765625 9.25 7.761719 9.234375 C 7.789062 9.234375 7.8125 9.234375 7.828125 9.234375 C 7.882812 9.230469 7.9375 9.234375 7.988281 9.242188 C 8 9.242188 8.011719 9.242188 8.023438 9.246094 C 7.980469 9.335938 7.933594 9.433594 7.882812 9.546875 Z M 8.992188 10.335938 L 8.988281 10.332031 C 8.984375 10.328125 8.980469 10.324219 8.976562 10.316406 C 8.976562 10.316406 8.972656 10.308594 8.964844 10.28125 C 8.964844 10.265625 8.960938 10.242188 8.960938 10.199219 C 8.960938 10.1875 8.960938 10.175781 8.964844 10.164062 C 8.980469 10.160156 8.996094 10.152344 9.011719 10.144531 C 9.109375 10.085938 9.136719 10.070312 9.144531 10.066406 C 9.160156 10.058594 9.179688 10.050781 9.199219 10.039062 C 9.21875 10.035156 9.226562 10.03125 9.230469 10.03125 C 9.234375 10.03125 9.246094 10.027344 9.265625 10.027344 C 9.265625 10.035156 9.265625 10.046875 9.265625 10.058594 C 9.261719 10.066406 9.261719 10.089844 9.238281 10.136719 C 9.222656 10.175781 9.207031 10.203125 9.191406 10.226562 C 9.167969 10.25 9.148438 10.273438 9.128906 10.289062 C 9.097656 10.3125 9.085938 10.320312 9.085938 10.320312 C 9.078125 10.324219 9.070312 10.328125 9.0625 10.332031 C 9.058594 10.332031 9.050781 10.335938 9.039062 10.335938 C 9.039062 10.335938 9.027344 10.339844 9.003906 10.339844 C 9 10.339844 8.996094 10.339844 8.992188 10.335938 Z M 9.214844 6.789062 C 9.171875 6.699219 9.140625 6.621094 9.113281 6.554688 C 9.089844 6.488281 9.066406 6.421875 9.046875 6.363281 C 9.027344 6.308594 9.007812 6.234375 8.984375 6.144531 C 9.007812 6.140625 9.03125 6.136719 9.050781 6.132812 C 9.140625 6.121094 9.191406 6.117188 9.21875 6.117188 C 9.246094 6.117188 9.300781 6.121094 9.398438 6.132812 C 9.441406 6.136719 9.480469 6.140625 9.519531 6.148438 C 9.480469 6.230469 9.433594 6.332031 9.375 6.449219 C 9.320312 6.566406 9.265625 6.679688 9.214844 6.789062 Z M 10.902344 6.988281 C 10.902344 6.988281 10.894531 7 10.863281 7.023438 C 10.851562 7.035156 10.832031 7.046875 10.792969 7.066406 C 10.765625 7.078125 10.738281 7.085938 10.710938 7.089844 C 10.675781 7.09375 10.660156 7.089844 10.652344 7.089844 C 10.640625 7.085938 10.636719 7.085938 10.632812 7.082031 C 10.632812 7.082031 10.628906 7.078125 10.625 7.070312 C 10.625 7.058594 10.621094 7.046875 10.621094 7.03125 C 10.621094 7.023438 10.621094 7.019531 10.621094 7.011719 C 10.652344 6.984375 10.679688 6.960938 10.703125 6.941406 C 10.785156 6.878906 10.808594 6.867188 10.808594 6.867188 C 10.828125 6.855469 10.839844 6.851562 10.851562 6.847656 C 10.859375 6.84375 10.867188 6.839844 10.875 6.835938 C 10.875 6.835938 10.882812 6.835938 10.910156 6.832031 C 10.929688 6.828125 10.941406 6.828125 10.941406 6.828125 L 10.949219 6.828125 L 10.953125 6.832031 C 10.957031 6.835938 10.957031 6.835938 10.957031 6.839844 C 10.957031 6.839844 10.957031 6.84375 10.957031 6.855469 C 10.957031 6.859375 10.957031 6.871094 10.953125 6.890625 C 10.953125 6.898438 10.945312 6.914062 10.929688 6.941406 C 10.914062 6.976562 10.902344 6.988281 10.902344 6.988281 Z M 11.855469 4.433594 C 11.851562 4.433594 11.847656 4.429688 11.84375 4.425781 L 11.835938 4.421875 L 11.828125 4.414062 C 11.824219 4.410156 11.820312 4.402344 11.816406 4.394531 C 11.8125 4.382812 11.808594 4.375 11.808594 4.371094 C 11.808594 4.367188 11.808594 4.367188 11.808594 4.363281 C 11.820312 4.367188 11.832031 4.367188 11.847656 4.367188 C 11.921875 4.359375 11.984375 4.316406 12.019531 4.253906 C 12.03125 4.25 12.042969 4.25 12.050781 4.246094 C 12.050781 4.246094 12.066406 4.246094 12.101562 4.25 L 12.113281 4.25 L 12.113281 4.257812 C 12.113281 4.261719 12.113281 4.269531 12.113281 4.273438 C 12.113281 4.277344 12.109375 4.289062 12.09375 4.316406 C 12.085938 4.335938 12.074219 4.351562 12.058594 4.367188 C 12.035156 4.394531 12.019531 4.402344 12.015625 4.40625 C 11.996094 4.417969 11.980469 4.425781 11.972656 4.425781 C 11.972656 4.425781 11.960938 4.433594 11.921875 4.4375 C 11.894531 4.441406 11.882812 4.4375 11.878906 4.4375 C 11.871094 4.4375 11.863281 4.433594 11.855469 4.433594 Z M 8.925781 5.082031 C 8.933594 4.996094 8.949219 4.910156 8.96875 4.832031 C 8.992188 4.730469 9.007812 4.683594 9.015625 4.65625 C 9.019531 4.636719 9.039062 4.585938 9.097656 4.445312 C 9.140625 4.34375 9.179688 4.257812 9.210938 4.199219 C 9.230469 4.160156 9.277344 4.085938 9.375 3.953125 C 9.453125 3.847656 9.519531 3.769531 9.566406 3.722656 C 9.613281 3.671875 9.671875 3.621094 9.742188 3.566406 C 9.8125 3.511719 9.886719 3.464844 9.957031 3.421875 C 10.058594 3.367188 10.105469 3.347656 10.121094 3.339844 C 10.144531 3.332031 10.191406 3.316406 10.273438 3.292969 C 10.339844 3.277344 10.40625 3.265625 10.476562 3.257812 C 10.550781 3.25 10.613281 3.25 10.667969 3.25 C 10.699219 3.253906 10.730469 3.257812 10.761719 3.261719 C 10.714844 3.382812 10.675781 3.476562 10.648438 3.542969 C 10.617188 3.617188 10.589844 3.683594 10.566406 3.738281 C 10.542969 3.792969 10.46875 3.96875 10.347656 4.261719 C 10.226562 4.554688 10.078125 4.898438 9.910156 5.28125 C 9.804688 5.515625 9.738281 5.667969 9.695312 5.765625 C 9.625 5.746094 9.539062 5.734375 9.445312 5.722656 C 9.347656 5.710938 9.273438 5.707031 9.214844 5.707031 C 9.160156 5.707031 9.085938 5.714844 9 5.726562 C 8.972656 5.726562 8.945312 5.730469 8.917969 5.738281 C 8.910156 5.636719 8.902344 5.527344 8.90625 5.414062 C 8.90625 5.277344 8.914062 5.167969 8.925781 5.082031 Z M 7.574219 8.0625 C 7.578125 7.933594 7.589844 7.832031 7.597656 7.761719 C 7.609375 7.691406 7.621094 7.625 7.632812 7.566406 C 7.644531 7.507812 7.660156 7.441406 7.679688 7.367188 C 7.699219 7.296875 7.722656 7.230469 7.742188 7.171875 C 7.757812 7.132812 7.792969 7.058594 7.878906 6.914062 C 7.960938 6.765625 8.007812 6.699219 8.035156 6.667969 C 8.058594 6.636719 8.113281 6.582031 8.21875 6.496094 C 8.300781 6.425781 8.390625 6.367188 8.476562 6.320312 C 8.507812 6.304688 8.542969 6.289062 8.578125 6.273438 C 8.601562 6.363281 8.621094 6.4375 8.640625 6.496094 C 8.664062 6.5625 8.6875 6.632812 8.71875 6.707031 C 8.746094 6.785156 8.785156 6.878906 8.835938 6.992188 C 8.902344 7.140625 8.921875 7.183594 8.933594 7.203125 C 8.949219 7.226562 8.964844 7.246094 8.988281 7.261719 C 8.976562 7.285156 8.964844 7.308594 8.953125 7.335938 C 8.84375 7.5625 8.726562 7.800781 8.605469 8.050781 C 8.484375 8.296875 8.402344 8.464844 8.359375 8.554688 C 8.324219 8.625 8.273438 8.726562 8.214844 8.851562 C 8.164062 8.839844 8.105469 8.828125 8.039062 8.820312 C 7.972656 8.8125 7.898438 8.808594 7.820312 8.808594 C 7.773438 8.8125 7.714844 8.816406 7.640625 8.824219 C 7.621094 8.742188 7.605469 8.664062 7.597656 8.597656 C 7.582031 8.496094 7.574219 8.414062 7.570312 8.351562 C 7.566406 8.289062 7.566406 8.195312 7.574219 8.0625 Z M 5.628906 11.132812 C 5.636719 11.035156 5.648438 10.949219 5.660156 10.875 C 5.675781 10.796875 5.691406 10.738281 5.707031 10.691406 C 5.722656 10.632812 5.734375 10.601562 5.742188 10.585938 C 5.746094 10.570312 5.761719 10.53125 5.800781 10.453125 C 5.828125 10.394531 5.867188 10.324219 5.921875 10.246094 C 5.972656 10.167969 6.03125 10.089844 6.101562 10.011719 C 6.175781 9.929688 6.230469 9.871094 6.273438 9.835938 C 6.3125 9.796875 6.363281 9.753906 6.425781 9.710938 C 6.492188 9.660156 6.539062 9.625 6.578125 9.605469 C 6.613281 9.582031 6.660156 9.554688 6.71875 9.523438 C 6.777344 9.492188 6.851562 9.460938 6.949219 9.421875 C 7.042969 9.382812 7.136719 9.351562 7.230469 9.328125 C 7.265625 9.316406 7.304688 9.308594 7.34375 9.300781 C 7.359375 9.34375 7.375 9.382812 7.386719 9.421875 C 7.425781 9.527344 7.46875 9.636719 7.515625 9.742188 C 7.582031 9.902344 7.585938 9.910156 7.589844 9.917969 C 7.609375 9.953125 7.636719 9.980469 7.667969 10 C 7.585938 10.175781 7.515625 10.328125 7.457031 10.453125 C 7.367188 10.648438 7.296875 10.808594 7.238281 10.9375 C 7.179688 11.0625 7.128906 11.171875 7.085938 11.269531 L 6.871094 11.738281 C 6.808594 11.871094 6.730469 12.042969 6.628906 12.25 C 6.609375 12.246094 6.589844 12.238281 6.570312 12.234375 C 6.480469 12.21875 6.386719 12.210938 6.28125 12.210938 C 6.179688 12.210938 6.066406 12.21875 5.953125 12.238281 C 5.886719 12.25 5.832031 12.261719 5.78125 12.273438 C 5.738281 12.152344 5.710938 12.042969 5.691406 11.953125 C 5.671875 11.863281 5.65625 11.769531 5.644531 11.679688 C 5.632812 11.585938 5.625 11.496094 5.625 11.410156 C 5.621094 11.320312 5.621094 11.230469 5.628906 11.132812 Z M 4.324219 14.785156 C 4.332031 14.71875 4.34375 14.648438 4.359375 14.574219 C 4.371094 14.5 4.390625 14.421875 4.417969 14.335938 C 4.441406 14.25 4.484375 14.132812 4.542969 13.988281 C 4.605469 13.839844 4.652344 13.730469 4.6875 13.664062 C 4.722656 13.59375 4.757812 13.535156 4.789062 13.484375 C 4.820312 13.433594 4.867188 13.371094 4.925781 13.296875 C 4.984375 13.222656 5.035156 13.164062 5.070312 13.128906 C 5.109375 13.089844 5.140625 13.058594 5.171875 13.035156 C 5.199219 13.011719 5.234375 12.984375 5.277344 12.953125 C 5.320312 12.925781 5.363281 12.894531 5.410156 12.871094 C 5.433594 12.855469 5.476562 12.832031 5.550781 12.796875 C 5.570312 12.835938 5.589844 12.871094 5.609375 12.910156 C 5.710938 13.089844 5.785156 13.214844 5.835938 13.285156 C 5.90625 13.382812 5.921875 13.402344 5.929688 13.414062 C 5.957031 13.445312 5.988281 13.464844 6.023438 13.480469 C 5.964844 13.597656 5.882812 13.746094 5.785156 13.929688 L 5.5625 14.355469 C 5.515625 14.441406 5.4375 14.589844 5.324219 14.796875 C 5.214844 15 5.09375 15.226562 4.960938 15.464844 C 4.898438 15.457031 4.84375 15.457031 4.792969 15.457031 C 4.742188 15.457031 4.679688 15.464844 4.609375 15.476562 C 4.535156 15.484375 4.46875 15.5 4.410156 15.515625 C 4.40625 15.515625 4.398438 15.519531 4.390625 15.519531 C 4.378906 15.472656 4.351562 15.429688 4.3125 15.402344 C 4.308594 15.351562 4.308594 15.269531 4.308594 15.144531 C 4.3125 14.929688 4.316406 14.832031 4.324219 14.785156 Z M 2.828125 18.570312 C 2.824219 18.546875 2.816406 18.484375 2.808594 18.308594 C 2.796875 18.121094 2.800781 18.078125 2.800781 18.070312 C 2.800781 18.050781 2.804688 18.007812 2.816406 17.917969 C 2.824219 17.851562 2.835938 17.78125 2.851562 17.710938 C 2.867188 17.644531 2.898438 17.546875 2.945312 17.417969 C 2.996094 17.289062 3.039062 17.191406 3.074219 17.128906 C 3.113281 17.058594 3.144531 17 3.171875 16.957031 C 3.199219 16.914062 3.222656 16.878906 3.242188 16.855469 C 3.257812 16.832031 3.277344 16.804688 3.296875 16.777344 C 3.308594 16.765625 3.335938 16.726562 3.417969 16.636719 C 3.476562 16.566406 3.542969 16.5 3.609375 16.4375 C 3.675781 16.371094 3.753906 16.308594 3.84375 16.246094 C 3.894531 16.207031 3.945312 16.175781 3.988281 16.148438 C 4 16.214844 4.019531 16.289062 4.039062 16.367188 C 4.078125 16.535156 4.105469 16.644531 4.121094 16.710938 C 4.140625 16.769531 4.148438 16.808594 4.152344 16.824219 C 4.160156 16.855469 4.175781 16.878906 4.191406 16.902344 C 4.097656 17.082031 4.019531 17.230469 3.964844 17.34375 C 3.902344 17.46875 3.808594 17.660156 3.6875 17.914062 C 3.5625 18.167969 3.460938 18.394531 3.375 18.589844 C 3.289062 18.785156 3.203125 18.984375 3.117188 19.191406 L 3.082031 19.277344 C 3.058594 19.230469 3.039062 19.191406 3.023438 19.15625 C 3.003906 19.121094 2.980469 19.0625 2.949219 18.992188 C 2.925781 18.925781 2.898438 18.847656 2.875 18.765625 C 2.847656 18.65625 2.835938 18.601562 2.828125 18.570312 Z M 2.175781 24.953125 C 2.160156 24.953125 2.140625 24.957031 2.113281 24.957031 C 2.089844 24.957031 2.066406 24.957031 2.046875 24.957031 C 2.03125 24.957031 2.011719 24.953125 1.992188 24.953125 C 1.96875 24.949219 1.941406 24.945312 1.914062 24.9375 C 1.886719 24.929688 1.855469 24.921875 1.828125 24.914062 C 1.800781 24.90625 1.777344 24.894531 1.757812 24.886719 C 1.734375 24.878906 1.710938 24.867188 1.683594 24.851562 C 1.65625 24.835938 1.628906 24.824219 1.609375 24.808594 C 1.585938 24.792969 1.558594 24.773438 1.53125 24.753906 C 1.511719 24.738281 1.476562 24.707031 1.414062 24.644531 C 1.363281 24.589844 1.324219 24.546875 1.300781 24.511719 C 1.273438 24.476562 1.25 24.441406 1.230469 24.40625 C 1.214844 24.371094 1.195312 24.335938 1.179688 24.296875 C 1.160156 24.261719 1.144531 24.214844 1.125 24.160156 C 1.109375 24.105469 1.089844 24.039062 1.074219 23.96875 C 1.058594 23.898438 1.042969 23.792969 1.027344 23.65625 C 1.007812 23.515625 1 23.410156 0.996094 23.34375 C 0.992188 23.277344 0.992188 23.199219 0.992188 23.117188 C 0.992188 23.035156 0.992188 22.964844 0.996094 22.902344 C 1 22.839844 1.007812 22.769531 1.015625 22.691406 C 1.023438 22.609375 1.035156 22.519531 1.050781 22.421875 C 1.074219 22.28125 1.078125 22.25 1.078125 22.246094 C 1.082031 22.226562 1.09375 22.183594 1.109375 22.113281 C 1.128906 22.046875 1.152344 21.964844 1.183594 21.875 C 1.210938 21.789062 1.273438 21.660156 1.363281 21.496094 C 1.488281 21.269531 1.53125 21.203125 1.546875 21.179688 C 1.574219 21.136719 1.613281 21.082031 1.664062 21.015625 C 1.714844 20.953125 1.757812 20.898438 1.792969 20.855469 C 1.816406 20.828125 1.867188 20.773438 1.972656 20.671875 C 2.058594 20.589844 2.125 20.527344 2.175781 20.488281 C 2.226562 20.449219 2.28125 20.414062 2.332031 20.382812 C 2.378906 20.355469 2.449219 20.320312 2.542969 20.28125 C 2.597656 20.257812 2.636719 20.242188 2.664062 20.234375 C 2.621094 20.332031 2.578125 20.421875 2.539062 20.503906 C 2.472656 20.640625 2.429688 20.734375 2.40625 20.78125 L 2.304688 20.996094 C 2.261719 21.09375 2.097656 21.4375 1.808594 22.046875 C 1.558594 22.570312 1.445312 22.808594 1.390625 22.917969 C 1.320312 22.957031 1.28125 23.035156 1.292969 23.121094 C 1.292969 23.128906 1.296875 23.132812 1.296875 23.140625 C 1.292969 23.214844 1.332031 23.285156 1.402344 23.324219 C 1.433594 23.339844 1.464844 23.347656 1.496094 23.347656 C 1.558594 23.351562 1.617188 23.324219 1.65625 23.273438 C 1.710938 23.265625 1.773438 23.257812 1.851562 23.246094 C 1.898438 23.238281 1.945312 23.234375 1.988281 23.226562 C 1.992188 23.25 1.996094 23.273438 2 23.304688 C 2.003906 23.332031 2.023438 23.4375 2.050781 23.625 L 2.128906 24.09375 C 2.148438 24.21875 2.164062 24.332031 2.179688 24.441406 C 2.199219 24.546875 2.210938 24.644531 2.226562 24.730469 C 2.234375 24.78125 2.242188 24.851562 2.253906 24.9375 L 2.234375 24.941406 C 2.210938 24.945312 2.191406 24.949219 2.175781 24.953125 Z M 7.644531 27.003906 C 7.5625 26.917969 7.488281 26.835938 7.425781 26.765625 C 7.355469 26.6875 7.304688 26.632812 7.269531 26.597656 C 7.261719 26.589844 7.25 26.582031 7.238281 26.574219 C 7.234375 26.570312 7.234375 26.566406 7.230469 26.5625 C 7.144531 26.488281 7.015625 26.496094 6.941406 26.578125 C 6.777344 26.757812 6.675781 26.871094 6.636719 26.914062 C 6.597656 26.957031 6.550781 27.011719 6.496094 27.070312 C 6.445312 27.132812 6.375 27.210938 6.285156 27.316406 C 6.242188 27.363281 6.207031 27.402344 6.183594 27.429688 C 6.1875 27.410156 6.191406 27.390625 6.195312 27.367188 C 6.210938 27.253906 6.238281 27.117188 6.269531 26.957031 C 6.304688 26.761719 6.320312 26.695312 6.324219 26.675781 C 6.332031 26.648438 6.339844 26.605469 6.351562 26.554688 C 6.363281 26.5 6.371094 26.464844 6.375 26.449219 L 6.390625 26.390625 C 6.394531 26.367188 6.40625 26.335938 6.414062 26.289062 L 6.421875 26.257812 C 6.464844 26.214844 6.492188 26.152344 6.480469 26.085938 C 6.480469 26.070312 6.476562 26.058594 6.46875 26.042969 C 6.480469 25.988281 6.492188 25.941406 6.5 25.902344 C 6.511719 25.851562 6.523438 25.808594 6.535156 25.769531 C 6.542969 25.730469 6.558594 25.675781 6.574219 25.605469 L 6.613281 25.460938 C 6.621094 25.4375 6.644531 25.339844 6.683594 25.179688 C 6.722656 25.015625 6.753906 24.90625 6.769531 24.847656 C 6.785156 24.796875 6.800781 24.742188 6.820312 24.683594 L 6.875 24.667969 C 6.867188 24.699219 6.859375 24.722656 6.851562 24.742188 L 6.824219 24.832031 C 6.816406 24.867188 6.804688 24.90625 6.792969 24.945312 C 6.78125 24.988281 6.769531 25.019531 6.765625 25.042969 C 6.757812 25.0625 6.753906 25.085938 6.746094 25.109375 C 6.738281 25.136719 6.734375 25.152344 6.734375 25.152344 C 6.734375 25.15625 6.730469 25.171875 6.722656 25.203125 C 6.714844 25.234375 6.703125 25.277344 6.6875 25.335938 C 6.671875 25.390625 6.703125 25.441406 6.753906 25.457031 C 6.761719 25.457031 6.769531 25.457031 6.777344 25.460938 C 6.824219 25.460938 6.863281 25.429688 6.875 25.386719 C 6.890625 25.328125 6.902344 25.28125 6.910156 25.25 C 6.917969 25.21875 6.921875 25.203125 6.925781 25.199219 C 6.925781 25.195312 6.929688 25.183594 6.933594 25.164062 C 6.941406 25.140625 6.945312 25.117188 6.953125 25.09375 C 6.960938 25.070312 6.96875 25.039062 6.980469 25 C 6.992188 24.960938 7.003906 24.921875 7.011719 24.890625 L 7.039062 24.796875 C 7.046875 24.769531 7.058594 24.730469 7.074219 24.683594 C 7.082031 24.660156 7.089844 24.636719 7.097656 24.613281 C 7.175781 24.59375 7.257812 24.574219 7.339844 24.554688 C 7.5 24.511719 7.65625 24.472656 7.804688 24.4375 C 7.949219 24.402344 8.070312 24.375 8.167969 24.351562 C 8.164062 24.472656 8.148438 24.703125 8.128906 25.046875 C 8.109375 25.410156 8.097656 25.628906 8.09375 25.699219 C 8.089844 25.769531 8.078125 26.003906 8.054688 26.394531 C 8.035156 26.789062 8.019531 27.082031 8.007812 27.269531 L 8 27.363281 C 7.820312 27.1875 7.699219 27.066406 7.644531 27.003906 Z M 20.3125 25.125 C 20.070312 25.144531 19.898438 25.152344 19.796875 25.160156 C 19.691406 25.164062 19.585938 25.171875 19.480469 25.175781 C 19.375 25.179688 19.269531 25.1875 19.164062 25.191406 L 18.824219 25.207031 C 18.699219 25.210938 18.503906 25.21875 18.238281 25.226562 C 17.972656 25.234375 17.578125 25.242188 17.0625 25.25 C 16.527344 25.257812 16.21875 25.265625 16.097656 25.265625 C 15.96875 25.265625 15.820312 25.265625 15.648438 25.269531 C 15.476562 25.269531 15.226562 25.273438 14.902344 25.277344 C 14.574219 25.28125 14.257812 25.289062 13.957031 25.300781 C 13.648438 25.3125 13.394531 25.324219 13.183594 25.332031 C 12.96875 25.34375 12.785156 25.351562 12.625 25.359375 C 12.464844 25.371094 12.339844 25.378906 12.25 25.382812 C 12.164062 25.390625 12.039062 25.398438 11.882812 25.414062 C 11.726562 25.425781 11.492188 25.449219 11.179688 25.476562 C 10.867188 25.507812 10.625 25.53125 10.460938 25.550781 C 10.296875 25.566406 10.152344 25.582031 10.027344 25.597656 C 9.902344 25.613281 9.789062 25.625 9.6875 25.632812 C 9.589844 25.644531 9.429688 25.660156 9.214844 25.679688 C 9.019531 25.699219 8.777344 25.71875 8.496094 25.742188 L 8.496094 25.71875 C 8.5 25.648438 8.511719 25.433594 8.53125 25.070312 C 8.554688 24.707031 8.566406 24.46875 8.574219 24.355469 C 8.578125 24.285156 8.582031 24.234375 8.582031 24.203125 C 8.617188 24.15625 8.632812 24.097656 8.617188 24.039062 C 8.589844 23.929688 8.480469 23.863281 8.375 23.890625 C 8.277344 23.914062 8.179688 23.9375 8.078125 23.957031 C 7.980469 23.980469 7.855469 24.011719 7.707031 24.046875 C 7.558594 24.082031 7.402344 24.121094 7.242188 24.164062 C 7.082031 24.203125 6.929688 24.242188 6.792969 24.273438 C 6.65625 24.308594 6.53125 24.335938 6.425781 24.363281 C 6.386719 24.375 6.359375 24.390625 6.332031 24.417969 C 6.285156 24.441406 6.246094 24.488281 6.230469 24.546875 C 6.226562 24.566406 6.222656 24.59375 6.175781 24.941406 C 6.144531 25.160156 6.105469 25.433594 6.054688 25.746094 C 6.046875 25.8125 6.035156 25.878906 6.023438 25.945312 C 5.984375 25.949219 5.945312 25.953125 5.90625 25.957031 C 5.792969 25.972656 5.679688 25.988281 5.558594 26.003906 C 5.441406 26.019531 5.3125 26.039062 5.175781 26.058594 C 5.039062 26.078125 4.902344 26.097656 4.765625 26.117188 C 4.628906 26.132812 4.472656 26.15625 4.300781 26.179688 L 3.789062 26.25 C 3.621094 26.273438 3.476562 26.296875 3.351562 26.3125 C 3.230469 26.332031 3.152344 26.34375 3.109375 26.347656 C 3.066406 26.355469 2.988281 26.363281 2.875 26.378906 L 2.871094 26.378906 L 2.859375 26.3125 C 2.8125 26 2.78125 25.753906 2.753906 25.578125 C 2.730469 25.402344 2.703125 25.226562 2.679688 25.058594 C 2.65625 24.886719 2.640625 24.757812 2.625 24.671875 C 2.613281 24.585938 2.597656 24.488281 2.582031 24.378906 C 2.566406 24.273438 2.546875 24.15625 2.527344 24.03125 L 2.453125 23.5625 C 2.421875 23.375 2.40625 23.265625 2.402344 23.242188 C 2.398438 23.222656 2.394531 23.207031 2.394531 23.195312 C 2.394531 23.183594 2.390625 23.179688 2.390625 23.171875 C 2.445312 23.160156 2.492188 23.15625 2.527344 23.148438 C 2.582031 23.140625 2.679688 23.128906 2.828125 23.109375 L 3.148438 23.070312 C 3.210938 23.0625 3.292969 23.050781 3.402344 23.039062 C 3.511719 23.027344 3.601562 23.019531 3.671875 23.011719 L 4.085938 22.972656 C 4.289062 22.957031 4.550781 22.929688 4.867188 22.898438 C 5.1875 22.867188 5.4375 22.839844 5.617188 22.820312 C 5.796875 22.800781 6.035156 22.773438 6.335938 22.738281 C 6.644531 22.703125 6.8125 22.683594 6.855469 22.679688 C 6.878906 22.675781 6.984375 22.664062 7.421875 22.617188 C 7.757812 22.582031 8.027344 22.550781 8.234375 22.53125 C 8.441406 22.507812 8.699219 22.484375 9.003906 22.453125 C 9.308594 22.421875 9.5625 22.394531 9.753906 22.378906 C 9.945312 22.363281 10.167969 22.34375 10.414062 22.328125 C 10.664062 22.3125 10.855469 22.300781 10.992188 22.289062 C 11.128906 22.28125 11.238281 22.273438 11.320312 22.269531 C 11.402344 22.265625 11.609375 22.253906 11.9375 22.238281 C 12.261719 22.21875 12.566406 22.203125 12.832031 22.195312 C 13.105469 22.183594 13.324219 22.175781 13.492188 22.171875 C 13.660156 22.167969 13.804688 22.164062 13.929688 22.160156 C 14.058594 22.160156 14.25 22.15625 14.5 22.15625 C 14.757812 22.15625 14.957031 22.15625 15.101562 22.15625 C 15.25 22.15625 15.402344 22.15625 15.566406 22.15625 C 15.726562 22.15625 15.929688 22.15625 16.167969 22.15625 C 16.410156 22.160156 16.671875 22.160156 16.957031 22.160156 C 17.242188 22.160156 17.527344 22.15625 17.804688 22.152344 C 18.085938 22.144531 18.300781 22.140625 18.445312 22.132812 C 18.59375 22.125 18.703125 22.121094 18.773438 22.117188 C 18.847656 22.109375 18.914062 22.105469 18.976562 22.101562 L 19.128906 22.085938 C 19.171875 22.082031 19.265625 22.074219 19.410156 22.058594 C 19.550781 22.039062 19.707031 22.019531 19.871094 21.992188 C 20.039062 21.96875 20.183594 21.941406 20.308594 21.921875 C 20.335938 21.917969 20.359375 21.910156 20.382812 21.90625 C 20.390625 21.949219 20.402344 22.007812 20.417969 22.089844 C 20.4375 22.199219 20.464844 22.382812 20.507812 22.640625 C 20.546875 22.902344 20.570312 23.070312 20.582031 23.144531 L 20.632812 23.472656 C 20.65625 23.617188 20.679688 23.78125 20.707031 23.96875 C 20.730469 24.148438 20.753906 24.296875 20.765625 24.402344 C 20.78125 24.511719 20.800781 24.644531 20.820312 24.808594 C 20.824219 24.8125 20.824219 24.816406 20.824219 24.820312 C 20.824219 24.839844 20.824219 24.855469 20.824219 24.875 C 20.824219 24.910156 20.824219 24.933594 20.824219 24.945312 C 20.824219 24.953125 20.824219 24.984375 20.824219 25.035156 C 20.824219 25.054688 20.824219 25.070312 20.824219 25.085938 C 20.703125 25.097656 20.53125 25.113281 20.3125 25.125 Z M 25.574219 11.179688 C 25.507812 11.410156 25.398438 11.769531 25.253906 12.25 C 25.105469 12.730469 25.011719 13.035156 24.976562 13.152344 C 24.9375 13.269531 24.894531 13.40625 24.84375 13.558594 C 24.792969 13.710938 24.753906 13.828125 24.726562 13.910156 C 24.699219 13.996094 24.636719 14.179688 24.539062 14.472656 C 24.445312 14.761719 24.355469 15.046875 24.273438 15.3125 C 24.191406 15.578125 24.117188 15.824219 24.054688 16.042969 C 23.996094 16.261719 23.886719 16.648438 23.738281 17.195312 C 23.585938 17.746094 23.472656 18.160156 23.394531 18.4375 C 23.320312 18.71875 23.242188 18.988281 23.171875 19.242188 C 23.097656 19.5 23.015625 19.785156 22.925781 20.09375 C 22.839844 20.40625 22.753906 20.707031 22.671875 21.003906 C 22.585938 21.296875 22.519531 21.539062 22.46875 21.722656 L 22.042969 23.269531 C 21.964844 23.546875 21.910156 23.75 21.871094 23.882812 C 21.835938 24.011719 21.808594 24.105469 21.792969 24.164062 C 21.777344 24.21875 21.753906 24.292969 21.726562 24.382812 L 21.644531 24.65625 C 21.617188 24.742188 21.59375 24.820312 21.574219 24.882812 C 21.554688 24.945312 21.542969 24.988281 21.535156 25.007812 L 21.535156 25.015625 L 21.523438 25.015625 L 21.226562 25.046875 C 21.226562 25.042969 21.226562 25.039062 21.226562 25.035156 C 21.226562 24.976562 21.226562 24.941406 21.226562 24.933594 C 21.226562 24.925781 21.226562 24.910156 21.226562 24.882812 C 21.226562 24.851562 21.226562 24.816406 21.226562 24.785156 C 21.226562 24.765625 21.222656 24.742188 21.214844 24.722656 C 21.195312 24.574219 21.179688 24.449219 21.167969 24.351562 C 21.152344 24.242188 21.132812 24.09375 21.105469 23.910156 C 21.078125 23.722656 21.054688 23.558594 21.03125 23.414062 L 20.980469 23.085938 C 20.96875 23.011719 20.945312 22.839844 20.90625 22.582031 C 20.863281 22.316406 20.832031 22.132812 20.8125 22.019531 C 20.796875 21.933594 20.785156 21.871094 20.777344 21.828125 C 20.804688 21.820312 20.832031 21.8125 20.855469 21.808594 L 21.074219 21.757812 C 21.179688 21.734375 21.25 21.632812 21.230469 21.523438 C 21.234375 21.515625 21.238281 21.507812 21.242188 21.496094 C 21.285156 21.375 21.316406 21.292969 21.328125 21.246094 C 21.34375 21.203125 21.363281 21.140625 21.386719 21.0625 C 21.414062 20.980469 21.4375 20.910156 21.453125 20.851562 C 21.472656 20.792969 21.492188 20.726562 21.515625 20.652344 L 21.621094 20.308594 C 21.667969 20.160156 21.746094 19.886719 21.851562 19.496094 C 21.960938 19.109375 22.050781 18.78125 22.121094 18.527344 L 22.253906 18.019531 C 22.277344 17.9375 22.308594 17.820312 22.351562 17.664062 C 22.390625 17.507812 22.4375 17.347656 22.480469 17.183594 C 22.527344 17.023438 22.585938 16.820312 22.65625 16.585938 C 22.722656 16.351562 22.800781 16.105469 22.878906 15.847656 C 22.960938 15.585938 23.015625 15.410156 23.042969 15.316406 C 23.074219 15.222656 23.117188 15.085938 23.171875 14.90625 C 23.230469 14.726562 23.3125 14.449219 23.421875 14.078125 C 23.53125 13.707031 23.613281 13.429688 23.664062 13.25 L 23.828125 12.648438 C 23.890625 12.425781 23.984375 12.097656 24.105469 11.675781 C 24.230469 11.25 24.300781 10.996094 24.328125 10.914062 C 24.351562 10.828125 24.386719 10.714844 24.425781 10.570312 C 24.46875 10.425781 24.519531 10.253906 24.582031 10.050781 C 24.640625 9.851562 24.722656 9.574219 24.828125 9.230469 C 24.9375 8.878906 25.003906 8.660156 25.039062 8.554688 C 25.070312 8.449219 25.105469 8.347656 25.140625 8.242188 C 25.175781 8.136719 25.222656 7.996094 25.28125 7.824219 C 25.34375 7.648438 25.433594 7.386719 25.550781 7.042969 C 25.671875 6.699219 25.769531 6.414062 25.851562 6.1875 L 26.070312 5.546875 C 26.140625 5.347656 26.242188 5.054688 26.378906 4.675781 C 26.402344 4.605469 26.429688 4.539062 26.449219 4.472656 C 26.457031 4.6875 26.460938 4.796875 26.460938 4.859375 C 26.453125 4.882812 26.449219 4.894531 26.449219 4.898438 L 26.425781 4.964844 C 26.417969 4.984375 26.414062 5 26.410156 5.015625 L 26.394531 5.054688 C 26.390625 5.070312 26.382812 5.089844 26.371094 5.121094 C 26.359375 5.152344 26.347656 5.1875 26.332031 5.222656 C 26.316406 5.261719 26.304688 5.292969 26.296875 5.316406 C 26.289062 5.339844 26.28125 5.355469 26.28125 5.359375 L 26.253906 5.421875 C 26.238281 5.460938 26.226562 5.488281 26.21875 5.511719 L 26.167969 5.625 C 26.15625 5.652344 26.144531 5.679688 26.132812 5.710938 C 26.117188 5.742188 26.097656 5.789062 26.074219 5.847656 C 26.050781 5.90625 26.027344 5.957031 26.011719 5.996094 L 25.960938 6.117188 C 25.945312 6.164062 25.933594 6.191406 25.925781 6.207031 C 25.921875 6.222656 25.910156 6.242188 25.902344 6.269531 C 25.890625 6.296875 25.878906 6.324219 25.867188 6.359375 L 25.824219 6.472656 C 25.808594 6.519531 25.792969 6.5625 25.777344 6.601562 C 25.761719 6.640625 25.753906 6.667969 25.746094 6.683594 L 25.730469 6.730469 C 25.722656 6.75 25.714844 6.773438 25.707031 6.804688 C 25.695312 6.835938 25.6875 6.859375 25.683594 6.871094 C 25.667969 6.921875 25.695312 6.976562 25.746094 6.992188 C 25.757812 6.996094 25.765625 6.996094 25.773438 6.996094 C 25.816406 7 25.855469 6.972656 25.871094 6.929688 C 25.875 6.917969 25.878906 6.898438 25.890625 6.867188 C 25.902344 6.835938 25.910156 6.8125 25.914062 6.792969 L 25.929688 6.746094 C 25.9375 6.730469 25.945312 6.703125 25.960938 6.667969 C 25.972656 6.628906 25.988281 6.585938 26.007812 6.539062 L 26.050781 6.425781 C 26.0625 6.394531 26.070312 6.367188 26.082031 6.339844 C 26.09375 6.316406 26.101562 6.296875 26.105469 6.28125 C 26.113281 6.265625 26.125 6.238281 26.144531 6.191406 L 26.195312 6.066406 C 26.207031 6.03125 26.230469 5.980469 26.253906 5.921875 C 26.277344 5.863281 26.296875 5.816406 26.3125 5.785156 C 26.324219 5.753906 26.335938 5.726562 26.347656 5.703125 L 26.398438 5.585938 C 26.40625 5.566406 26.417969 5.535156 26.433594 5.496094 L 26.460938 5.433594 C 26.460938 5.429688 26.46875 5.414062 26.476562 5.386719 C 26.484375 5.367188 26.496094 5.339844 26.507812 5.3125 L 26.511719 5.363281 C 26.542969 5.613281 26.570312 5.804688 26.59375 5.9375 C 26.617188 6.070312 26.644531 6.207031 26.675781 6.34375 C 26.699219 6.472656 26.714844 6.542969 26.71875 6.550781 C 26.71875 6.554688 26.71875 6.558594 26.761719 6.734375 C 26.789062 6.851562 26.820312 6.972656 26.855469 7.097656 C 26.886719 7.210938 26.90625 7.292969 26.921875 7.34375 C 26.914062 7.359375 26.910156 7.375 26.90625 7.390625 C 26.878906 7.46875 26.847656 7.5625 26.8125 7.675781 C 26.777344 7.789062 26.746094 7.890625 26.714844 7.980469 C 26.6875 8.070312 26.65625 8.167969 26.621094 8.277344 L 26.582031 8.394531 C 26.582031 8.398438 26.578125 8.402344 26.578125 8.410156 C 26.402344 8.414062 26.1875 8.417969 25.9375 8.425781 C 25.921875 8.367188 25.878906 8.316406 25.816406 8.292969 C 25.710938 8.253906 25.59375 8.304688 25.550781 8.410156 C 25.542969 8.4375 25.523438 8.496094 25.453125 8.726562 C 25.402344 8.890625 25.253906 9.335938 25.011719 10.050781 L 24.960938 10.191406 C 24.933594 10.28125 24.96875 10.378906 25.042969 10.429688 C 25.078125 10.492188 25.144531 10.535156 25.21875 10.539062 C 25.226562 10.539062 25.230469 10.539062 25.238281 10.535156 C 25.363281 10.527344 25.503906 10.519531 25.664062 10.507812 C 25.667969 10.570312 25.691406 10.625 25.730469 10.667969 C 25.6875 10.800781 25.636719 10.972656 25.574219 11.179688 Z M 27.820312 8.914062 C 27.675781 8.988281 27.5625 9.046875 27.476562 9.089844 C 27.398438 9.128906 27.230469 9.210938 26.976562 9.335938 L 26.972656 9.339844 L 26.921875 9.363281 C 26.820312 9.410156 26.78125 9.535156 26.828125 9.632812 C 26.863281 9.703125 26.933594 9.746094 27.007812 9.746094 L 27.011719 9.746094 C 27.027344 9.761719 27.046875 9.777344 27.0625 9.792969 C 27.101562 9.835938 27.125 9.859375 27.132812 9.871094 C 27.144531 9.878906 27.164062 9.902344 27.234375 9.976562 L 27.273438 10.011719 C 26.972656 10.027344 26.761719 10.039062 26.640625 10.046875 C 26.480469 10.054688 26.378906 10.0625 26.335938 10.0625 C 26.289062 10.066406 26.136719 10.074219 25.878906 10.089844 C 25.710938 10.101562 25.558594 10.109375 25.421875 10.117188 C 25.582031 9.644531 25.699219 9.296875 25.773438 9.074219 L 25.816406 9.070312 C 25.867188 9.070312 25.910156 9.066406 25.953125 9.066406 C 25.992188 9.066406 26.023438 9.0625 26.042969 9.0625 C 26.066406 9.0625 26.097656 9.0625 26.148438 9.0625 L 26.398438 9.058594 C 26.453125 9.058594 26.496094 9.015625 26.496094 8.960938 C 26.496094 8.910156 26.453125 8.867188 26.398438 8.867188 L 26.144531 8.871094 C 26.09375 8.871094 26.0625 8.871094 26.039062 8.871094 C 26.019531 8.871094 25.988281 8.875 25.945312 8.875 C 25.910156 8.875 25.875 8.875 25.835938 8.878906 C 25.839844 8.867188 25.839844 8.851562 25.84375 8.84375 L 25.847656 8.835938 C 26.15625 8.828125 26.414062 8.820312 26.621094 8.816406 C 26.5625 8.820312 26.519531 8.871094 26.515625 8.929688 C 26.515625 8.996094 26.566406 9.050781 26.632812 9.050781 C 26.699219 9.050781 26.753906 9 26.753906 8.933594 C 26.757812 8.871094 26.707031 8.820312 26.644531 8.8125 C 26.835938 8.808594 26.980469 8.804688 27.082031 8.800781 C 27.300781 8.796875 27.480469 8.792969 27.617188 8.789062 C 27.757812 8.789062 27.886719 8.785156 28.011719 8.785156 C 28.027344 8.785156 28.046875 8.78125 28.070312 8.78125 C 27.976562 8.832031 27.894531 8.875 27.820312 8.914062 Z M 27.820312 8.914062 " fill-opacity="1" fill-rule="nonzero"/></g></g></g></g><g clip-path="url(#d9c605c9bb)"><g clip-path="url(#97fa1667cd)"><g clip-path="url(#32b6344ecc)"><g clip-path="url(#b2fe979d8e)"><path fill="#000000" d="M 5.066406 25.808594 L 4.890625 25.835938 C 4.863281 25.835938 4.84375 25.839844 4.828125 25.84375 L 4.800781 25.847656 C 4.800781 25.847656 4.789062 25.847656 4.773438 25.847656 L 4.710938 25.855469 C 4.6875 25.859375 4.652344 25.863281 4.617188 25.871094 C 4.578125 25.875 4.554688 25.878906 4.542969 25.878906 C 4.535156 25.882812 4.511719 25.882812 4.476562 25.890625 L 4.390625 25.898438 C 4.371094 25.902344 4.34375 25.90625 4.316406 25.910156 C 4.285156 25.914062 4.257812 25.917969 4.226562 25.917969 C 4.195312 25.921875 4.167969 25.925781 4.140625 25.929688 C 4.113281 25.933594 4.082031 25.9375 4.046875 25.945312 C 4.011719 25.949219 3.988281 25.949219 3.972656 25.953125 C 3.960938 25.953125 3.941406 25.957031 3.917969 25.960938 C 3.894531 25.960938 3.859375 25.964844 3.816406 25.972656 C 3.773438 25.976562 3.742188 25.980469 3.722656 25.984375 L 3.675781 25.988281 C 3.667969 25.992188 3.628906 25.996094 3.558594 26.003906 C 3.492188 26.011719 3.441406 26.019531 3.40625 26.023438 L 3.085938 26.0625 C 3.078125 26.015625 3.074219 25.984375 3.074219 25.976562 L 3.066406 25.917969 C 3.0625 25.894531 3.058594 25.875 3.054688 25.855469 C 3.050781 25.835938 3.046875 25.816406 3.042969 25.800781 C 3.039062 25.78125 3.035156 25.757812 3.027344 25.734375 C 3.015625 25.683594 2.964844 25.648438 2.910156 25.664062 C 2.859375 25.675781 2.828125 25.726562 2.839844 25.78125 C 2.847656 25.800781 2.851562 25.820312 2.851562 25.835938 C 2.855469 25.855469 2.859375 25.871094 2.863281 25.886719 C 2.867188 25.90625 2.871094 25.925781 2.875 25.953125 L 2.882812 26.003906 C 2.882812 26.019531 2.890625 26.070312 2.90625 26.160156 C 2.90625 26.171875 2.910156 26.183594 2.914062 26.191406 C 2.925781 26.234375 2.964844 26.265625 3.007812 26.265625 C 3.011719 26.265625 3.015625 26.265625 3.019531 26.265625 C 3.023438 26.261719 3.050781 26.261719 3.101562 26.253906 L 3.429688 26.214844 C 3.464844 26.210938 3.515625 26.203125 3.585938 26.195312 C 3.652344 26.1875 3.695312 26.179688 3.703125 26.179688 L 3.746094 26.175781 C 3.765625 26.171875 3.796875 26.167969 3.839844 26.164062 C 3.882812 26.15625 3.917969 26.152344 3.941406 26.148438 C 3.964844 26.148438 3.980469 26.144531 3.996094 26.144531 C 4.011719 26.140625 4.035156 26.140625 4.070312 26.132812 C 4.105469 26.128906 4.136719 26.125 4.167969 26.121094 C 4.191406 26.117188 4.222656 26.113281 4.25 26.109375 C 4.28125 26.109375 4.308594 26.105469 4.339844 26.101562 C 4.367188 26.097656 4.394531 26.09375 4.414062 26.089844 L 4.5 26.078125 C 4.539062 26.074219 4.5625 26.070312 4.574219 26.070312 C 4.582031 26.070312 4.605469 26.066406 4.640625 26.0625 C 4.679688 26.054688 4.710938 26.050781 4.738281 26.046875 L 4.851562 26.035156 C 4.867188 26.03125 4.890625 26.027344 4.917969 26.023438 L 5.09375 26 C 5.144531 25.992188 5.183594 25.945312 5.175781 25.890625 C 5.167969 25.839844 5.117188 25.804688 5.066406 25.808594 Z M 5.066406 25.808594 " fill-opacity="1" fill-rule="nonzero"/></g></g></g></g><g clip-path="url(#9ee25c9e9a)"><g clip-path="url(#e87a0f7d7c)"><g clip-path="url(#69e0d5d0f9)"><g clip-path="url(#3aa6b8e56b)"><path fill="#000000" d="M 5.300781 25.78125 L 5.277344 25.789062 C 5.226562 25.804688 5.199219 25.859375 5.21875 25.910156 C 5.230469 25.949219 5.265625 25.972656 5.308594 25.976562 C 5.316406 25.976562 5.328125 25.972656 5.339844 25.96875 L 5.363281 25.960938 C 5.414062 25.945312 5.4375 25.890625 5.421875 25.839844 C 5.40625 25.789062 5.351562 25.765625 5.300781 25.78125 Z M 5.300781 25.78125 " fill-opacity="1" fill-rule="nonzero"/></g></g></g></g><g clip-path="url(#cdaf00e396)"><g clip-path="url(#6505ac14b9)"><g clip-path="url(#adde5712bd)"><g clip-path="url(#942a5647ee)"><path fill="#000000" d="M 20.207031 22.46875 C 20.257812 22.46875 20.300781 22.429688 20.304688 22.378906 C 20.308594 22.34375 20.3125 22.308594 20.3125 22.273438 L 20.320312 22.1875 C 20.324219 22.152344 20.308594 22.121094 20.285156 22.101562 C 20.261719 22.074219 20.226562 22.058594 20.1875 22.066406 C 20.128906 22.078125 20.085938 22.085938 20.054688 22.09375 C 20.023438 22.101562 19.992188 22.105469 19.964844 22.109375 L 19.820312 22.136719 C 19.753906 22.152344 19.699219 22.160156 19.648438 22.171875 C 19.601562 22.179688 19.535156 22.191406 19.449219 22.203125 C 19.363281 22.21875 19.308594 22.226562 19.285156 22.230469 C 19.261719 22.234375 19.230469 22.238281 19.195312 22.242188 C 19.160156 22.246094 19.109375 22.253906 19.039062 22.261719 C 18.96875 22.269531 18.90625 22.277344 18.847656 22.28125 C 18.789062 22.289062 18.738281 22.292969 18.695312 22.296875 C 18.652344 22.300781 18.601562 22.300781 18.539062 22.304688 C 18.480469 22.308594 18.433594 22.308594 18.398438 22.308594 C 18.363281 22.308594 18.324219 22.3125 18.277344 22.3125 C 18.230469 22.308594 18.183594 22.308594 18.132812 22.308594 L 18.019531 22.308594 C 17.992188 22.308594 17.960938 22.308594 17.921875 22.308594 C 17.878906 22.304688 17.804688 22.300781 17.699219 22.292969 C 17.589844 22.289062 17.515625 22.28125 17.476562 22.28125 C 17.4375 22.277344 17.371094 22.277344 17.285156 22.273438 C 17.195312 22.269531 17.121094 22.265625 17.054688 22.265625 C 16.992188 22.265625 16.953125 22.265625 16.933594 22.265625 C 16.917969 22.261719 16.886719 22.261719 16.84375 22.261719 C 16.789062 22.261719 16.746094 22.304688 16.746094 22.359375 C 16.746094 22.414062 16.789062 22.457031 16.839844 22.457031 L 16.84375 22.457031 C 16.886719 22.457031 16.914062 22.457031 16.933594 22.457031 C 16.949219 22.457031 16.988281 22.457031 17.050781 22.460938 C 17.113281 22.460938 17.191406 22.464844 17.277344 22.464844 C 17.363281 22.46875 17.425781 22.472656 17.464844 22.472656 C 17.507812 22.476562 17.578125 22.480469 17.6875 22.488281 C 17.796875 22.496094 17.871094 22.5 17.914062 22.5 C 17.941406 22.5 17.96875 22.503906 17.992188 22.503906 C 18 22.503906 18.011719 22.503906 18.019531 22.503906 L 18.132812 22.503906 C 18.179688 22.503906 18.230469 22.503906 18.277344 22.503906 C 18.328125 22.503906 18.367188 22.503906 18.402344 22.503906 C 18.4375 22.503906 18.484375 22.5 18.546875 22.5 C 18.613281 22.496094 18.664062 22.492188 18.710938 22.488281 C 18.753906 22.488281 18.808594 22.480469 18.867188 22.476562 C 18.925781 22.46875 18.992188 22.460938 19.0625 22.453125 C 19.132812 22.445312 19.1875 22.441406 19.222656 22.4375 C 19.257812 22.429688 19.289062 22.425781 19.3125 22.421875 C 19.339844 22.417969 19.394531 22.410156 19.480469 22.394531 C 19.570312 22.382812 19.636719 22.371094 19.683594 22.359375 C 19.734375 22.351562 19.789062 22.339844 19.855469 22.328125 L 20 22.300781 C 20.03125 22.296875 20.0625 22.289062 20.09375 22.28125 C 20.101562 22.28125 20.109375 22.28125 20.121094 22.277344 C 20.117188 22.304688 20.113281 22.332031 20.113281 22.363281 C 20.105469 22.414062 20.144531 22.460938 20.199219 22.464844 C 20.203125 22.464844 20.203125 22.464844 20.207031 22.46875 Z M 20.207031 22.46875 " fill-opacity="1" fill-rule="nonzero"/></g></g></g></g><g clip-path="url(#c1ba2ec824)"><g clip-path="url(#991554505f)"><g clip-path="url(#7275230c74)"><g clip-path="url(#b047b14f7b)"><path fill="#000000" d="M 20.253906 22.527344 C 20.1875 22.527344 20.132812 22.578125 20.132812 22.644531 C 20.132812 22.710938 20.183594 22.765625 20.25 22.765625 C 20.316406 22.769531 20.371094 22.714844 20.371094 22.648438 C 20.371094 22.585938 20.320312 22.53125 20.253906 22.527344 Z M 20.253906 22.527344 " fill-opacity="1" fill-rule="nonzero"/></g></g></g></g><g clip-path="url(#df088fc722)"><g clip-path="url(#6afb744d50)"><g clip-path="url(#ec8b8dddee)"><g clip-path="url(#9a7732c45a)"><path fill="#000000" d="M 25.675781 7.28125 C 25.742188 7.28125 25.796875 7.226562 25.796875 7.160156 C 25.800781 7.09375 25.746094 7.039062 25.679688 7.039062 C 25.613281 7.039062 25.558594 7.089844 25.554688 7.15625 C 25.554688 7.222656 25.609375 7.277344 25.675781 7.28125 Z M 25.675781 7.28125 " fill-opacity="1" fill-rule="nonzero"/></g></g></g></g><g clip-path="url(#6326b74b1a)"><g clip-path="url(#525f9ac0d6)"><g clip-path="url(#b8a933ffe3)"><g clip-path="url(#b6503f5a80)"><path fill="#000000" d="M 3.144531 22.238281 C 3.078125 22.234375 3.023438 22.289062 3.023438 22.351562 C 3.023438 22.417969 3.074219 22.472656 3.140625 22.472656 C 3.203125 22.472656 3.257812 22.421875 3.261719 22.359375 C 3.261719 22.292969 3.210938 22.238281 3.144531 22.238281 Z M 3.144531 22.238281 " fill-opacity="1" fill-rule="nonzero"/></g></g></g></g><g clip-path="url(#74f9194b9a)"><g clip-path="url(#a14fe74923)"><g clip-path="url(#7b010d50a7)"><g clip-path="url(#d24d9f1d83)"><path fill="#000000" d="M 23.34375 2.074219 L 23.347656 2.074219 C 23.367188 2.074219 23.386719 2.074219 23.402344 2.074219 L 23.457031 2.070312 C 23.476562 2.070312 23.503906 2.070312 23.542969 2.066406 L 23.738281 2.0625 C 23.792969 2.0625 23.84375 2.058594 23.890625 2.058594 C 23.941406 2.058594 23.984375 2.058594 24.023438 2.058594 C 24.066406 2.058594 24.09375 2.058594 24.117188 2.058594 C 24.136719 2.058594 24.179688 2.058594 24.242188 2.058594 C 24.304688 2.058594 24.359375 2.058594 24.402344 2.054688 C 24.445312 2.054688 24.5 2.054688 24.558594 2.054688 C 24.617188 2.054688 24.679688 2.050781 24.75 2.050781 L 25.054688 2.050781 C 25.09375 2.046875 25.148438 2.046875 25.214844 2.050781 L 25.535156 2.054688 C 25.609375 2.054688 25.667969 2.054688 25.710938 2.054688 C 25.757812 2.054688 25.804688 2.054688 25.847656 2.054688 C 25.890625 2.054688 25.925781 2.054688 25.957031 2.054688 C 25.984375 2.054688 26.023438 2.054688 26.066406 2.054688 C 26.113281 2.058594 26.148438 2.058594 26.171875 2.058594 C 26.199219 2.058594 26.238281 2.058594 26.28125 2.058594 C 26.328125 2.0625 26.363281 2.0625 26.386719 2.0625 C 26.40625 2.0625 26.433594 2.0625 26.46875 2.0625 C 26.492188 2.0625 26.515625 2.0625 26.542969 2.066406 C 26.539062 2.078125 26.53125 2.09375 26.527344 2.113281 C 26.519531 2.128906 26.515625 2.140625 26.515625 2.144531 C 26.511719 2.148438 26.511719 2.15625 26.507812 2.164062 L 26.496094 2.195312 C 26.492188 2.203125 26.488281 2.214844 26.484375 2.226562 C 26.480469 2.238281 26.476562 2.246094 26.472656 2.25 C 26.472656 2.253906 26.460938 2.28125 26.441406 2.324219 C 26.421875 2.375 26.445312 2.433594 26.496094 2.453125 C 26.507812 2.457031 26.519531 2.460938 26.53125 2.460938 C 26.570312 2.460938 26.605469 2.4375 26.621094 2.398438 C 26.640625 2.355469 26.648438 2.332031 26.652344 2.328125 C 26.65625 2.320312 26.660156 2.308594 26.664062 2.292969 C 26.667969 2.28125 26.671875 2.273438 26.675781 2.265625 L 26.6875 2.238281 C 26.691406 2.222656 26.695312 2.214844 26.695312 2.210938 C 26.699219 2.207031 26.703125 2.195312 26.710938 2.175781 C 26.714844 2.15625 26.722656 2.140625 26.726562 2.125 L 26.75 2.066406 C 26.757812 2.042969 26.761719 2.027344 26.765625 2.019531 C 26.773438 2.003906 26.773438 1.988281 26.769531 1.972656 C 26.769531 1.972656 26.769531 1.972656 26.769531 1.96875 C 26.769531 1.917969 26.726562 1.875 26.675781 1.875 C 26.660156 1.875 26.632812 1.871094 26.589844 1.871094 C 26.546875 1.871094 26.507812 1.871094 26.472656 1.871094 C 26.4375 1.871094 26.410156 1.867188 26.386719 1.867188 C 26.363281 1.867188 26.332031 1.867188 26.285156 1.867188 C 26.238281 1.867188 26.203125 1.867188 26.179688 1.867188 C 26.152344 1.863281 26.117188 1.863281 26.070312 1.863281 C 26.027344 1.863281 25.988281 1.863281 25.957031 1.863281 C 25.929688 1.863281 25.890625 1.863281 25.847656 1.863281 C 25.804688 1.863281 25.757812 1.863281 25.714844 1.863281 C 25.667969 1.859375 25.609375 1.859375 25.539062 1.859375 L 25.214844 1.855469 C 25.148438 1.855469 25.09375 1.855469 25.050781 1.855469 L 24.75 1.859375 C 24.679688 1.859375 24.613281 1.859375 24.554688 1.859375 C 24.496094 1.863281 24.445312 1.863281 24.402344 1.863281 C 24.359375 1.863281 24.304688 1.863281 24.242188 1.863281 C 24.175781 1.863281 24.132812 1.863281 24.113281 1.863281 C 24.09375 1.863281 24.0625 1.867188 24.023438 1.867188 C 23.984375 1.867188 23.9375 1.867188 23.890625 1.867188 C 23.839844 1.867188 23.789062 1.867188 23.734375 1.871094 L 23.539062 1.875 C 23.5 1.875 23.46875 1.875 23.449219 1.878906 L 23.394531 1.878906 C 23.378906 1.878906 23.363281 1.878906 23.34375 1.878906 C 23.292969 1.882812 23.25 1.925781 23.25 1.976562 C 23.25 2.03125 23.292969 2.074219 23.34375 2.074219 Z M 23.34375 2.074219 " fill-opacity="1" fill-rule="nonzero"/></g></g></g></g><g clip-path="url(#4f5be65410)"><g clip-path="url(#296ab0f6e3)"><g clip-path="url(#d293ad1a78)"><g clip-path="url(#d3b01dd11b)"><path fill="#000000" d="M 26.421875 2.53125 C 26.355469 2.53125 26.300781 2.582031 26.300781 2.648438 C 26.296875 2.714844 26.351562 2.769531 26.417969 2.769531 C 26.484375 2.773438 26.539062 2.71875 26.539062 2.652344 C 26.542969 2.585938 26.488281 2.53125 26.421875 2.53125 Z M 26.421875 2.53125 " fill-opacity="1" fill-rule="nonzero"/></g></g></g></g><g clip-path="url(#3a0ba23570)"><g clip-path="url(#b447059303)"><g clip-path="url(#64296bbd17)"><g clip-path="url(#b0760ad1a1)"><path fill="#000000" d="M 6.757812 25.585938 C 6.707031 25.566406 6.648438 25.589844 6.628906 25.636719 C 6.625 25.644531 6.617188 25.664062 6.605469 25.699219 C 6.585938 25.75 6.613281 25.804688 6.664062 25.824219 C 6.675781 25.828125 6.683594 25.832031 6.695312 25.832031 C 6.734375 25.832031 6.773438 25.808594 6.789062 25.769531 C 6.800781 25.738281 6.808594 25.71875 6.808594 25.714844 C 6.832031 25.664062 6.808594 25.609375 6.757812 25.585938 Z M 6.757812 25.585938 " fill-opacity="1" fill-rule="nonzero"/></g></g></g></g></svg>